<svg id="Layer_1" data-name="Layer 1" xmlns="http://www.w3.org/2000/svg" viewBox="0 0 917.87 1050.14"><defs><style>.cls-1{fill:#ffc107;}.cls-2{fill:#ffd34e;}.cls-3{fill:#eea320;}.cls-4{fill:#d2d5d8;}.cls-5{fill:#bfc4c8;}.cls-6{fill:#e3e5e7;}.cls-7{fill:#2d9d91;}.cls-8{fill:#35b9ab;}.cls-9{fill:#f162ff;}.cls-10{fill:#e90eff;}.cls-11{fill:#b600c9;}.cls-12{fill:#85d52d;}.cls-13{fill:#73ba25;}.cls-14{fill:#ffc098;}.cls-15{fill:#1c91c5;}.cls-16{fill:#2f81a2;}.cls-17{fill:#276b86;}.cls-18{fill:#e15361;}.cls-19{fill:#fe9551;}.cls-20{fill:#ffd6bb;}.cls-21{fill:#ca2333;}.cls-22{fill:#42474c;}.cls-23{fill:#636a72;}.cls-24{fill:#737c85;}.cls-25{fill:#99a0a7;}.cls-26{fill:#acb2b7;}.cls-27{fill:#868e96;}.cls-28{fill:#dc3545;}.cls-29{fill:#9b3d01;}.cls-30{fill:#e7727d;}.cls-31{fill:#323232;}.cls-32{fill:#21a4df;}.cls-33{fill:#a8e169;}.cls-34{fill:#258278;}.cls-35{fill:#47cabc;}</style></defs><ellipse id="path7030" class="cls-1" cx="1484.45" cy="669.98" rx="72.19" ry="41.69" transform="matrix(0.95, -0.3, 0.3, 0.95, -944.24, 187.62)"/><path id="path7042" class="cls-2" d="M1494.7,663.58l41.19,25.09c-10.3,9-24,16.39-39,21.1-37.83,11.83-74.09,3.83-81.22-17.92,16-6.46,53.79-20.38,53.79-20.38Z" transform="translate(-811.91 -286.2)"/><path id="path7037" class="cls-3" d="M1481.59,627.65c13.7-3.1,27.26-3.7,39-1.72l-25.89,37.65Z" transform="translate(-811.91 -286.2)"/><path id="path13641" class="cls-1" d="M1021.57,1107.62s116.26,25.86,117.38,86.26c4.16,65.38-43.4,145.46-137.72,142.37C910,1333.67,845.05,1244.35,824.7,1184,816.58,1139.16,933.58,1101.07,1021.57,1107.62Z" transform="translate(-811.91 -286.2)"/><path id="path13639" class="cls-1" d="M955.67,908.66c23.48-7.34,48.9-11,70.27-13.2,48.85-4.9,237.53-31.55,237.53-31.55s273.55-50,317-38.4,133.55-23.29,123.12,57c-13.66,45.66-71.36,1.8-69.41,29.34s62.4,289.43,70.25,324c2.48,10.89,3.29,22.6.75,33.66a806.22,806.22,0,0,1-66.2,46.57c-4.9.65-10.09,1.16-15.67,1.46-80.14,4.33-255.29-29.78-302.58-157.24-36.64-74.48-188-41.94-229.06-45.39S867.8,1005.7,887.44,959.54C898.49,933.58,925.48,918.11,955.67,908.66Zm689.56-47.12c-.14,7.39-21.76,14.72-25.29,17.9s-9.86,7.61-10.82,10,3.32,2.16,8.13.09,38.58-7.93,39.37-16.84C1657.8,861.38,1645.23,861.54,1645.23,861.54Z" transform="translate(-811.91 -286.2)"/><path id="path13380" class="cls-4" d="M1489.28,765s-5,78.62-2.63,81.57,21.1,26,20-52.18C1507.71,759.92,1500.9,759.46,1489.28,765Z" transform="translate(-811.91 -286.2)"/><path id="path13384" class="cls-4" d="M1642.51,812.89s79.61-11.8,52.58,64.23c-17.35,31.63-63.68-11-81.18,36.93-6.58,22.49-14.28,2.89-12.85-5.93s9.65-34.46,61.46-31.28c12.64.23,17.91-36.52-28.47-34.06C1599.27,842.14,1642.51,812.89,1642.51,812.89Z" transform="translate(-811.91 -286.2)"/><path id="path13592" class="cls-5" d="M1632.39,820.75c17.79,4.25,59.24,17.47,46.09,46.89-4.52,8.08-9.73,11.55-27.46,9.32-.53-.06-1-.16-1.54-.24,4-.15,8.3-.17,13,.12,12.64.23,17.91-36.52-28.47-34.05-23.06-.43-11.86-13.33-1.66-22ZM1629,888.11c11.11-3.65,23.91-1.72,33.14-1.82,18.45-.22,33.62-13.31,33.62-13.31.27,0,.45.06.7.07-.43,1.35-.82,2.66-1.32,4.07-17.35,31.62-63.68-11-81.18,36.92-2.69,9.22-5.57,11.31-7.93,10,0-.25-.1-.45-.15-.69,2.55-22.41,12-31.63,23.11-35.28Z" transform="translate(-811.91 -286.2)"/><path id="path13612" class="cls-5" d="M1493.93,796.78l12.28,21.72c-.7,12.39-2.19,20.34-4,25.43-5.37.53-11.82.86-11.82.86Z" transform="translate(-811.91 -286.2)"/><path id="path13370" class="cls-4" d="M1553.39,724s42.63,29.1,53.47,50.33,61.8,18.38,39,71.09c-19.25,40.61-73.66,32.48-75,18.22-4.3-7-108.16-17.5-76.25-118.11C1527.58,700.07,1553.39,724,1553.39,724Z" transform="translate(-811.91 -286.2)"/><path id="path13575" class="cls-5" d="M1527.71,718.71a28.48,28.48,0,0,1,25.68,5.24s9.71,6.67,21,15.85c-1.57,11-7.61,35.55-30.82,42.93-.85,16.89-2.23,56.14,3.51,56.62,7.27.61,17.33-.7,20.09-.26s50-16.7,50-16.7,5.86-4.72,8.61.71c2,3.91,7.43,26.9,3.26,42.4-23.76,16.61-57.14,9.23-58.17-1.91-3.69-6-80.54-14.64-82.23-80.43,2.51,12.84,10,30.21,11.07,33,1.73,4.7,6.61,6.05,5.46,4.05s-.42-24,4.84-34.78-2.48-11.27-7.07-10.88-9-5.31-9-5.31c-2.28-.48-3.81.06-4.78,1.31a129.57,129.57,0,0,1,5.46-25.09c12.35-17,23.71-24.32,33.07-26.77Z" transform="translate(-811.91 -286.2)"/><path id="path13376" class="cls-4" d="M1517.91,776.55s-10.25,82.66.89,97c4,2.09,23.47-5.49,19-33s15-73.41-19.84-64Z" transform="translate(-811.91 -286.2)"/><path id="path13374" class="cls-4" d="M1591.39,806.89s-42,28.32-21.79,57.63c7.5,22.28-28.23,38.69-15.46,41s59.23-21.68,63.61-36.15S1633.41,808.93,1591.39,806.89Z" transform="translate(-811.91 -286.2)"/><path id="path13602" class="cls-6" d="M1608.2,829.65s19.63,15.87,6.5,33.33c-11,15.77-20.76,24-24.5,16.31s5.62-13,.16-21.26S1578,821,1608.2,829.65Z" transform="translate(-811.91 -286.2)"/><path id="path13326" class="cls-7" d="M1604.07,882s154.49,77.4,120.94,197.91c.81,76.24,3.4,158.2-36.09,172.65s-220.33,62.65-310.4-77.86c-1.09-60.43-17.2-232.46,96.55-277.48,25.17-10,72.43-34.19,129-15.22Z" transform="translate(-811.91 -286.2)"/><path id="path13328" class="cls-8" d="M1512,883c25-7.86,56.69-12.87,92-1,0,0,154.48,77.4,120.93,197.91,0,1.18,0,2.36,0,3.54-7.17,25-50.6,142.4-223.59,86.27-42.57-12.79-97.27-66-120.4-121.86,8-62.16,31.18-125.77,94-150.64,9.44-3.74,22-9.48,37-14.2Z" transform="translate(-811.91 -286.2)"/><path id="path13530" class="cls-7" d="M1410.21,953.81c8.12,1.8,95.55,21.22,105.28,26.31,8,4.19,29.55,19.6,40.17,27.25,18.44-2.83,76.06-6.19,76.06-6.19s17.4,2.33,12.85,18.57c-1.36,8.4-31.71,10.43-57.19,9.31l26.39,17.74s39.21,8.1,28.67,27.7c-8.81,16.83-27.2,19.62-50.78,12.93s-61.65,1.87-71.71-10.16-33-33.38-30.79-40.38c2.11-6.55-81.5-38.73-93.41-52a187.82,187.82,0,0,1,14.46-31.13Z" transform="translate(-811.91 -286.2)"/><path id="path13324" class="cls-9" d="M993.54,387S893.38,354.18,853,469.5c-15.79,66.76-17.48,565.56,374.74,616.22,56.44-4.33,146.27-25,133-105.33-12.85-79,4.08-171.68-28.5-200s-88.15,2.4-151.88-82.87S1050.23,381.1,993.54,387Z" transform="translate(-811.91 -286.2)"/><path id="path13486" class="cls-10" d="M857.33,657c38.09,115.27,84.49,195.79,132.17,252,60.14,65.67,130,88.63,165.45,88.39,42.38-.6,21.45-89.54,21.45-89.54a626.17,626.17,0,0,1,87.33-23.94c-2.36-1.29-4.07-2.07-4.07-2.07-9.07-19.28,27.86-71.33,58.81-109.88a50.3,50.3,0,0,1,13.76,8.39c32.57,28.33,15.64,121.06,28.49,200,13.28,80.31-76.56,101-133,105.33C970.94,1052.56,883,827.31,857.33,657Z" transform="translate(-811.91 -286.2)"/><path id="path13322" class="cls-10" d="M978.71,383.88a99.91,99.91,0,0,1,14.83,3.1c8.6-.89,17.42,3.74,26.42,12.41,33.28,55.22,77.47,180.54,111.74,264.49,52.89,53.91,129.86,113.8,172.62,147.62,16,6.33,28.91,10.89,34.53,12.06,5,1,9.35,4.43,13,9,1.29,11.54,1.89,24.36,2.29,37.77-7.63-3-22.48-7.47-37.47-4.41-26.33,22.53-77.29,49.81-143.65,50.4-195.74,6.27-200.94-178.7-252.53-362.73-7-75.79,22.71-102.79,49.78-112C969,418.88,970.84,397.9,978.71,383.88Z" transform="translate(-811.91 -286.2)"/><path id="path13491" class="cls-11" d="M978.71,383.88A97.83,97.83,0,0,1,993.54,387c8.6-.9,17.41,3.72,26.41,12.4,49.71,82.48,123.91,321.88,152.75,345.18,36.45,29.46,146,74.82,166.15,79,5,1,9.35,4.43,13,9,1,8.55,1.47,18,1.87,27.63a.43.43,0,0,0,.12.05c.11,2.76.15,5.78.24,8.62,0,.5,0,1,.06,1.49h0c1,34.59.7,73.67,6.62,110.07,9,54.34-29.25,81.33-72.39,94.48-5.6-23.65-18.06-86.43-23.19-129.76-3.14-26.51-13.28-44.84-22.66-56.57,6.86-1.61,13.9-3.18,21.25-4.61-2.36-1.29-4.07-2.07-4.07-2.07a13.6,13.6,0,0,1-.94-2.87c-53.2,9.47-129.37,14.72-169.07-23-18.35-25.17-21.88-56.55-26-79.87s-3.06-39.91-10.46-50.17-43.14-44.13-47.83-72.52-9.9-71.82-12.71-90.85C990,545.08,953.49,428.81,978.7,383.89Z" transform="translate(-811.91 -286.2)"/><path id="path13318" class="cls-12" d="M1568,964.83s83.43,7.95,64.38,41.67c-12.68,23.09-31.82,2.1-60.39,12.09s-50-26.55-38.25-35.18S1568,964.83,1568,964.83Z" transform="translate(-811.91 -286.2)"/><path id="path13517" class="cls-13" d="M1534,1002.48c9.51,4.54,21.66,8.11,31.12,4.34,17.13-6.84,41.23,5.07,57.55-3.74,10.18-5.37,10.82-11.28,8.7-16.05,4.26,5.26,5.38,11.67,1,19.47-12.68,23.09-31.82,2.1-60.39,12.09-17.1,6-31.55-4.71-38-16.11Z" transform="translate(-811.91 -286.2)"/><path id="path13307" class="cls-14" d="M1571.69,957.58l3.09,11.41s-8.85,11.44-22.52,9.69c-1.28-2.8-2.78-5.8-4.55-9,11.82-.78,18.46-6.59,24-12Z" transform="translate(-811.91 -286.2)"/><path id="path13320" class="cls-12" d="M1522.56,1005.5s133.36,14.33,107.54,59.08c-16.42,32.9-49.84,1.44-76.29,4s-71.45-19-31.25-63Z" transform="translate(-811.91 -286.2)"/><path id="path13512" class="cls-13" d="M1522.56,1005.5s2.86.34,7.14.92c1.5,1.2,1.87,2.67.27,4.35-7.1,7.46-6.73,43,9.78,39.64,56.61-8.28,49.14,6.36,69.07,10.61,14.94,3.18,19.54-11.17,20.91-18.55,4.44,6.37,5.22,13.7.37,22.11-16.42,32.9-49.84,1.44-76.29,4s-71.44-19-31.25-63Z" transform="translate(-811.91 -286.2)"/><path id="path13305" class="cls-14" d="M1551.33,1000.55l5.53,18.31s-10.12,17.05-32.22,10.87c-.65-2.06-1.87-5.07-3.08-7.93,14.14.61,19.32-11.4,29.77-21.25Z" transform="translate(-811.91 -286.2)"/><path id="path13286" class="cls-15" d="M1218.86,718.79s188.64,6.18,201.21,15.58,174.83,208.31,162,214.56-18.26,31.64-61.79,15.63-100-130.22-166.92-140.41-118.82,3.84-146.76-21.5-57.17-52.5-51.69-58.66S1218.86,718.79,1218.86,718.79Z" transform="translate(-811.91 -286.2)"/><path id="path13440" class="cls-16" d="M1218.86,718.79s78,2.56,137,6.89c6.62,8,12.71,13.44,18.38,13.46,7,0,12.65-5.13,18.27-10.17,14.5,1.64,24.93,3.45,27.54,5.4a42.72,42.72,0,0,1,4.22,4.09c-6.57,3.29-25.3,12.59-46.31,22.95,14.17,3,36.46,9.28,49.7,21,17,15,100.38,141.6,129.07,185.47-8.1,2.87-19.31,3-36.51-3.28-43.54-16-100-130.21-166.91-140.4-8.95-1.36-17.61-2.27-26-2.92-.93-8.87,15.36-32.64,26.77-48.09-36.4,17.77-73.16,35.27-76.64,35.05-3.82-.25-48.65-12.44-90.55-23.64-20.19-19-36.2-35.87-32-40.56,5.48-6.16,64-25.2,64-25.2Z" transform="translate(-811.91 -286.2)"/><path id="path13280" class="cls-15" d="M1227,749.58s140.89,12.22,169,30.86,178.07,202.11,159,217-20.19,39.66-63.73,11.79-121.37-160.58-160.09-158.84-205.08,50.56-232.32-36.49c-16.18-45.31-31.1-85.43-.16-101.55,46.27,1.08,32.69-38.75,128.34,37.27Z" transform="translate(-811.91 -286.2)"/><path id="path13456" class="cls-17" d="M1193.3,727.56c13.62,2.81,102.19,21.44,112.11,33.42,10.72,12.95-12.18,17.89-38.17,14.17s-39.82-17.18-54.61-21.81c-9.91-3.11-44.66-7.59-48.27-14.58,7.83-3.5,18.52-7.51,28.94-11.2Z" transform="translate(-811.91 -286.2)"/><path id="path13442" class="cls-16" d="M1098.67,712.31c46.27,1.08,32.69-38.76,128.34,37.26,0,0,84.53,7.38,135.67,19.37-39.49,19.34-81.55,39.48-85.22,39.25-7-.45-151.68-41.08-161.79-41.59s5.6,64.79,68.45,69.74c66.21,2.34,144.65-23.25,204.65,24.51,25.72,21.09,115.91,118,149.1,154.2-8.8,8.41-19.46,11.54-46.63-5.86-43.54-27.86-121.37-160.58-160.09-158.84s-205.09,50.56-232.32-36.49c-16.19-45.31-31.1-85.43-.16-101.55Z" transform="translate(-811.91 -286.2)"/><path id="path13265" class="cls-18" d="M1141.11,493.6c20.69,3.64,50.68,17.93,73.9,66.42,17.82,36.86,15.67,33.34,15.67,33.34a135.65,135.65,0,0,1-17,10.78C1224,558.66,1169.45,513.55,1141.11,493.6Z" transform="translate(-811.91 -286.2)"/><path id="path13270" class="cls-14" d="M1223.8,598.11c6.78,14.6,44.52,93.14,74.84,99.79,2.26,19.43-61.29,5.42-90.46-54.48h0c-.72-10.52,0-21.23,3.17-31.44a52.75,52.75,0,0,0,2.36-7.84c3.85-2,7.24-4.15,10.09-6Z" transform="translate(-811.91 -286.2)"/><path id="path13414" class="cls-19" d="M1210.19,616.21c6.08,19.3,20,49.77,51.06,72.28,3,4.87,4,8.71,3.54,11.72-19.18-8.63-42.14-27-56.63-56.79a89.25,89.25,0,0,1,2-27.2Z" transform="translate(-811.91 -286.2)"/><path id="path7081" class="cls-20" d="M1223.8,598.12c6.79,14.61,44.52,93.13,74.84,99.78a7.59,7.59,0,0,1-.08,2.15c-63.3-24.31-78.59-91.39-80.07-98.61C1220.4,600.29,1222.2,599.16,1223.8,598.12Z" transform="translate(-811.91 -286.2)"/><path id="path13261" class="cls-4" d="M1124.88,482.92s111.69,65.64,86.48,129.06c-11.77,37.73,9.54,82.41,16.2,98.66s-83.4,54.91-138.68,34c-22.85-12.76-26.12-58.36-36.77-80.7s-20.21-113.12-18.6-123.06S999.07,479.32,1124.88,482.92Z" transform="translate(-811.91 -286.2)"/><path id="path13461" class="cls-5" d="M1154.3,640.21a28.42,28.42,0,0,1,13.39-1.21c20.61,3.45,33.08-2.5,40.51-9.54a106.94,106.94,0,0,0,.86,22.42c-12.33,4.88-28.09,7.17-37.77,9.56-22.36,5.51-26.66,14.27,3.57,36.3,19,13.8,17.61,29.29,12.49,41.77-29.36,10.38-68.86,16.31-98.47,5.09-20.26-11.31-25.13-48.39-33.4-72.23,4.75-3.48,11.57-5,20.65-3.67,42.84,10.46,56.12-21.1,78.17-28.49Z" transform="translate(-811.91 -286.2)"/><path id="path13426" class="cls-5" d="M1057.75,489.06a107.05,107.05,0,0,1,11.16-2.77c17-2.21,35.78-2.52,52.24,1.91,38.83,10.44,30.67,64.86,24.39,66.09s-15.15-15.27-24.87-3.71-29.52.34-43.38,5.79,1.73,15-11.3,30.21c-6.8,7.21-17.71,6.68-28.73,3.17-2.87-23.53-4.47-44.45-3.75-48.91,1.21-7.44-18.77-38.33,24.24-51.78Z" transform="translate(-811.91 -286.2)"/><path id="path13244" class="cls-5" d="M1256.56,746.62l10.92,39.94-77.66-19.06Z" transform="translate(-811.91 -286.2)"/><path id="path13240" class="cls-18" d="M1033.51,540.84s59.73,36.85,55.77,79.47c-3.17,51.81,1.78,49.22,1.78,49.22s-35.22,23.06-63-7C1015.44,645.51,983.92,571.55,1033.51,540.84Z" transform="translate(-811.91 -286.2)"/><path id="path13424" class="cls-21" d="M1033.51,540.84s21.67,13.45,38,33.43c-.3,3.61-1.6,7.7-5.56,12.31-13.42,14.22-42.62-1.55-57.45-11.1A54.3,54.3,0,0,1,1033.51,540.84Z" transform="translate(-811.91 -286.2)"/><path id="path13232" class="cls-22" d="M1018.11,289.45a17.05,17.05,0,0,1,2.52-.59c162.9-28.74,128.21,183.63,127.28,233.93S1121.8,508,1121.8,508l-.78-.7c8.79-24.09-10.56-67-12.09-70.33,9-9.62,16-23,21-35.61,13.5-46.82-36.5-63.4-36.5-63.4-8-1.94-14.09-3.29-19-2.12s-8.68,4.84-12.07,12.94c-3.94,25.31-19.92,13.28-34.6,20.83s-14.08,29.6,19.06,63.31a78.54,78.54,0,0,0,15.41,12,4,4,0,0,0,.9,1c9.37,7.44,8.85,35.39,3.88,56.21a41.8,41.8,0,0,0-.8,4.51c-21.35,12.81,6.13,65-11.56,71.55-101.41,12.13-88.93-272.12-36.53-288.79Z" transform="translate(-811.91 -286.2)"/><path id="path7079" class="cls-23" d="M1081.93,297.6s44.85,9.7,58.42,68.74c9.24,35.53,7.46,112.93,6.3,114s-5.23-5.89-4.74-14,10.77-108.84-54.22-148c-21.84-12-16-22.13-5.76-20.8Z" transform="translate(-811.91 -286.2)"/><path id="path13225" class="cls-14" d="M1093.41,338s50,16.59,36.51,63.41c-13.49,33.86-40.93,72.82-83.11,31.56-33.14-33.71-33.74-55.75-19.06-63.31s30.67,4.48,34.6-20.83c6.79-16.2,15-14.7,31.06-10.83Z" transform="translate(-811.91 -286.2)"/><path id="path13227" class="cls-14" d="M1062.22,445c19.18,11.08,34.72,4.89,46.71-8,2,4.26,33.06,73.24-2.82,84.83C1074.67,529,1062,523,1067,502.18s5.49-48.77-3.88-56.21a4.18,4.18,0,0,1-.9-1Z" transform="translate(-811.91 -286.2)"/><path id="path13242" class="cls-23" d="M1374.66,596.32l-143.1,58.85,35.92,131.38L1402.35,731Z" transform="translate(-811.91 -286.2)"/><path id="path13252" class="cls-24" d="M1267.48,786.56l2.24,7.15L1404,736.25l-1.64-5.23Z" transform="translate(-811.91 -286.2)"/><path id="path13254" class="cls-25" d="M1267.48,786.55l-77.66-19,1.64,5.24,78.26,21Z" transform="translate(-811.91 -286.2)"/><path id="path13256" class="cls-14" d="M1046.19,675.12c17.48,6.7,34.1,0,41.14-3.57,1.24.58,72.24,33.58,115,72.15,15.45,10.88,43.38-2.84,52.16,22.71,3.82,15.57-16.89,15.63-23.54,13.94-27.42-9.81-23.37,3.75-48.65-9.43-14.44-7.53-108.16-21.69-136-95.74l0-.06Z" transform="translate(-811.91 -286.2)"/><path id="path13333" class="cls-26" d="M988.52,822.65s166.31,2.45,181.8,105.52c6.88,55.48-23.54,75.47-23.54,75.47S964,1089.13,818.08,974.46C802,927.58,804.61,830.94,988.52,822.65Z" transform="translate(-811.91 -286.2)"/><path id="path13336" class="cls-4" d="M903.12,835.72c22.8-6.85,50.92-11.52,85.4-13.07,0,0,166.31,2.45,181.8,105.52a124.57,124.57,0,0,1,.9,20.12c-30.38,23.16-88.19,49.22-193.64,47.14-94.62-3.62-143.38-44.23-164-76C819.56,887.37,842.77,853.86,903.12,835.72Z" transform="translate(-811.91 -286.2)"/><path id="path13348" class="cls-26" d="M984.41,1125.88s95.88,3.35,102.65,72.35c4,50.62-87.5,63.68-139.43,42.15-50.84-20.4-63.85-66.71-45.38-85.83,18.68-18.44,36.65-22.58,82.16-28.67Z" transform="translate(-811.91 -286.2)"/><path id="path13573" class="cls-27" d="M994.6,1177s58.95,27.65,38.14,41.5c-17,12.65-94.84,31.77-134.29-24-16.65-23.08,38.75-77.09,72.76-35.34C991.75,1194.64,994.6,1177,994.6,1177Z" transform="translate(-811.91 -286.2)"/><path id="path13341" class="cls-22" d="M923.87,1025.68c41.56,10,82,10.09,116.77,5.93-2,18.5-18.84,172.18-36.42,172.75-18.67.61-28.7-4.64-33-11.68C967.26,1186.19,929.87,1047.9,923.87,1025.68Z" transform="translate(-811.91 -286.2)"/><path id="path13564" class="cls-26" d="M1087.82,875.1s27.38,2.95,20.91,6.55-23.52,1.86-26.74,5-5,15.17-40.1,21.71c-27.93,5.34-41.71,6.5-43.31-5.31s-2.33-19.17,16.95-18.66S1083.21,872.08,1087.82,875.1Z" transform="translate(-811.91 -286.2)"/><path id="path13350" class="cls-28" d="M1020.34,812.06c15.26-5,35-5.43,57.12,2.51,4.12,1.58,7.12,7.17,8.82,14.68,17.58-3.41,30.09-.41,35.11,16.33,3.47,12.25-2.38,35.94-25.6,33.94-9.65-2.87-9.92-.67-14.33-3.16-4.15,8.85-10.41,15.68-19.11,17.77-49.39,22.12-59.1-3-74.13-42.75-3-14.94,9.81-32,32.12-39.32Zm68.4,30c2.76,4.64-3.61,16.07-3.63,21.05s21.35,8,23.43-6.3c4.41-24.43-19.8-14.75-19.8-14.75Z" transform="translate(-811.91 -286.2)"/><path id="path13554" class="cls-21" d="M1078.37,828.15s0-22.77-52.06-15.27c-6.44,1.62-39.28,11.76-26.88,33.81,13.73,14.57,78.94-18.54,78.94-18.54Z" transform="translate(-811.91 -286.2)"/><path id="path13359" class="cls-29" d="M1078.43,828.34s-7.3-22.16-51.31-12.47c-21.13,5.87-35.11,24-25,36s71.3,14.74,76.36-23.52Z" transform="translate(-811.91 -286.2)"/><path id="path13361" class="cls-4" d="M1487.61,638.92c7.38-3.31,20.25,19.15,27.18,32.57a86.8,86.8,0,0,1,20.33,5.79,100.22,100.22,0,0,1,13.42,11.57c24.57-9,71.31-24.19,62.37-5.42-12.55,18.31-29.34,34-43,41.72,1,10.49-2.08,22-12.45,33.79-29.58,34.4-76.6-13.76-79.85-25.83-2-7.62-5-38.85,10.17-53.94-3.47-14-5.46-34.31.89-39.63a4.29,4.29,0,0,1,1-.62Z" transform="translate(-811.91 -286.2)"/><path id="path13386" class="cls-30" d="M1557.21,692.63s41.36-13.07,39.17-10-22.71,26.62-31,23.46S1554.25,694.87,1557.21,692.63Z" transform="translate(-811.91 -286.2)"/><path id="path13388" class="cls-30" d="M1490.27,644.43s16.81,31.14,10.7,32.53-10.59-.35-12.16-5.36S1482.51,640.57,1490.27,644.43Z" transform="translate(-811.91 -286.2)"/><path id="path13390" class="cls-30" d="M1496.57,730.73s13.86,3.26,13.41,6-9.17,8.37-12.06,6.65-7-14-1.35-12.67Z" transform="translate(-811.91 -286.2)"/><path id="path13394" class="cls-19" d="M1062.22,445c19.18,11.08,34.72,4.89,46.71-8a198.56,198.56,0,0,1,8,21.1c-12.26,7.87-33,10.08-30.52,25.88,2.21,14.11,13.94,27.78,23,36.53a27.18,27.18,0,0,1-3.29,1.32C1074.67,529,1062,523,1067,502.17s5.49-48.76-3.88-56.21a4,4,0,0,1-.9-1Z" transform="translate(-811.91 -286.2)"/><path id="path13399" class="cls-19" d="M1070.89,337.25c7.94,38.17-15.24,30.16-32.39,37-16.21,6.59,0,41.52,10,60.26-.57-.54-1.14-1-1.73-1.6-33.14-33.71-33.74-55.75-19.06-63.31s30.66,4.48,34.6-20.83c2.53-6,5.27-9.62,8.54-11.53Z" transform="translate(-811.91 -286.2)"/><path id="path13404" class="cls-31" d="M1058.86,329.5c17.84-5.66,43.81,4.38,56,21.05A73.18,73.18,0,0,0,1093.42,338c-8-1.94-14.09-3.29-19-2.12s-8.68,4.84-12.07,12.94c-3.94,25.31-19.92,13.27-34.6,20.83s-14.08,29.6,19.06,63.31a78.54,78.54,0,0,0,15.41,12,4,4,0,0,0,.9,1c9.37,7.44,8.85,35.39,3.88,56.21a41.8,41.8,0,0,0-.8,4.51c-21.08,12.65,5.42,63.65-11,71.25-3.61-5.08-15-22.6-15-43.93,0-25.14,17.43-53.12-3.22-82.29S985.5,384,1013.29,360.67c13-8.77,16.55,2.68,32.83-22.32a25,25,0,0,1,12.74-8.85Zm68.32,78.17c4.8,44.53,9.27,106.11,9,128.94-6.93-9.49-14.36-28.61-14.36-28.61l-.78-.7c8.79-24.09-10.56-67-12.09-70.33,7.49-8,13.51-18.65,18.25-29.3Z" transform="translate(-811.91 -286.2)"/><path id="path13409" class="cls-22" d="M1375,597.74,1402.36,731l-134.31,55.3Z" transform="translate(-811.91 -286.2)"/><path id="path13416" class="cls-19" d="M1046.19,675.12a43.35,43.35,0,0,0,13,2.78c6,12.5,21.75,41.09,45.28,53,26.92,13.81,72.08,32.65,88.45,36.42,14.33,3.3,47.73,4.91,58.35,10.18-5.56,4.33-16,4-20.37,2.89-27.43-9.81-23.37,3.75-48.65-9.43-14.44-7.53-108.16-21.69-136-95.74l0-.06Z" transform="translate(-811.91 -286.2)"/><path id="path13434" class="cls-21" d="M1162.12,509.76c18.13,10.87,56.16,39.66,58.07,90.67-2,1.23-4.18,2.49-6.48,3.71,8.08-35.7-23.79-71.13-51.59-94.38Z" transform="translate(-811.91 -286.2)"/><path id="path13466" class="cls-6" d="M1170.23,535.79s48.45,22.56,34.75,70.85c-15,25.66-43.72,29.4-48.08,17.14s2.41-10.71,1.57-41.88S1153.5,525.83,1170.23,535.79Z" transform="translate(-811.91 -286.2)"/><path id="path13468" class="cls-30" d="M1012.92,585.53s27.59,4.47,41.2,37.93,7.29,50.1-5.26,45.13S1008.7,642.38,1012.92,585.53Z" transform="translate(-811.91 -286.2)"/><path id="path13470" class="cls-6" d="M1202.78,675.66s11.45,15.31,8.38,24.42-12.08,30.08-5,26.75,16.91-1.59,14.44-13-6.81-49-17.85-38.13Z" transform="translate(-811.91 -286.2)"/><path id="path13480" class="cls-20" d="M1089.25,677.47s84.69,39.81,112.54,69.63c7.38,11.76-16.68,1.14-24.15-.23s-130.62-65.82-88.39-69.4Z" transform="translate(-811.91 -286.2)"/><path id="path13482" class="cls-32" d="M1387.58,788.4s141.13,141.65,163.93,202.68c1.14,10.75-8.3,13.71-20.84,2.07S1366.61,807.4,1371.25,798.54,1375.78,787.81,1387.58,788.4Z" transform="translate(-811.91 -286.2)"/><path id="path13484" class="cls-32" d="M1438.09,763.55s128,155.56,135,175.6c-2.66,10.46-19.15,19.32-27.72-1S1408,759.64,1438.09,763.55Z" transform="translate(-811.91 -286.2)"/><path id="path13499" class="cls-19" d="M1537.73,1015.18c3,4.53,8.73,9,18.27.84l.86,2.84s-10.12,17.05-32.23,10.87c-.64-2.06-1.87-5.07-3.08-7.93,7,.31,11.83-2.51,16.17-6.62Z" transform="translate(-811.91 -286.2)"/><path id="path13501" class="cls-19" d="M1547.71,969.63a32.16,32.16,0,0,0,12-3.07c3.11,2.08,7.79,3.11,13.92-1.82l1.14,4.24s-8.85,11.45-22.52,9.7c-1.28-2.8-2.78-5.8-4.55-9Z" transform="translate(-811.91 -286.2)"/><path id="path13522" class="cls-33" d="M1579.83,970s47.77,7.45,48.4,20.35c0,7.59-9.4,10.53-17.16,6.67s-13.65-5.55-27.13-12.2-17.77-11.6-4.11-14.82Z" transform="translate(-811.91 -286.2)"/><path id="path13524" class="cls-33" d="M1566.34,1017.74s54.41,8.17,56.85,27.22c1.27,10-10.54,10.71-18.27,2.57s-17.89-9.22-35.09-13.29-9.68-17.34-3.5-16.5Z" transform="translate(-811.91 -286.2)"/><path id="path13540" class="cls-34" d="M1377.19,1116.82c11.25,29,47.82,104,131.12,117.44,129.84,16.84,188.84-24.89,215.63-64.28-2.91,41.19-11.44,74-35,82.6-39.48,14.45-220.33,62.65-310.4-77.86C1378.27,1160.56,1377.23,1140.15,1377.19,1116.82Z" transform="translate(-811.91 -286.2)"/><path id="path13545" class="cls-35" d="M1606.22,1104.36s32.69,9.77,22.79,49.17c-9.15,22.87-86.55,12.27-115.79-3s-39.75-39.42-72-71.55-58.9-55.66-36.2-49.43,48.1,59,78.69,62.07,56.65,20.06,80.91,26.54,10.75-24.84,41.63-13.76Z" transform="translate(-811.91 -286.2)"/><path id="path13548" class="cls-35" d="M1580.79,895.23s117.66,35.06,122.49,112.08c3.4,70.06-26.4,12.7-42.65-15.55s-28.94-31-54-44.61-43-56.93-25.88-51.92Z" transform="translate(-811.91 -286.2)"/><path id="path13556" class="cls-21" d="M993.32,864.58c4.26,7.1,21.89,33.29,45.93,24.4s39.79-16.28,47.4-43.47c.43-3.85,1-8.21,1-8.21s21.6-7.55,27.32,8.21c3,9,3.74,24.11-17.2,25.82-9.81.73-13.62.33-14.76-.69a23.43,23.43,0,0,0-1.51,5.74l0,0c-4.15,8.84-10.41,15.67-19.11,17.76-43.63,19.55-56.3,2.17-69-29.54Zm96.45-22.89c-.65.21-1,.37-1,.37,2.76,4.64-3.62,16.07-3.63,21.05s21.35,8,23.43-6.3c3.86-21.38-14.19-16.64-18.77-15.12Z" transform="translate(-811.91 -286.2)"/><path id="path13566" class="cls-31" d="M923.87,1025.68c41.56,10,82,10.09,116.77,5.93-.27,2.53-.87,7.91-1.65,14.74-17,3.55-47.11,8-74.47,2.07-6.6,4.23,22,141.08,43,154.07a4.92,4.92,0,0,1-3.31,1.87c-18.67.61-28.7-4.64-33-11.68C967.26,1186.19,929.87,1047.9,923.87,1025.68Z" transform="translate(-811.91 -286.2)"/><path id="path13600" class="cls-6" d="M1518.41,840.72s-4.77-62.16,7.07-61.15C1533.13,780.59,1530.55,842.68,1518.41,840.72Z" transform="translate(-811.91 -286.2)"/><path id="path13604" class="cls-6" d="M1582.33,757.86s19.53,17.2,21.79,31.95S1597.29,804,1578.6,797s-16.32-19.51-10.74-26,8.91-15.89,14.47-13.17Z" transform="translate(-811.91 -286.2)"/><path id="path13606" class="cls-6" d="M1539,693.07s-16-19.08-35.63-8.48-2.46,12.25.92,23,9.79,8.79,18.29,2.8S1549.53,699.42,1539,693.07Z" transform="translate(-811.91 -286.2)"/><path id="path13608" class="cls-6" d="M1665.38,816.48s34.85,5.07,33,32.64c-2.68,20.74-9.35,1.09-13.65-6a32.75,32.75,0,0,0-18.08-14.25C1659.73,826.89,1658.46,814.46,1665.38,816.48Z" transform="translate(-811.91 -286.2)"/><path id="path13610" class="cls-6" d="M1662.24,879.28s-25.79-3.72-40.06,6.77c-7.39,6.51,10.8-2.33,19.34-2.64S1672,886.18,1662.24,879.28Z" transform="translate(-811.91 -286.2)"/><path id="path13617" class="cls-6" d="M1615,790.33s40.46,13.79,34,36.52c-3.73,18.2-9.16,25.13-10.11,21.24s2.33-19.33-.19-24-19.47-12-24.15-19.42S1607,788.91,1615,790.33Z" transform="translate(-811.91 -286.2)"/><path id="path7077" class="cls-20" d="M1102.74,346.65s26.33,14.93,25.27,29c.19,11.43-2.51,23.07-6,22.29s-26.87-21.17-27.39-32.19S1087.8,340.86,1102.74,346.65Z" transform="translate(-811.91 -286.2)"/></svg>