<svg id="Layer_1" data-name="Layer 1" xmlns="http://www.w3.org/2000/svg" viewBox="0 0 1239.26 980.02"><defs><style>.cls-1{fill:#bbbcb7;}.cls-2{fill:#a8e169;}.cls-3{fill:#85d52d;}.cls-4{fill:#73ba25;}.cls-5{fill:#69aa22;}.cls-6{fill:#ffdc72;}.cls-7{fill:#ffca2b;}.cls-8{fill:#ffedb3;}.cls-9{fill:#2f81a2;}.cls-10{fill:#3797be;}.cls-11{fill:#1f556b;}.cls-12{fill:#9b3d01;}.cls-13{fill:#fcaf17;}.cls-14{fill:#712d01;}.cls-15{fill:#35b9ab;}.cls-16{fill:#2d9d91;}.cls-17{fill:#bf4b01;}.cls-18{fill:#258278;}.cls-19{fill:#d2d5d8;}.cls-20{fill:#bfc4c8;}.cls-21{fill:#99a0a7;}.cls-22{fill:#ffc098;}.cls-23{fill:#47cabc;}.cls-24{fill:#42474c;}.cls-25{fill:#fe9551;}.cls-26{fill:#636a72;}.cls-27{fill:#737c85;}.cls-28{fill:#acb2b7;}.cls-29{fill:#f2f3f4;}.cls-30{fill:#ffe5d4;}.cls-31{fill:#323232;}.cls-32{fill:#dfe1e3;}</style></defs><g id="g19118"><path id="path13165" class="cls-1" d="M2178.06,1134.62c183.06,22.06,321.86,37.79,186.62,146.92-79.41,65.52-43.68,85.37-182.65,115.15s-101.26-2-285.9,31.77-295.82-11.91-279.94-67.5-35.73-127.07-75.44-172.73S1342.21,1130.65,1372,1069.1s530.1-41.69,595.62-11.91,210.45,77.43,210.45,77.43Z" transform="translate(-1179.61 -459.98)"/><g id="g10159"><path id="path10123" class="cls-2" d="M1295.66,682.43a137,137,0,0,0-32.84,2C1204.28,708.09,1316,721.26,1375,797c9.78,16.78,17.72,31.4,23.43,43.63,8.52.81,18.48,1.48,29.84,1.92-5.7-30.18-26.61-114.73-87.65-147.43a108.87,108.87,0,0,0-44.94-12.69Z" transform="translate(-1179.61 -459.98)"/><path id="path10125" class="cls-2" d="M1585.24,692.18a137.31,137.31,0,0,1,32.63,4.22c56.82,27.53-55.52,33.15-119.47,104.76-10.88,16.08-19.79,30.13-26.31,42-8.56.24-18.54.23-29.9-.09,7.72-29.73,34.26-112.68,97.37-141.2a109,109,0,0,1,45.68-9.64Z" transform="translate(-1179.61 -459.98)"/><path id="path10127" class="cls-3" d="M1627.12,701.74c32.43,23.26-69.13,32.69-128.72,99.42-10.88,16.08-19.79,30.13-26.31,42-3.25.09-6.66.14-10.31.16,17-51.29,113.78-109.54,144.37-123.39,18.66-8.44,21.8-14.48,21-18.14Z" transform="translate(-1179.61 -459.98)"/><path id="path10129" class="cls-2" d="M1611.72,738.78c23.73,0,48.65,7.75,73.56,27.43,40.37,48.55-64.26,7.26-152.08,46-17.69,10.84-32.53,20.54-43.61,29-9.22.71-20.44,1.21-33.6,1.23a20,20,0,0,1,1.39-6s69.6-97.81,154.34-97.69Z" transform="translate(-1179.61 -459.98)"/><path id="path10131" class="cls-3" d="M1688.77,770.71c30,41.42-70.64,4-155.57,41.55-17.69,10.84-32.52,20.54-43.6,29-4.34.34-9,.63-14.23.85,35.67-39.32,68.08-55.37,97-61.12,31.56-6.28,59-.42,81.9.46,33.31,1.27,35.69-6.42,34.5-10.74Z" transform="translate(-1179.61 -459.98)"/><path id="path10133" class="cls-4" d="M1610.43,751.74c35.66.32,59.21,15.55,59.21,15.55a2.55,2.55,0,0,1-2.76,4.29l0,0s-25.34-16.47-63.47-14.62c-36.11,1.75-83.7,20-132,85.29-2.12.07-4.16.16-6.42.2,36.87-51,74-75.09,106.22-84.91a131.65,131.65,0,0,1,32-5.64c2.48-.12,4.91-.16,7.29-.14Z" transform="translate(-1179.61 -459.98)"/><path id="path10135" class="cls-4" d="M1316.17,701.12a2.53,2.53,0,0,0-.32,5,52.18,52.18,0,0,1,11.3,3.83,102,102,0,0,1,27.44,18.46c20.16,18.55,43.31,52.25,56.34,113.18,1.72.12,3.43.25,5.24.35-13.15-62.64-37-97.8-58.15-117.25a107.13,107.13,0,0,0-28.8-19.39,57.15,57.15,0,0,0-12.56-4.17,2.63,2.63,0,0,0-.48-.06Z" transform="translate(-1179.61 -459.98)"/><path id="path10137" class="cls-3" d="M1253.23,689.15C1219.31,710.17,1320,726.41,1375,797c9.78,16.78,17.72,31.4,23.43,43.63,3.23.31,6.63.58,10.28.85-13.46-52.31-106.16-117-135.75-132.82-18-9.68-20.77-15.91-19.7-19.51Z" transform="translate(-1179.61 -459.98)"/><path id="path10139" class="cls-2" d="M1264.88,726.77c-23.68-1.56-49.06,4.45-75.23,22.42-43.55,45.72,63.62,11.56,148.63,56.17,16.92,12,31.07,22.69,41.56,31.87,9.15,1.33,20.31,2.58,33.44,3.49a19.82,19.82,0,0,0-1-6.1s-62.86-102.27-147.42-107.85Z" transform="translate(-1179.61 -459.98)"/><path id="path10141" class="cls-3" d="M1185.85,753.44c-32.71,39.31,70.21,8.77,152.43,51.92,16.92,12,31.06,22.68,41.55,31.87,4.3.63,9,1.24,14.14,1.8-32.94-41.63-64.2-59.82-92.67-67.5-31.07-8.39-58.8-4.39-81.74-5.06-33.32-1-35.18-8.8-33.71-13Z" transform="translate(-1179.61 -459.98)"/><path id="path10143" class="cls-4" d="M1265.29,739.78c-35.6-2.08-60.11,11.54-60.11,11.54a2.55,2.55,0,0,0,2.46,4.46h0s26.4-14.73,64.32-10.32c35.91,4.18,82.17,25.54,126,94,2.11.2,4.15.43,6.39.63-33.36-53.35-68.73-79.9-100.26-91.86a131.24,131.24,0,0,0-31.52-7.79q-3.7-.42-7.27-.63Z" transform="translate(-1179.61 -459.98)"/><path id="path10145" class="cls-4" d="M1563.52,709.44a2.54,2.54,0,0,1,0,5.06,51.76,51.76,0,0,0-11.53,3.06,102.16,102.16,0,0,0-28.62,16.57c-21.36,17.15-46.72,49.22-63.82,109.13-1.73,0-3.44,0-5.25,0,17.33-61.6,43.5-95.07,65.9-113.06a107.5,107.5,0,0,1,30-17.42,57.29,57.29,0,0,1,12.81-3.31,2.64,2.64,0,0,1,.49,0Z" transform="translate(-1179.61 -459.98)"/><path id="path10147" class="cls-2" d="M1438.92,618.09a34.55,34.55,0,0,1,13.63,3c46.06,60.77,20.14,175.6,6.07,224.45-11.51-.16-26.15-1-44.17-2.86-17.09-62.59-28.26-223.93,24.47-224.55Z" transform="translate(-1179.61 -459.98)"/><path id="path10149" class="cls-3" d="M1400.65,740.44c4,23.95,13.46,22.74,23.81,33.81,14,15,6.7,28.86,22.18,36.24s27.43-36.18,27.43-36.18l.18.1a556.13,556.13,0,0,1-15.62,71.09c-11.49-.16-26.1-1-44.09-2.85-6.64-24.26-12.42-63.19-13.89-102.21Z" transform="translate(-1179.61 -459.98)"/><path id="path10151" class="cls-4" d="M1440,654a3.31,3.31,0,0,1,3.22,3.33l.41,187.64c-2.13-.11-4.3-.23-6.59-.38l-.41-187.22a3.3,3.3,0,0,1,3.22-3.37Z" transform="translate(-1179.61 -459.98)"/><g id="g10155"><path id="path10153" class="cls-3" d="M1539.19,827.36l-39.81,183.78H1368.49l-43.71-183.78h214.41Z" transform="translate(-1179.61 -459.98)"/></g><path id="path10157" class="cls-5" d="M1479.58,827.36,1450,1011.14h49.4l40.24-183.78Z" transform="translate(-1179.61 -459.98)"/></g><path id="path7251" class="cls-6" d="M2131.4,652.17s137-3,141,131c3,110.19,27.8,516.2-98.27,540-37.73,9.93-75.45-40.7-154.86-21.84-82.4,15.89-150.89-23.82-151.89-121.1,3-64.53,140-264.06,155.86-311.71s108.2-216.41,108.2-216.41Z" transform="translate(-1179.61 -459.98)"/><path id="path13119" class="cls-7" d="M2147.9,662.79s37.55,3.51,27.72,69.49S2158.2,882,2156.71,924.17s4,125.58-53.11,138c-51.62,10.42-128-2-143.44,9.92s-66.72,150.5-63.21,156.12,23.86,73,120.73,57.56c77.22-14.74,114.42,20.36,136.18,21.76,19,1.23,63-1.84,91.71-70.65-15.43,47.11-38.19,80.07-71.48,86.36-37.73,9.93-75.45-40.7-154.86-21.84-82.4,15.89-150.89-23.82-151.89-121.1,3-64.53,140-264.06,155.86-311.71,13.17-39.51,76.1-157.07,98.17-197.87a158.25,158.25,0,0,1,26.53-7.92Z" transform="translate(-1179.61 -459.98)"/><path id="path13117" class="cls-8" d="M2155.23,658.13c2.48.5,76.93,6.45,102.24,75.44,2,17.87-19.36,14.4-31.76,1s-41.2-64.53-78.92-66.51c-21.84-4.47-9.93-14.4,8.43-9.93Z" transform="translate(-1179.61 -459.98)"/><path id="path7249" class="cls-7" d="M2123.68,657.52s111.61,38.61,103.88,139c-13.33,80-28.78,263.23-60.36,272.35s-195.84,48.43-226-20.36C1911,979,2108,652,2123.68,657.52Z" transform="translate(-1179.61 -459.98)"/><path id="path7239" class="cls-9" d="M1751.36,1210.77c13.12.26,28.71,3.29,40.07,6.12-.17.37-.38.77-.52,1.12,7.19,21.34,43.43,18.12,43.43,18.12l1-1.75c1.3,9.19,2.17,30.45-15.92,38.72-12.66,5.21-34.75-15.63-47.9-18.36s-45.87-11.44-45.17-32.85c.77-8.76,11.54-11.4,25-11.12Z" transform="translate(-1179.61 -459.98)"/><path id="path13298" class="cls-10" d="M1787.45,1217.58s-32.56-7.28-47-4.3c-13,3,5.7,6.5,23.78,9.13S1799.82,1230.39,1787.45,1217.58Z" transform="translate(-1179.61 -459.98)"/><path id="path13288" class="cls-11" d="M1726.48,1223.43c80.85,14.26,70,27.46,81.67,28.81s9.06-15.52,8.83-16.91a79.73,79.73,0,0,0,17.36.8l1-1.75c1.3,9.19,2.16,30.45-15.93,38.72-12.66,5.21-34.75-15.63-47.9-18.36-12.83-2.66-44.16-11-45.07-31.31Z" transform="translate(-1179.61 -459.98)"/><path id="path7241" class="cls-9" d="M1727.89,1113.48c11.94.24,25.89,2.87,36.62,5.46l-3.63,7.49s18.61,18.12,39.95,10.92a61.75,61.75,0,0,0,4.6-6.23c.44.15,2.41.76,2.41.76s7.87,31.24-14.54,41.49c-12.16,5-33.39-15-46-17.64s-44.06-11-43.39-31.57c.74-8.41,11.09-10.94,24-10.68Z" transform="translate(-1179.61 -459.98)"/><path id="path13300" class="cls-10" d="M1727.89,1113.48c11.94.24,25.89,2.87,36.62,5.46l-2.88,5.94c-14.09-1.64-38.4-6-40.58-9.86-.4-.7.23-1.16,1.55-1.45,1.7-.09,3.46-.13,5.29-.09Z" transform="translate(-1179.61 -459.98)"/><path id="path13290" class="cls-11" d="M1704,1125.74c66.33,7.89,69.44,24.45,76,27.5,7,3.22,10.42-13.9,10.42-13.9l.34-.35a32.43,32.43,0,0,0,10.09-1.64,61.6,61.6,0,0,0,4.59-6.23c.44.15,2.41.76,2.41.76s7.87,31.24-14.54,41.49c-12.16,5-33.39-15-46-17.65-12.3-2.55-42.32-10.58-43.29-30Z" transform="translate(-1179.61 -459.98)"/><path id="path7225" class="cls-12" d="M2032,907s8.66,80.78-41.69,91.78c-46.41,9.44-96.23-22.13-110,25.82-12.59,39.3-59.69,101.39-65.25,100.83S1760,1096,1760,1096l79.55-145.63S1875.23,889.76,2032,907Z" transform="translate(-1179.61 -459.98)"/><path id="path13121" class="cls-13" d="M2140,664.63a204.54,204.54,0,0,1,32.78,20.19c4.14,10.3,6.18,25.36,2.89,47.46-9.83,66-17.42,149.7-18.91,191.89s4,125.58-53.11,138c-50.6,10.21-125-1.5-142.42,9.26-8.8-5.78-15.76-13.24-20-22.91-25.25-58.12,108.34-296.23,162-369.43A167.14,167.14,0,0,1,2140,664.63Z" transform="translate(-1179.61 -459.98)"/><path id="path13153" class="cls-14" d="M1940.14,998.74c-5.75-.58-11.84-1.29-17.11-1.48a77.35,77.35,0,0,0-14.14.6,37,37,0,0,0-12.15,3.81,28.94,28.94,0,0,0-9.69,8.45,44.9,44.9,0,0,0-6.78,14.49c-3.14,9.83-8.45,21.07-14.72,32.41s-13.51,22.77-20.53,33-13.82,19.12-19.21,25.48-9.39,10.14-10.78,10c-.84-.09-6.46-3.36-9-4.56,3.41-7.7,63.68-142.54,110.47-157,28-8.66,29.87,12,23.66,34.86Z" transform="translate(-1179.61 -459.98)"/><path id="path7171" class="cls-15" d="M2161.23,696.48s-15.09-110.91-119.68-72.65c-35.1,12.64-75.11,136.88-79.32,303.24C2005.05,939,2131.4,938.3,2131.4,938.3S2172.11,711.57,2161.23,696.48Z" transform="translate(-1179.61 -459.98)"/><path id="path13060" class="cls-16" d="M2136.36,682.45s12.8,29.11,24.94,56.54c-6.65,69.73-29.9,199.31-29.9,199.31s-126.35.71-169.17-11.23c.88-34.61,3.35-67.28,7-97.58h0c.4-3.36.84-6.61,1.27-9.91v-.1c2.63-20.3,5.75-39.51,9.33-57.27.12.33.25.6.36,1,8.08,26.32,35.8,30.18,72,25.62,26.63-3.36,31.34,7.16,32,13a18.77,18.77,0,0,0,3.17-.66c10.92-113.17,49.14-118.63,49.14-118.63Z" transform="translate(-1179.61 -459.98)"/><path id="path7223" class="cls-12" d="M2131.4,938.3s10.92,102-52.61,115.91c-58.57,11.92-139-24.81-156.35,35.74-15.88,49.64-57.78,124.91-64.8,124.21s-69.49-37.2-69.49-37.2l100.38-183.91s45.08-76.53,242.87-54.75Z" transform="translate(-1179.61 -459.98)"/><path id="path13143" class="cls-17" d="M2055.13,934.54c-21.57,11.3-94.28,37.54-125.19,50.79-31.5,13.5-117.43,170.75-131.82,197.4-6-3.46-10-5.77-10-5.77l100.37-183.91S1921.64,937.06,2055.13,934.54Z" transform="translate(-1179.61 -459.98)"/><path id="path13055" class="cls-18" d="M2158.08,767.74c-4,31.82-9.61,68.55-14.74,100.13-8.05,13.82-17.93,26.57-26.58,25.28-13.07-1.94-104.23-12.06-151.71-21.13q1.17-15.25,2.73-29.86a122.4,122.4,0,0,1,19.18,4.58c47.65,14.89,124.59,30.77,132.53,24.82,6.48-4.86,29.85-76.51,38.59-103.82Z" transform="translate(-1179.61 -459.98)"/><path id="path13136" class="cls-14" d="M2083.36,934.77c14.93.53,30.87,1.64,48,3.53,0,0,10.92,102-52.61,115.91-58.57,11.92-139-24.81-156.35,35.74-15.88,49.64-57.78,124.91-64.8,124.21-3-.3-16-7.1-30-14.77a880,880,0,0,0,48.92-96.14c37.9-82.13,111.6-79.31,160-73.7,39,4.52,45.59-65.26,46.72-94.78Z" transform="translate(-1179.61 -459.98)"/><path id="path7186" class="cls-19" d="M1831.61,709.75,2131.4,938.3H1684.69L1525.86,710.74Z" transform="translate(-1179.61 -459.98)"/><path id="path13220" class="cls-20" d="M1781.54,897.42c11.26,1.14,37.11-11,38.37,8.42-1.22,8.22-10.11,6.32-10.16,6.31-2.29,3.11-6.63,5.71-13.88,6.07-35.86,4.21-38.09-20.85-36.11-26.56.75-2.14,15.12,5.55,21.78,5.76Z" transform="translate(-1179.61 -459.98)"/><path id="path13218" class="cls-20" d="M1953.71,862.13l12.9,14.39H1750.7l-30.27-90.33Z" transform="translate(-1179.61 -459.98)"/><path id="path7184" class="cls-20" d="M1810.76,854.19H1954.7l-96.29-74-137.49,1.49Z" transform="translate(-1179.61 -459.98)"/><path id="path7188" class="cls-21" d="M1779.73,786.68h63.87l63.88,55.8h-99.33Z" transform="translate(-1179.61 -459.98)"/><path id="path7175" class="cls-22" d="M1895.43,754.23c11.73.73,24,10,25.26,11l1.9,18.57c-2.59-1-7.64-2-15.46.72-11.93,4.22-37.91-5.26-42.82-6s6.32-9.83,19.65-21.06a16,16,0,0,1,11.47-3.32Z" transform="translate(-1179.61 -459.98)"/><path id="path7173" class="cls-15" d="M1982,755.41l-61.8,5.22,4.22,40.94h48.65S1980.76,756.41,1982,755.41Z" transform="translate(-1179.61 -459.98)"/><path id="path13073" class="cls-23" d="M1981.57,756.72c-.43,1.43-1.06,4.29-1.83,8.15-18.11,1.45-58.06,4.43-57.67,2.21.49-2.86-4.1-4.59,2.73-5.09C1931.13,761.53,1973.58,757.18,1981.57,756.72Z" transform="translate(-1179.61 -459.98)"/><path id="path13068" class="cls-16" d="M1975.94,785.28c-1.33,7.5-2.87,16.29-2.87,16.29h-48.65l-1.55-15.07c28,5.92,46.27,1.2,53.07-1.22Z" transform="translate(-1179.61 -459.98)"/><path id="path7155" class="cls-22" d="M2005.05,534.68s30.88,106,113.71,40.72c14.74-19-35.09-.71-20.35-33.7C2104,519.24,2037.34,574,2005.05,534.68Z" transform="translate(-1179.61 -459.98)"/><path id="path7157" class="cls-22" d="M2102.36,586.49l.25.17s11.42,47.65,4,51.12-32.26,21.34-51.12-11.42a53.46,53.46,0,0,1-1-30.27s.3-.51.86-1.33c12.83,3.71,28.42,2.29,47-8.27Z" transform="translate(-1179.61 -459.98)"/><path id="path7162" class="cls-24" d="M2061.08,460c9.12.12,19.73,1.82,32.06,5.55,29.48,2.11,86.34,42.47,29.13,104.59-.29.21-.61.38-.9.57,2.67-11.07-36.21.65-23-29C2104,519.48,2038.67,573,2006,536c0-.11-1-1.25-1-1.36s-7.83-75.57,56-74.69Z" transform="translate(-1179.61 -459.98)"/><path id="path7167" class="cls-15" d="M2134.38,682.45s31.76-7.44,27.3,40.2S2149.27,882,2107.08,884c-32.26,1.49-142.45-28.79-141-43.18s7-33.76,7-33.76,112.67,1.49,123.59,3C2098.64,807.53,2094.17,685.93,2134.38,682.45Z" transform="translate(-1179.61 -459.98)"/><path id="path13088" class="cls-25" d="M1916.27,762.21c2.34,1.5,4,2.74,4.42,3.07l1.9,18.57c-2.59-1-7.64-2-15.46.72-11.93,4.21-37.91-5.26-42.82-6-1.32-.19-1.4-1-.66-2.31,3.32.85,6.66,2.07,15.11-1.4,11.17-4.59,33.88.12,37.1-.13,2.52-.19,1.15-8.74.41-12.56Z" transform="translate(-1179.61 -459.98)"/><path id="path7169" class="cls-22" d="M1973,807.31l-38.43,1.46-8.94-30.52s-66.26-1-67.5,6.45,23.83,10.67,25.32,16.87,1.48,37.23,22.83,37.48,60.3-1.94,60.3-1.94Z" transform="translate(-1179.61 -459.98)"/><path id="path7180" class="cls-26" d="M1800.34,701.81l-100.27-62,20.85,142,89.84,72.47Z" transform="translate(-1179.61 -459.98)"/><path id="path7190" class="cls-21" d="M1954.7,854.19v8.93H1810.81l0-8.93Z" transform="translate(-1179.61 -459.98)"/><path id="path13096" class="cls-24" d="M1700.07,639.77l.16.09L1810.62,852.1l.14,2.08-89.84-72.46Z" transform="translate(-1179.61 -459.98)"/><path id="path7192" class="cls-27" d="M1810.76,854.19l-89.84-72.47v4.87l89.89,76.53Z" transform="translate(-1179.61 -459.98)"/><path id="path7201" class="cls-24" d="M1745.24,972.57v394.84h-42.68V972.57Z" transform="translate(-1179.61 -459.98)"/><path id="path7198" class="cls-24" d="M2088.71,972.57v394.84H2046V972.57Z" transform="translate(-1179.61 -459.98)"/><path id="path13160" class="cls-17" d="M1837.8,957.89c8.59.14,14.27,3.13,9.67,7.08-7.11,6.1-75.34,126.6-80.23,135.23-4.18-2.41-7.28-4.22-7.28-4.22l75.36-138c.83,0,1.7-.14,2.48-.13Z" transform="translate(-1179.61 -459.98)"/><path id="path7194" class="cls-28" d="M2131.4,938.3v34.27H1683.85l.84-34.27Z" transform="translate(-1179.61 -459.98)"/><path id="path7196" class="cls-21" d="M1684.69,938.3,1525.86,710.74V739.3l158,233.27Z" transform="translate(-1179.61 -459.98)"/><path id="path7203" class="cls-24" d="M1525.86,739.3l36.48,53.87v295.52h-36.48Z" transform="translate(-1179.61 -459.98)"/><path id="path7227" class="cls-22" d="M1808.87,1188.83c13.8,7.85,30.28,17,40.57,22l-15.1,25.33s-36.24,3.22-43.43-18.12c3.35-8,12.31-21.2,18-29.18Z" transform="translate(-1179.61 -459.98)"/><path id="path13131" class="cls-25" d="M1808.87,1188.83c13.8,7.85,30.28,17,40.57,22l-15.1,25.33a80.19,80.19,0,0,1-17.29-.79c5.25-6.84,16.45-16.77,16.79-20.56.42-4.6-20.78-17.78-27.73-22,.94-1.35,1.93-2.8,2.76-4Z" transform="translate(-1179.61 -459.98)"/><path id="path7229" class="cls-22" d="M1772.24,1103c11.82,6.76,28.82,16.32,37.68,20.43a74,74,0,0,1-9.09,13.89c-21.34,7.2-39.95-10.92-39.95-10.92Z" transform="translate(-1179.61 -459.98)"/><path id="path13148" class="cls-25" d="M1772.24,1103c11.82,6.76,28.82,16.32,37.68,20.43a74,74,0,0,1-9.09,13.89A31.82,31.82,0,0,1,1791,1139c6.92-17.48-12-27.47-21-31.35Z" transform="translate(-1179.61 -459.98)"/><path id="path10161" class="cls-29" d="M1775.27,843.27c38,.74,41.69,15.38,41.69,15.38.47,1.18-.44,5.93-2.3,11.75,5.08-.45,10.73.48,11.39,6.83.53,11.4-11.23,21.93-17,19.83-3.79-1.38-6.13-.84-7.26-2.25-3.67,4.09-7.89,7-12.6,7.27-37.23,3-38.72-32.26-41-42.68-2.48-10.18,14.15-16.88,27-16.13Zm41.31,32.82a12.73,12.73,0,0,0-4.39.7c-2.41,8.72-5.74,11.24-5.74,13,8.42,5.64,14.54-4.78,14.42-8.88.06-3.66-2.11-4.68-4.29-4.79Z" transform="translate(-1179.61 -459.98)"/><path id="path10173" class="cls-12" d="M1812,859.86s-28.61,8.95-58.27-3C1754.81,853.72,1784.48,837.24,1812,859.86Z" transform="translate(-1179.61 -459.98)"/><path id="path13023" class="cls-25" d="M2102.36,586.49l.25.17s.6,2.71,1,4.69c-5.2,4.35-12.75,9-23.86,21.25a30.43,30.43,0,0,1-25.32,10.2,54.3,54.3,0,0,1,0-26.71s.3-.51.85-1.33c12.83,3.71,28.42,2.29,47-8.27Z" transform="translate(-1179.61 -459.98)"/><path id="path13030" class="cls-30" d="M2005.05,534.69a39.63,39.63,0,0,0,9.53,8.46c3,11.13,11.14,30.34,32.59,48.41C2017.34,576.78,2005.05,534.69,2005.05,534.69Z" transform="translate(-1179.61 -459.98)"/><path id="path13036" class="cls-31" d="M2119.46,475.72c.54,0,1.06.07,1.58.1,24.38,16,42.53,49.46,1.23,94.31-.29.2-.61.37-.91.57,2.68-11.07-36.2.65-23-29C2104,519.48,2038.67,573,2006,536c0-.1-1-1.24-1-1.34a99.76,99.76,0,0,1-.14-13.12c9.12,25.18,46.48,20.59,79.81,9.25,34.05-11.58,22.11,6,37.9,4.21,23.17-2.8-3.15-59.31-3.15-59.31Z" transform="translate(-1179.61 -459.98)"/><path id="path13041" class="cls-16" d="M2160.57,700.44c1.42,5.59,2,12.79,1.11,22.21-4.47,47.65-12.41,159.33-54.6,161.32-32.26,1.49-142.45-28.79-141-43.18.47-4.58,1.36-9.51,2.34-14.31,21.24,14.46,97.64,35.76,132.66,38.13,42.84,3.41,58.85-158,59.45-164.17Z" transform="translate(-1179.61 -459.98)"/><path id="path13046" class="cls-23" d="M2103.6,806.54s-3.79-110.76,28.5-115c15.09-.7-11.58,36.15-12.28,64.58S2107.05,815.16,2103.6,806.54Z" transform="translate(-1179.61 -459.98)"/><path id="path13048" class="cls-23" d="M2091.2,814s-113.17-4.22-113.67-1S2088.47,828.62,2091.2,814Z" transform="translate(-1179.61 -459.98)"/><path id="path13066" class="cls-23" d="M2145,671.35s-19-37.66-33.44-32.58c-11.79,5.71-6.37,6.14,2.35,10.67,13.29,10.16,36.67,27.62,31.09,21.91Z" transform="translate(-1179.61 -459.98)"/><path id="path13078" class="cls-25" d="M1858.93,783.57c5.85,4.24,27.2,9.23,34.33,14.34,8.07,5.79,3.17,12.46,8.78,23.69,5.21,10.42,59.26,4,67.27,3l-2.7,12.54s-39,2.18-60.3,1.94-21.35-31.27-22.83-37.48-26.56-9.43-25.32-16.87a2,2,0,0,1,.77-1.13Z" transform="translate(-1179.61 -459.98)"/><path id="path13084" class="cls-25" d="M1924.3,780s-18.37,7.82-17.12,12.78,13,19.73,18.24,18.37,7.07.5,5.7-4.1-5-26.67-6.82-27Z" transform="translate(-1179.61 -459.98)"/><path id="path13086" class="cls-30" d="M1922.13,779s-47.73.79-59.31,4.3c-3,1.31,11.23,2.19,17.55,1.49s35.44,1,41.76-5.79Z" transform="translate(-1179.61 -459.98)"/><path id="path13093" class="cls-30" d="M1911.77,761.43s-10.92-8.5-22.65-5.4c-3.35,1-21,15.7-19.54,16s9.61-.68,13.83-5.52,6.39-9.37,12.72-7.69S1917.16,766.21,1911.77,761.43Z" transform="translate(-1179.61 -459.98)"/><path id="path13101" class="cls-19" d="M1782.73,845.69c21.67,0,32.2,12.94,32.2,12.94l-2.89,1.2h0c-27.49-22.55-57.1-6.15-58.22-3a3.35,3.35,0,0,1-1.45-.19c2.42-5.9,15.89-10,25.94-10.8,1.54-.12,3-.18,4.48-.18Z" transform="translate(-1179.61 -459.98)"/><path id="path13107" class="cls-32" d="M1814.16,861.69c.74-.06,1.52.48,2.4,1.64-.19.9-.4,1.84-.68,2.91,0,0,0,0,0,0-.49,1.7-1.19,4-2.1,6.68,3.54-.54,10.58-.52,8.51,9-1,6.23-9,16.32-15.8,9.65,0-.33.23-1.06.36-1.63,8.22,5,14.15-5.08,14-9.11.06-3.66-2.11-4.68-4.3-4.79a12.71,12.71,0,0,0-4.38.7c-2.32,8.39-5.45,11-5.7,12.75a30.76,30.76,0,0,1-4.11,5.7,2.17,2.17,0,0,1-.61-.43c-3.67,4.09-7.9,7-12.6,7.27-11,.88-18.75-1.6-24.44-5.73,1.76.75,21.83,8.88,33.42-8.24,9.84-14.54,12.65-26.17,16-26.42Z" transform="translate(-1179.61 -459.98)"/><path id="path13182" class="cls-23" d="M2035.93,634.71s-46,52.65-47,123.89c1.41,14.74,8.08,26.68,16.5,10.88S2004,749.83,2017,724.21s61.07-66.69,19-89.5Z" transform="translate(-1179.61 -459.98)"/></g></svg>