<svg id="Layer_1" data-name="Layer 1" xmlns="http://www.w3.org/2000/svg" viewBox="0 0 1550.07 1131.53"><defs><style>.cls-1{fill:#88c4cb;}.cls-2{fill:#43d16c;}.cls-3{fill:#e77613;}.cls-4{fill:#fea334;}.cls-5{fill:#c4ced5;}.cls-6{fill:#c7d1d8;}.cls-7{fill:#c0dde1;}.cls-8{fill:#e7e0e0;}.cls-9{fill:#fea435;}.cls-10{fill:#56919c;}.cls-11{fill:#c7d1d9;}.cls-12{fill:#57919c;}.cls-13{fill:#a45729;}.cls-14{fill:#b28b68;}.cls-15{fill:#f2f2f2;}.cls-16{fill:#c8d1d8;}.cls-17{fill:#a5582a;}.cls-18{fill:#1d1c4a;}.cls-19{fill:#e4e4e4;}.cls-20{fill:#e5e5e5;}.cls-21{fill:#e3e3e3;}.cls-22{fill:#c8d2da;}.cls-23{fill:#1c1b49;}.cls-24{fill:#b28d69;}.cls-25{fill:#b1babf;}.cls-26{fill:#aeb9c4;}.cls-27{fill:#b2bcc7;}.cls-28{fill:#90cad1;}.cls-29{fill:#b1bbc7;}.cls-30{fill:#c4e1e4;}.cls-31{fill:#8dc9cd;}.cls-32{fill:#c7d0d7;}.cls-33{fill:#8fc7cd;}.cls-34{fill:#b6916e;}.cls-35{fill:#ced7dc;}.cls-36{fill:#d1dae1;}.cls-37{fill:#b0bac6;}.cls-38{fill:#cbd4db;}.cls-39{fill:#b7906d;}.cls-40{fill:#cad3d9;}.cls-41{fill:#cad4db;}.cls-42{fill:#b59271;}.cls-43{fill:#ccd4d9;}.cls-44{fill:#c9d4db;}.cls-45{fill:#d2dbe1;}.cls-46{fill:#cdd6dd;}.cls-47{fill:#cbd4dc;}.cls-48{fill:#f1f1f1;}.cls-49{fill:#f9f9f8;}.cls-50{fill:#f0f1f1;}.cls-51{fill:#c9dcda;}.cls-52{fill:#d4dde3;}.cls-53{fill:#c6d0d7;}.cls-54{fill:#d3dbe2;}.cls-55{fill:#e5eef6;}.cls-56{fill:#cfd8df;}.cls-57{fill:#5b3925;}.cls-58{fill:#e4e9ed;}.cls-59{fill:#d5dce2;}.cls-60{fill:#d5dee4;}.cls-61{fill:#d2dae1;}.cls-62{fill:#6197a1;}.cls-63{fill:#d9e1e7;}.cls-64{fill:#f2eded;}.cls-65{fill:#d8e1e7;}.cls-66{fill:#d0d9e1;}.cls-67{fill:#f5f7f8;}.cls-68{fill:#cdd5dc;}.cls-69{fill:#cbe0e3;}.cls-70{fill:#e0e7ed;}.cls-71{fill:#dbe1e6;}.cls-72{fill:#e5e9ed;}.cls-73{fill:#eee;}.cls-74{fill:#e2e7eb;}.cls-75{fill:#f5f5f5;}.cls-76{fill:#d0d8df;}.cls-77{fill:#d3dce2;}.cls-78{fill:#ccd6dc;}.cls-79{fill:#eef1f3;}.cls-80{fill:#edf0f2;}.cls-81{fill:#d1e9ec;}.cls-82{fill:#d2dce4;}.cls-83{fill:#dae1e5;}.cls-84{fill:#fefefe;}.cls-85{fill:#fdfdfe;}.cls-86{fill:#b0b9bf;}.cls-87{fill:#ebdbbe;}.cls-88{fill:#b18b67;}.cls-89{fill:#7bb1b7;}.cls-90{fill:#b58f6c;}.cls-91{fill:#f9faf9;}.cls-92{fill:#f5f8f8;}.cls-93{fill:#f9fbfc;}.cls-94{fill:#daedef;}.cls-95{fill:#649ba5;}.cls-96{fill:#7bb5bd;}.cls-97{fill:#abdce2;}.cls-98{fill:#ae8056;}.cls-99{fill:#c6d0d8;}.cls-100{fill:#191a47;}.cls-101{fill:#fcfefd;}.cls-102{fill:#57331f;}.cls-103{fill:#41cc6a;}.cls-104{fill:#58311f;}.cls-105{fill:#3cbc61;}.cls-106{fill:#2d8c49;}.cls-107{fill:#2c8c48;}.cls-108{fill:#dfa73b;}.cls-109{fill:#2a8344;}.cls-110{fill:#3ec465;}.cls-111{fill:#f2700d;}.cls-112{fill:#28aa4d;}.cls-113{fill:#c5d0d7;}.cls-114{fill:#9b7a5e;}.cls-115{fill:#f4eee2;}.cls-116{fill:#fefdfc;}.cls-117{fill:#3dbf62;}.cls-118{fill:#fcfaf9;}.cls-119{fill:#f8f8f8;}.cls-120{fill:#3ad36e;}.cls-121{fill:#3bd86c;}.cls-122{fill:#31d571;}.cls-123{fill:#62d884;}.cls-124{fill:#c4cfd5;}.cls-125{fill:#48d06a;}.cls-126{fill:#c0cfd2;}.cls-127{fill:#fdfefe;}.cls-128{fill:#e9ebec;}.cls-129{fill:#ebeced;}.cls-130{fill:#efeff0;}.cls-131{fill:#e8eaeb;}.cls-132{fill:#fdfdfd;}.cls-133{fill:#c3ced6;}.cls-134{fill:#c2cdd5;}.cls-135{fill:#fdfefd;}.cls-136{fill:#c7cfd6;}.cls-137{fill:#c4ced4;}.cls-138{fill:#e2f0f2;}.cls-139{fill:#e2eff1;}.cls-140{fill:#e3f0f2;}.cls-141{fill:#e0edf0;}.cls-142{fill:#e7f2f3;}.cls-143{fill:#d2f2f6;}.cls-144{fill:#d6dee5;}.cls-145{fill:#c5cfd7;}.cls-146{fill:#f6f8f8;}.cls-147{fill:#fbfafa;}.cls-148{fill:#dbe3e9;}.cls-149{fill:#5094a3;}.cls-150{fill:#bec8d0;}.cls-151{fill:#a35728;}.cls-152{fill:#a5511f;}.cls-153{fill:#c4cfd6;}.cls-154{fill:#c4cdd5;}.cls-155{fill:#fcfdfd;}.cls-156{fill:#b0bac5;}.cls-157{fill:#eeefef;}.cls-158{fill:#e8eaec;}.cls-159{fill:#07104c;}.cls-160{fill:#dadada;}.cls-161{fill:#f6f3f2;}.cls-162{fill:#c7d0d8;}.cls-163{fill:#28a94d;}.cls-164{fill:#fcfcfc;}.cls-165{fill:#fbfbfc;}.cls-166{fill:#c0cbd4;}.cls-167{fill:#4b250f;}.cls-168{fill:#c4cfd7;}.cls-169{fill:#98785d;}.cls-170{fill:#4c8a96;}.cls-171{fill:#bfcad4;}.cls-172{fill:#d0d8de;}.cls-173{fill:#bfc7cd;}.cls-174{fill:#c2ccd5;}.cls-175{fill:#bfcad2;}.cls-176{fill:#ad8561;}.cls-177{fill:#b28a66;}.cls-178{fill:#0d0b3c;}.cls-179{fill:#5b3825;}.cls-180{fill:#2dab51;}.cls-181{fill:#cbd1dd;}.cls-182{fill:#2dbe64;}.cls-183{fill:#c5cfd6;}.cls-184{fill:#c1ccd4;}.cls-185{fill:#5a3824;}.cls-186{fill:#6e738d;}.cls-187{fill:#cfdade;}.cls-188{fill:#c9d2da;}.cls-189{fill:#bec9d2;}.cls-190{fill:#d0d7dd;}.cls-191{fill:#f8f9fa;}.cls-192{fill:#f9f9fa;}.cls-193{fill:#bfcad3;}.cls-194{fill:#cad3da;}.cls-195{fill:#becad3;}.cls-196{fill:#aeb8c3;}.cls-197{fill:#a8b3c0;}.cls-198{fill:#c9d2d9;}.cls-199{fill:#9a785c;}.cls-200{fill:#e7e9eb;}</style></defs><path class="cls-1" d="M1863.43,1374.16c-9.31-9.61-5.2-21.66-3.67-31.85,3.26-21.68,2.25-43.38,3.53-65,4.51-10.91.88-21.07-2.94-31.2,1.13-32.07.64-32.55-33-29-7,.74-14,2.45-19.91-3.23l-67,4.5c-7.89,4.65-17.57-1.71-25.29,4.08h.1c-34.66,11.36-66,7.14-92.71-19.43-4.71-9.15-10.54-9.63-17.41-2.13-14.18,3.4-28.54,1.67-42.82,1.82-9.76-1.05-18.83,2.19-28,4.58-18.82-1.94-26.11-14.37-28.51-31.26,11-47.54,25.45-93.91,47.49-137.67,2.52-5,4.89-10,9.12-13.81a18.27,18.27,0,0,1,5-3c7.61.63,3.84-3.31,2.33-6.41a13.31,13.31,0,0,1,.19-5.52c5.16-12,13.7-22,20.25-33.19,9.49-11.46,17.89-23.83,28.44-34.43,2.32-3.08,4.34-6.36,6.59-9.49,10.84-10.31,18.23-25.4,36.08-26a295.11,295.11,0,0,1,30.73,6.14c7.5,1.54,14.81,3.5,20.34,9.32,3.06,4.82,3.25,10.06,2.31,15.47-2.1,6.79-2.69,13.6,0,20.44,1.62,7,2.06,14.25,4.45,21.1,6.76,42.36,19.35,83.2,32.37,123.88-1.47,5.36-.37,10.43,2.09,15.28,3.08,6.92,8.6,3,13.29,2.93,16.55-.15,32.1,6.24,48.49,7,29,5.74,58.12,10.43,86.9,16.94,28.35,6.4,38.14,17.89,38.39,46.89.52,57.29-12.67,112.92-21.82,169-1.62,9.93-7.65,16.36-17.88,18.35C1888.11,1379.8,1874.91,1383.28,1863.43,1374.16Z" transform="translate(-954.97 -315)"/><path class="cls-2" d="M2310.85,905.91c10.75,24.81,23,49.13,31.53,74.69,3.57,10.76,16,11.14,17.59,21.48-1,11.16,5.19,23.92-7.21,32.59-7.46,2.84-14.81,6-22.59,8-19.88-3.11-20.4-21.57-27.65-34.7-15.34-33.77-32.7-66.26-60.39-96-4.08,25.09-10.89,47.11,2.27,69,4.48,7.47,3.63,16.27,4.31,24.62,5,22,18.43,40.07,27.57,60.14,15,33,34.47,63.86,46.58,98.25,3.79,10.74,5.62,21.43,3.64,32.68,2.13,11-1.23,12.79-12.05,9.53-21.91-6.62-44.47-10.45-67.6-7.45-24.74,9.31-50.12,12.12-76.24,7.65-20.82,1-41.61,3.68-62.47.88-16.39-9.27-14.17-26-14.66-40.46-1.32-38.9-2.14-77.91,4.23-116.56a44.18,44.18,0,0,1,1.23-7.12c2.86-7.51,3.41-15.56,5-23.36,3-8.39,2.27-17.4,4.25-26,9.05-31.56,10.8-65.06,25.15-95.2,14.71,2.81,18.46-9.57,25.11-18.06a123.43,123.43,0,0,0,12.64-19.21c7.54-10,12.69-19.73,1.63-31-4.71-4.8-1.85-10,1.56-14.9,3.77-5.46,10.67-9.43,9.33-17.46-.09-1.1-.19-2.35-.31-3.61-1,.35-.75,1.2-.45,2.77.61,3.18-.26,6.24-1.7,9.16-7,5.61-8.59,18.48-21.56,16.21-7.73-5.83-6.19-14.54-7.1-22.5,0-8.33-.3-16.66,1-24.94,1.62-8,6.63-12.34,14.65-13.36,24.24,1.78,40.8,15.67,54.2,34.52A600.15,600.15,0,0,1,2284.53,864C2296.43,876,2310.37,886.74,2310.85,905.91Z" transform="translate(-954.97 -315)"/><path class="cls-3" d="M1509.75,1176c2.87,14,10.15,24.59,23.94,29.94.23,21.13,9.13,39.86,16.53,59,11.36,30.73,22.85,61.4,33.37,92.42,3.07,9,7.58,19-4.73,25.56-9.25,3.81-18.61,7.32-28.64,8.64-12.87.83-22.59-3-25.28-17.15-51.71-67.75-100-137.82-141.56-212.31-3.72-6.66-6.84-13.65-10.25-20.48-6-6.62-9-14-6.29-23,11.38-37.5,18.21-76.14,28.66-113.88,1.69-6.09,4.22-11.89,9.5-16,7.88-4.4,15.45-3.38,22.81,1.31A38.88,38.88,0,0,1,1440,1005.2a146,146,0,0,0,9,19.63c16.7,38.53,35.31,76.2,51.18,115.09C1505,1151.56,1510.65,1162.92,1509.75,1176Z" transform="translate(-954.97 -315)"/><path class="cls-4" d="M1406.75,991.2c-16.86,44.21-21.57,91.65-36.23,136.48-1.29,4,1.64,9.29,2.62,14-7.21-4.11-7.53,1.3-9.26,6.12-5.89,16.4-12.29,32.63-18.41,49-11.9,31.69-36.34,45.78-68.51,50.73-32.71,5-65.55,3.59-98.36,4.34-13.44,9-27,1.25-40.59.43a22.27,22.27,0,0,1-6.51-2.61c-9.18-8.92-12.31-19.45-8.35-31.83.28-1.43.55-2.85.82-4.28,16.79-17.53,41.11-18.66,61.54-28.26a57.69,57.69,0,0,1,5.83-2.07c5.49-1.35,10.36-4.53,15.76-5.88,32.12-8.08,49.1-27.85,48.44-61.58,4.64-18.5,3.9-38.1,11.55-56a29.32,29.32,0,0,1,5.42-7c9.15-5,2-15.88,7.8-22.14a19.68,19.68,0,0,1,5.5-2.65c24.13-2.74,48.34-.47,72.48-1.43,7.19-.28,16.64,1.7,14.67-11.06a67.48,67.48,0,0,1-1-10.32c.19-6.34.82-12.53,6-17.09C1388.15,983.65,1398.06,981.94,1406.75,991.2Z" transform="translate(-954.97 -315)"/><path class="cls-2" d="M1377.88,990.7l-.57,16.3c-3.4,3.65-1.65,9.68-6,12.94-21.61,9.25-43.66,6.47-65.76,2.43-14-12-15.75-28.61-16.87-45.35-.69-10.26,1-20.75-3.68-32.72-.17-.65-2.94,2.42-.44,1.14.48-.25,1,.3,1.19,1.7,4.18,29,3.44,57.77-4.88,86.08l0-.81c-6.58,4.79,2.6,15.57-7.28,19.13-20.55,5.11-41,6.43-61.39-1-7.18-8.94-2.75-17.8.2-26.67,10-63.86,26.78-125.5,59.67-181.87,4.14-16.32,11.13-30.88,25.41-40.91,14.37-9.66,21.12-27.5,37.58-34.92,7.08-4.87,13.08-2.58,18.63,2.78,6.3,8.43,9,18.31,11.4,28.33,2,12.22-.7,24.87,3.57,36.89a75.5,75.5,0,0,1,1.7,17.35c.14,11.82-1,23.74,3.09,35.22,2,28.66,5.15,57.23,7.89,85.82C1382,979,1381.83,985.2,1377.88,990.7Z" transform="translate(-954.97 -315)"/><path class="cls-5" d="M1618.36,509l499.55.13c36.66,0,36.67,0,36.41,37.76,0,2.81-.14,5.62-.22,8.42a28.53,28.53,0,0,1-6.72,4.45,52.61,52.61,0,0,1-7.94,1.86c-180.33,1.57-360.68.3-541,.7-6.31,0-12.62-.09-18.93-.53-11.68-.84-20.15-5.59-22.64-17.89-2.23-5.92-8.07-10.72-6-18.05,5.14-4.85-1.86-7-2.49-10.71,3.07-19.83,21.15-9,30.83-15.26.37-.65.89-1.14,1.28-1.72,4.67-6.87.22-21,9.1-21.66,10.75-.83,7.06,12.82,10.13,19.91C1603.3,504.82,1613.23,503.25,1618.36,509Z" transform="translate(-954.97 -315)"/><path class="cls-5" d="M1622.66,1196.47c25,29.67,59.43,25.63,92.65,25.9l12.45,155.89c-1.53,8.82.85,17.64,0,26.45.18,5.54-.87,11.42,4.07,15.76,2.54,15.51-2.32,23.07-19.71,21.44-15.72-1.48-31.67-.49-47.52-.58-6-7-13.94-10.31-22.63-12.83-7.49-2.16-16.75-3.13-17-14.3,1.93-40.34-8.14-79.57-10.87-119.47-2-29.38-8.89-58.29-8.71-87.88C1607.71,1197.76,1616,1198.46,1622.66,1196.47Z" transform="translate(-954.97 -315)"/><path class="cls-6" d="M1618.36,509c-25.29,5.69-28.11-10.21-26-32.29-7.93,12.05,1.32,24.39-8.73,32.21-8.45-9.7-2.16-23.51-9.48-33.46-4.27-3.48-9.32-2.61-14.12-2.61q-84.72,0-169.45,0c-4.72,0-9.89-1.4-13.48,3.25-4.11,28.08-2.7,56.12-.76,84.13a20.7,20.7,0,0,0,2.6,5.62c58.55,3.25,117.46-3.05,178.49,3.79-8.49,14.87-18.41,12.73-27,12.8-43.39.35-86.79.12-130.19.19-6.94,0-14-1.29-20.68,1.52a19.07,19.07,0,0,0-3.08,5.89c-4.87,14.56,4.23,32.27-10.12,44.66-25.68,4.62-29.09,2.1-29.11-22q-.08-82.62,0-165.23c0-6.17-1.46-12.59,1.85-18.47,4.8-10.56,13.6-12.58,24.29-12.55,76.57.23,153.14.36,229.71,0,18-.09,25.5,7.4,25,25.27C1617.59,464.11,1618.24,486.58,1618.36,509Z" transform="translate(-954.97 -315)"/><path class="cls-3" d="M2108.29,1020.37c-.52,7.37.2,15-4,21.66-3.43-1.73-1.91-5.42-3.19-8,1,3.67-.83,8.06,2.79,11.07-3.78,48.85-9.31,97.68-1,146.61.93,5.51.91,11.26,5.25,15.59l-69.45,194.84c-.79.81-1.57,1.63-2.36,2.45-1.12.19-2.24.37-3.36.58-11-1.37-23.17,2.65-32.73-6.4-5.28-10.44-1.08-20.73,1-30.82,16.83-81.68,34.88-163.11,51.41-244.85,3.67-11.71,4.77-24,7.46-35.88,1.82-8.45,4-16.81,5.85-25.27,4.3-16.4,6.33-33.3,10.63-49.7A53.45,53.45,0,0,1,2079,1003c1.92-5,3.58-10.16,8-13.75,5.92-2.89,10.57-.32,14.95,3.47C2108.46,1001,2110.2,1010.25,2108.29,1020.37Z" transform="translate(-954.97 -315)"/><path class="cls-7" d="M1280.2,673.65c-59.35,16.59-135-20.07-155.68-75.4-14.27-38.27,1.15-60.37,42-59.22,11.1.31,22.13,2.8,33.18,4.29,2.19,2.9,5.19,4,8.71,3.88,45.86,17.8,89,38.62,101.24,92.93,1.09,9.79-.5,16.41-12.6,10.71-3.64-3.3-3.52-10.94-11.18-9.62-5.31-4.43-10-9.55-15.51-13.49-2.91-6.62-3.56,4.35-6.13.94-6.09-1.12-10.68-4.91-19.37-11.75,8.28,7.64,13.1,11.15,19,12.89a33.2,33.2,0,0,1,13.18,4c3.82,4.1,7.44,8.49,13.38,9.71a17.46,17.46,0,0,1,5.64,13.18C1293.87,665.22,1289.1,671.36,1280.2,673.65Z" transform="translate(-954.97 -315)"/><path class="cls-5" d="M1162.26,1276.85c12.65,0,25.44,1.26,37.91-.23,20.45-2.45,29,4.84,24.78,25.42-.59,4.69-6-5.7-4.76,1.21,1.67,9.6-.79,19.13.81,28.6-3.43,26.45-13.68,47.66-42.2,54.84-4.7-.14-9.25.2-12.78,3.9-52.23,1.45-67.83-8.31-80.28-50.23,0-13.72-1.26-27.5,2-41.07,6-24.38,10-27.62,35.54-28,4.83-.08,9.68-.1,14.51-.08,2.45-.07,4.9,0,7.35.08C1151.49,1271.26,1157.31,1272.71,1162.26,1276.85Z" transform="translate(-954.97 -315)"/><path class="cls-8" d="M1280.2,673.65l12.63-16.81c3-2.05,1.09-6.55,4.3-8.47,9.38,5.13,9.36-3.92,12.47-8.24,25,1.24,26.34-13.79,25.89-33.68-1.19-51.83-.51-103.69-.28-155.54,0-7.38-2.73-15.58,3.93-21.9q.09,86.78.19,173.54c0,29,0,29,29.37,29,17.6-3.8,27.76,8.4,39.11,18.09a32.92,32.92,0,0,1,3.33,5.08c2.67,5.42,5.58,10.74,7.63,16.45.67,1.92,1.21,3.86,1.74,5.79,3.07,8.8,10.65,7.73,17.53,7.91,11.89.3,23.85-.83,35.63.76,5.91.79,15.18-.46,12.49,10.93-14.42,7.48-29.94,2.77-44.91,4-8.87.75-18.07-1.31-26.43,3.27a12.56,12.56,0,0,1-6.22,1.14c-18.77-12.77-54.69,1.67-60.48,24-2.66,10.31-1.07,22.74-12.91,29.06l-12.91,4.14c-19.2-9.1-40.28-16.34-42.26-42.52l.08-8c.09-8.44.12-16.88,0-25.32Q1280.13,680,1280.2,673.65Z" transform="translate(-954.97 -315)"/><path class="cls-9" d="M2170.61,1206.43c25.24-4.25,50.49-8.49,76.25-7.65l125,101.62c-.47,16.47-11.67,24.21-24.78,30.4q-76.59-51.72-153.15-103.51C2185.26,1221.42,2176.47,1215.49,2170.61,1206.43Z" transform="translate(-954.97 -315)"/><path class="cls-10" d="M1807.46,1213.8c12.28-1.41,24.69-2.16,36.83-4.35,21.1-3.82,25.27,7.1,22.57,24.51-.73,4.72-2.35,9.29-3.56,13.93,1.55,4.2-1.53,6.22-4,8.51-15.85,29.52-32.25,58.76-47.23,88.72-4.89,9.78-10.68,11.11-19.58,8.44-11.75-.25-23.08-1.51-30.41-12.5-10.47-7-1.39-13.86,1-19.73C1777.39,1285.32,1792.55,1249.61,1807.46,1213.8Z" transform="translate(-954.97 -315)"/><path class="cls-11" d="M1188,1189l-64,24.57-34.08-58.77c-2.69-7.42-9.62-11.29-14.33-17-4.31-5.25-4.8-9.64,2-13l33.65,25.77c2.24,2.3,3.45,6.66,7.9,4.82,2.1-.86,2.15-3.06.8-5q-10.68-35.77-21.37-71.55c5.66-20.35,11-1.46,16.45.15q6.63,14.63,13.27,29.26c4.36,1.91,6.51,5.5,7.67,9.83,4.92,6.14,12.59-3.5,17.38,3a32.92,32.92,0,0,1,.27,4.09c4.42,4.74-8.26,17.87,8.2,16.71q3.74-14.71,7.46-29.43c8,.82,15.54,2.91,22.32,7.38,4.21,14.07-5.57,26-6,39.33a14.18,14.18,0,0,1-1.88,5.12c-2.82,3.06-6.08,5.85-7,10.21C1179.44,1180,1189.44,1180.06,1188,1189Z" transform="translate(-954.97 -315)"/><path class="cls-12" d="M2222.37,796.28c-17.9-8.28-29.32-27.55-50.74-29.83a11.65,11.65,0,0,1-4.19-8.41c9-16,21.61-29.53,32-44.61,19.34-.29,30.54,14.22,44.14,24.23,1.7,1.77-1.92,5.84,0,5.23,3.12-1,6.08,1.76,8.41-.45.53-.5-2.33-2.29-1.62-4.34,12.11-10.74,16.35-25.69,21.69-40.07,9.37-3.28,14.58,1.1,17.57,9.53l-.72,4.11c-6.82,5.62-6.27,13.76-7.32,21.36C2269.92,761.65,2246.93,779.7,2222.37,796.28Z" transform="translate(-954.97 -315)"/><path class="cls-13" d="M2200.29,714.66c-5.71,17.43-14.82,32.38-30.8,42.36-11.23-1.55-19.74-11.35-19-19,3.17-32.41-17.79-43.49-41.92-53.09a10.92,10.92,0,0,1-2.93-5c-.93-9.79-1.25-19.57.53-29.33,3.69-7.22,9.81-9.72,17.57-9,7.83,2,13.87,6.86,19.32,12.55,3.52,4.6,8.47,6.15,14,6.47,4.64.82,9.17,1.84,11.12,6.91.81,3.36-4,1.94-4,4.66,1.81-1,4-1.3,5.56-2.91a4.59,4.59,0,0,1,4.82-.23c8.55,4.38,16.1,9.67,18.25,19.9C2196.87,697.05,2201.76,704.93,2200.29,714.66Z" transform="translate(-954.97 -315)"/><path class="cls-14" d="M1335.21,758.06c1.07-2.57,3.14-5.18,3-7.71-1.11-31.69,18.94-45.61,44.58-57.39,14.81-6.8,21.63-5.73,24.43,10.42a19.62,19.62,0,0,1,4.2,8.64,77.4,77.4,0,0,1,.79,12.82c0,6.39.07,12.8-1,19.16a40.85,40.85,0,0,1-6.13,14.9,19.44,19.44,0,0,1-7.38,6.14,26.53,26.53,0,0,1-15.45.8c-6.18-2.15-11.56-2.65-16.26,3.7-3.71,5-9,5.78-14.23,1.26l-16.76-4.6C1335.12,763.49,1335.16,760.77,1335.21,758.06Z" transform="translate(-954.97 -315)"/><path class="cls-15" d="M2487.81,985.83c-26.7,16.88-67.23,10.66-82.81-15.43-8.32-13.94-6.85-28.3,1.37-46.57,10.74-23.88,27.31-18.83,43.57-22.26,5.32,5.16,5,11.37,3.34,17.81-2.76,4.72-6.22,9-7.85,14.45-2.29,7.64-12.69,13.92-8.16,22.11,5.64,10.19,16.6,1.42,25,3.11C2472.4,966.43,2479.06,977.12,2487.81,985.83Z" transform="translate(-954.97 -315)"/><path class="cls-16" d="M1102.23,315.23c21.8,0,43.61.54,65.39-.2,14.77-.51,20,5.6,19.64,20q-1,36.86,0,73.76c.38,13.47-5.42,19.88-18.28,19.95-45,.22-90,.11-135,.25-11.84,0-15.93-6.15-15.81-17.28q.44-40,0-80.09c-.1-11.53,5-16.58,16.53-16.44C1057.22,315.44,1079.72,315.24,1102.23,315.23Z" transform="translate(-954.97 -315)"/><path class="cls-17" d="M2200.29,714.66c-7-7.29-9.56-15.83-7.45-25.74,16.2-2.43,31.7-8.36,48.55-8,11.53.27,21.84,1.79,30.16,10.35,3.34,1.83,3.74,4.54,2.34,7.8,1.38,18.95-5.42,33.39-23.1,41.83-2.41,2.77-4.8,2.81-7.18,0C2226.72,736.18,2217.42,719,2200.29,714.66Z" transform="translate(-954.97 -315)"/><path class="cls-18" d="M2347.05,1330.8l24.8-30.41c6.44-.76,9.77,4.6,14.4,7.41,15.92,9.65,22.31,15.87,3.71,33.76-17.5,16.84-31.36,38.92-47.36,58.25-4.06,4.91-6.66,12.39-18.32,12.92C2333.42,1384.87,2345.48,1359.09,2347.05,1330.8Z" transform="translate(-954.97 -315)"/><path class="cls-19" d="M2002.32,1442.05c-14.77,10.55-29.17-.83-43.77-.74q-35.85.26-71.72.22c-30.7-.08-30.65-.15-24.63-30.33.82-4.11.88-8.37,1.29-12.56,10.24,7.86,20.45,14,30.47-.29a6.94,6.94,0,0,1,5,1.47c3.67,4.36,8.44,5.68,14,4.92,16.59,4,31.34,14,49,14.53C1973.24,1430.65,1988.54,1435,2002.32,1442.05Z" transform="translate(-954.97 -315)"/><path class="cls-20" d="M1787.05,1366c13.29,19.29,27.15,38.09,44.1,54.43,3.51,3.39,7.67,7.11,3.6,12.54-3.91,5.22-8.63,3.08-13.07.51-26-15.07-52-30.25-78.09-45.23-5.6-3.21-10.17-7.9-4.86-13s8.21-17.33,20-9.84A270.86,270.86,0,0,1,1787.05,1366Z" transform="translate(-954.97 -315)"/><path class="cls-21" d="M1140.81,1277.06c-46.59.28-46.63.42-50.78,47.53-.47,5.34-2.81,10.52-4.29,15.77-10.29-6.91-6.93-19.64-11.44-29.27-7.11-15.15-6.74-33.79-9.53-50.95,0-4.69.59-9.57-4.08-12.77,2.28-26.64,5.7-28.71,34.07-20.67.72,8.75-1.47,18.34,7.28,24.74,4.12,5.42,5.37,11,1,17,12.66.08,25.74-4,37.85,3.25A4.14,4.14,0,0,1,1140.81,1277.06Z" transform="translate(-954.97 -315)"/><path class="cls-22" d="M1280,719.68c7.62,20.58,28.71,27.82,42.26,42.52-24.88,10.29-49.66,20.75-76.17,4.32-17.62-10.92-18-15.46-.59-27.26C1256.5,731.82,1266.55,722.69,1280,719.68Z" transform="translate(-954.97 -315)"/><path class="cls-21" d="M1626.23,1416.46c6.58,5.49,14.6,7.76,22.74,8,11.53.37,16.08,6,15.61,16.84l-114,.31c-8.58-13.36-5.7-24,7.61-32.2a10.51,10.51,0,0,1,8.66,2c3.05,7.43,7.31,6.39,12.07,1.6a19.46,19.46,0,0,1,4.64-6.89C1601.71,1393.32,1613.84,1405.42,1626.23,1416.46Z" transform="translate(-954.97 -315)"/><path class="cls-23" d="M2002.32,1442.05c-18.62,1.73-34.45-2-42.17-21.54,12.2-9.9,23.85-20.87,41.09-20.86,11.2,3.45,23.44-2.57,34.33,3.75-8.36,4-16.93,2.08-25.44,2.14,8.63-.84,17.35,2.11,25.92-1.77a25.58,25.58,0,0,0,2.64-1.62c.24,2.73.67,5.47.7,8.22.11,9.59,3.42,21.08-.71,28.31-5.55,9.72-17.29-.92-26.28,1.13C2009,1440.57,2005.68,1441.3,2002.32,1442.05Z" transform="translate(-954.97 -315)"/><path class="cls-24" d="M1191.45,1121.74c-8.6-.3-17.75.67-22.2-9.41l5.49-7.92c2-3,3.53-6.31,6.51-8.56,6.64-4.89,12.25-10.87,17.74-17,8.6-6.8,9-20.43,20.67-24.7,7.51-.56,15.09-2.08,22.22,1.83,7.23,15.62-6.11,31.52.68,47.16-.74,7.71-.63,16.25-12.56,13.68-7.5-3.29-14.48-2.06-21.54,1.81C1203.27,1121.48,1198.06,1125.93,1191.45,1121.74Z" transform="translate(-954.97 -315)"/><path class="cls-15" d="M2154.27,391.07c5.08-13.22,10.75-25.24,28.76-22.83,3,.4,6.65-4,10-6.2,5.86,7.88,5.27,16.5,2.92,25.31-1.31,3.29-3.9,5.27-7,6.89-6,3.15-6.42,9-4.52,14.05,2.34,6.3,8.08,2.4,12.4,2.27,2.71-.08,5.38-.42,8,.36a109.45,109.45,0,0,1,16.87,22.19c-7.69,2.51-15.21,5.9-23.1,7.34-21,3.84-30.45-14.38-44.38-24.06,0-.93,0-1.87,0-2.81q.07-9.85,0-19.7C2154.29,393,2154.28,392,2154.27,391.07Z" transform="translate(-954.97 -315)"/><path class="cls-25" d="M1562.9,1412.05c-16,4.94-11.29,18.45-12.34,29.59-43.34.25-43.42.23-33.26-41.58,2.1-8.64,5.07-17.08,7.64-25.61,7.2,6.58,12.5,16.83,25.1,13C1560.26,1392.53,1565.68,1400.16,1562.9,1412.05Z" transform="translate(-954.97 -315)"/><path class="cls-26" d="M2326.5,1196.7c-9.06-47.34-35.79-87.23-54.93-130.33,9-3.84,13.35,3,16.76,8.54,22.83,36.82,48.6,71.92,66.07,111.91a7.25,7.25,0,0,1-1.73,5.73C2344,1194.25,2334.31,1189.6,2326.5,1196.7Z" transform="translate(-954.97 -315)"/><path class="cls-27" d="M2449.9,922.62l0-21c17.44-13.52,28.3,1.89,39.75,10.17,5.5,4,10.43,11,11,19.17,2.61,7.48,5.08,15.82-4,20-11,5-21.84,3-31-5.37C2461.32,937.26,2444.71,937.4,2449.9,922.62Z" transform="translate(-954.97 -315)"/><path class="cls-28" d="M2217.46,632c27.33,1.62,53.92-8.45,81.34-5.14,5.17.62,12.86-2.12,14.34,4.94,1.24,5.91-5.33,8.95-9.88,12.22-17.53,12.59-36.29,9.6-54.05,2.35-14.25-5.82-26.9-4.56-40.08,1.33C2203.41,638,2212,635.85,2217.46,632Z" transform="translate(-954.97 -315)"/><path class="cls-29" d="M1022.37,872.12c-9.76,32.12-28.32,40.08-58.56,25.11-1.93-13.19,8.06-19.91,15.26-28.19a19.89,19.89,0,0,1,12-4.32C1001.61,866.62,1013.2,864.29,1022.37,872.12Z" transform="translate(-954.97 -315)"/><path class="cls-30" d="M2310.85,905.91q-13.16-21-26.32-41.92c17.1,6,34.46,11.4,49.39,22.13,6.9,5,15.41,12,12,20-3.58,8.36-13.29,2.61-20.52,1.18C2320.64,906.31,2315.71,906.32,2310.85,905.91Z" transform="translate(-954.97 -315)"/><path class="cls-31" d="M1297.49,801.12q-12.71,20.46-25.42,40.92c-.22-11.75-12-16.1-16.26-25.55-7.63-17-6-21.1,12.15-20.69C1277.91,796,1288.86,792.82,1297.49,801.12Z" transform="translate(-954.97 -315)"/><path class="cls-32" d="M2467.22,939.32c6.1,10.44,16.17,9.5,25.76,8.21,10.36-1.4,6.47-10.42,7.68-16.62,10.65,21.79.14,38.64-12.85,54.92-14.58-2.26-19.53-14.17-25.32-25.23C2459.28,952.45,2460.72,945.32,2467.22,939.32Z" transform="translate(-954.97 -315)"/><path class="cls-33" d="M2217.46,632c-2.41,5.43-8.65,8.84-8.33,15.71-10.85,8.16-26,9.4-34.54,21.29a23.55,23.55,0,0,1-3.61.91c-1.5,1.44-2.57,1.16-3.21-.81l-13.62-4.52c-2.23-5.49.9-8.78,4.82-11.75C2174.7,635.36,2193.65,626.9,2217.46,632Z" transform="translate(-954.97 -315)"/><path class="cls-34" d="M1896.19,1398.73c-3.47,8.17-6.58,16.55-17.81,16.65-11.58.1-10.77-10.42-14.89-16.74l-.06-24.48h36.41C1904.34,1383.2,1903.21,1391.4,1896.19,1398.73Z" transform="translate(-954.97 -315)"/><path class="cls-35" d="M2420.29,441c0,11.95.07,23.89,0,35.84,0,4,1,8.59-5.65,8.76-6,.16-6.84-3-6.82-7.87.12-24.59,0-49.19.22-73.78,0-4.94,1.12-11.17,7.32-10.69,7,.54,4.73,7.47,4.85,11.9C2420.5,417.08,2420.29,429,2420.29,441Z" transform="translate(-954.97 -315)"/><path class="cls-36" d="M1153.32,1121c-5.21-.21-8.52,3.57-12.68,5.67-5,2.52-11.14,4.15-8.16-5.77,3.77-5.63,1-11.3.1-17q-2.2-21-4.39-42.07c2.39-2.31.76-6.6,4.17-8.41,11.48.93,8.72,11.25,10.39,17.49C1147.17,1087.36,1149.91,1104.25,1153.32,1121Z" transform="translate(-954.97 -315)"/><path class="cls-37" d="M2193,390.65q0-14.31,0-28.62c17.29,5.71,35.29,10.62,37.7,33.19-3.78,16.26-14.09,12.67-24.73,8.16C2200.82,400,2195.52,396.74,2193,390.65Z" transform="translate(-954.97 -315)"/><path class="cls-38" d="M2399.17,1079c-20.43,2.9-22.21,16.35-21.35,33.74,1.24,25.15,0,50.43-.2,75.65a5.43,5.43,0,0,1-6.69-1.26c-7.07-8-6.91-18-7.34-27.79-1.1-24.45,2.16-49.06-2.61-73.37-1.13-5.76,1.15-9.43,6.6-11.31a49.7,49.7,0,0,1,25.71,0A12.66,12.66,0,0,1,2399.17,1079Z" transform="translate(-954.97 -315)"/><path class="cls-39" d="M1098.71,1252c-14.77-6.33-13-15.24-4-25.28l28.4-8.9q4.32,14.34,8.65,28.68C1122,1255.62,1111,1257.6,1098.71,1252Z" transform="translate(-954.97 -315)"/><path class="cls-40" d="M1022.37,872.12c-11.33-1-23.2,2.12-33.78-4.49-9.17-21.36-5.48-29.8,12.86-29.45C1013.88,846.14,1023.11,856.06,1022.37,872.12Z" transform="translate(-954.97 -315)"/><path class="cls-41" d="M2353.06,1031.55c8.18-8.45-4.52-21.79,6.91-29.48,25.93,9.68,16.88,31.8,17.93,50.33q-1.23.91-2.46,1.86C2363,1051.62,2351.85,1047.65,2353.06,1031.55Z" transform="translate(-954.97 -315)"/><path class="cls-42" d="M1787.05,1366c-9.7,11.71-19,4-28.36-.58-3.42-8.74,3.87-16,3.35-24.36,10.06,4.36,21.53,5.29,30.41,12.51C1790.66,1357.7,1788.85,1361.85,1787.05,1366Z" transform="translate(-954.97 -315)"/><path class="cls-16" d="M2205.27,399.35c9.29,3.54,18.46,6.38,25.46-4.12,8.75,15.4-2.51,26.08-9,37.88-10-3.48-16-10.29-17.2-21C2201,407.67,2201.35,403.41,2205.27,399.35Z" transform="translate(-954.97 -315)"/><path class="cls-43" d="M1162.26,1276.85,1145,1277c-1.3-4.86-3-9.49-6.92-13-2.42-4.87-6-9.61-1.64-15.18l42.13,3C1174.79,1261.22,1162.36,1265,1162.26,1276.85Z" transform="translate(-954.97 -315)"/><ellipse class="cls-44" cx="1410.43" cy="131.08" rx="3.02" ry="55.79"/><path class="cls-45" d="M1077.57,1124.69c-4.54,7.13.64,10.94,4.5,16.06,3.11,4.12,12.8,5.28,7.82,14q-23-25.12-46.11-50.38C1057.49,1106.34,1067.82,1115,1077.57,1124.69Z" transform="translate(-954.97 -315)"/><path class="cls-46" d="M1200.17,1084.34c-4.85,5.91-10.05,11.42-17.25,14.54a10.85,10.85,0,0,1-4.32-7.56,109.6,109.6,0,0,1,13.3-33.56c6.12-1.84,10.95-.14,14.49,5.19C1210.3,1071.81,1202.25,1077.21,1200.17,1084.34Z" transform="translate(-954.97 -315)"/><path class="cls-47" d="M2343.14,419.44c1.92,22,2.38,44.06-.26,66.07l-5.14.05V419.62Z" transform="translate(-954.97 -315)"/><path class="cls-48" d="M980.77,872.75l-17,24.48c-6-4.63-9.29-10.07-6.23-18,3.25-8.39,1.78-16.43-2.61-24.07,9.67-6.07,16,.89,22.79,5.86C980.65,864.46,982.74,868.09,980.77,872.75Z" transform="translate(-954.97 -315)"/><path class="cls-49" d="M2159,652.85l-4.83,11.75c-5.4-.05-12.42,3.36-13.34-6.25-3.54-28.41-1-56.91-1.15-85.37,0-6.37,1.69-12.38,6.19-17.27a21.62,21.62,0,0,1,4.18,0c4.53,24.82.66,49.87,2.2,74.76.46,7.39-2.84,15.21,2.06,22.19Z" transform="translate(-954.97 -315)"/><path class="cls-50" d="M980.77,872.75,976.12,864c-.17-8.77-11.38-15.69-4.3-25.67,4.87,2.19,9.08,4.37,14.09-1.08,4.6-5,10.66-4.51,15.54.95-22.87,1.72-8.69,19.58-12.85,29.45Z" transform="translate(-954.97 -315)"/><path class="cls-15" d="M2154.28,652.63c-9.67-2.61-3.71-10.27-3.85-14.89-.8-27.33-.4-54.7-.41-82.06l4.09-.32Q2154.18,604,2154.28,652.63Z" transform="translate(-954.97 -315)"/><path class="cls-51" d="M1204,1061.84l-12.13-4.09c5.18-12.28,11.3-24,20.51-33.85l-.69,25.05c-.15,2.46,2.43,3.64,2.79,5.88a7.32,7.32,0,0,1-1.72,4.22A12,12,0,0,1,1204,1061.84Z" transform="translate(-954.97 -315)"/><path class="cls-52" d="M1115,1078.88c-5.48-.22-10.88-9.79-16.45-.15-5.62-6-6.86-13.6-8.22-21.2,2.6-2.74.22-10.2,7.8-8.22Z" transform="translate(-954.97 -315)"/><path class="cls-53" d="M971.82,838.31c-1.83,9.1,12.77,15.45,4.3,25.66L955,855.19C955.87,844.87,961.55,839.29,971.82,838.31Z" transform="translate(-954.97 -315)"/><path class="cls-54" d="M1115.51,998.58a148.78,148.78,0,0,1-8.71-42c-1.68-4.5.44-5.27,4.28-4.38l12.66,46.34Q1119.62,1002.31,1115.51,998.58Z" transform="translate(-954.97 -315)"/><path class="cls-55" d="M2394.77,487.86c-2.61,4.54-5.36,4.66-8.26.27a231.82,231.82,0,0,1,0-67.67c3-4.38,5.74-4.15,8.35.34A228,228,0,0,0,2394.77,487.86Z" transform="translate(-954.97 -315)"/><path class="cls-56" d="M2314.39,448.92c5.35,12.31,6.44,24.58.81,41.51C2307.73,473.51,2310.79,461.19,2314.39,448.92Z" transform="translate(-954.97 -315)"/><path class="cls-46" d="M1132.36,1053.42c-.1,3.44-.8,6.59-4.18,8.41-4.86-7.82-4.32-16.62-4.54-25.27,1.22-4.47,1.2-10.21,8.59-8.31C1133.76,1036.63,1139.32,1045,1132.36,1053.42Z" transform="translate(-954.97 -315)"/><path class="cls-57" d="M2399.17,1079a41.45,41.45,0,0,1-4.15-.75c-3.79-9.27-20.06-10-16.67-24.16l-.45-1.71q10.3,5,20.6,10C2409,1067.51,2407.22,1073.15,2399.17,1079Z" transform="translate(-954.97 -315)"/><path class="cls-58" d="M2386.47,420.46q0,33.84,0,67.67A113.91,113.91,0,0,1,2386.47,420.46Z" transform="translate(-954.97 -315)"/><path class="cls-59" d="M2394.77,487.86a115.62,115.62,0,0,1,.05-67.06Q2394.79,454.32,2394.77,487.86Z" transform="translate(-954.97 -315)"/><path class="cls-60" d="M1221,1331.85c-8.19-9.94-4-21.68-3.37-32.35.25-4.38,4.45,2.34,7.33,2.55C1225.26,1312.19,1226.72,1322.5,1221,1331.85Z" transform="translate(-954.97 -315)"/><path class="cls-61" d="M1086.44,1049q-6.68-16.65-13.37-33.31c-1.11-1.12-1.44-2.2-1-3.24s.85-1.53,1.25-1.53c7.47,8.89,15.16,17.65,16.82,29.81C1092.8,1045.23,1093.78,1049,1086.44,1049Z" transform="translate(-954.97 -315)"/><path class="cls-62" d="M2273.89,699.1c-.78-2.6-1.55-5.2-2.34-7.8,9.35,1.73,30.08-9.17,18.1,16.26Z" transform="translate(-954.97 -315)"/><path class="cls-63" d="M1723.57,1407.75c1.59-9.81-3.85-20.6,4.19-29.49,5.73,9.27,4.1,19.55,4,29.61C1729,1410.29,1726.27,1410.27,1723.57,1407.75Z" transform="translate(-954.97 -315)"/><path class="cls-64" d="M1280.09,686.38c6.5,8.43,6.47,16.87,0,25.32C1273.75,703.27,1273.79,694.83,1280.09,686.38Z" transform="translate(-954.97 -315)"/><path class="cls-65" d="M1161.79,1141.76c-3.53,12.53-9,3.92-11.31.14-3.41-5.61.34-11.49,3.1-16.85C1160.14,1128.75,1155.08,1138.14,1161.79,1141.76Z" transform="translate(-954.97 -315)"/><path class="cls-66" d="M1115.51,998.58h8.23q2.12,8.43,4.22,16.88c-2.73,2.46-5.45,2.48-8.15-.05C1113.72,1011,1115.94,1004.45,1115.51,998.58Z" transform="translate(-954.97 -315)"/><path class="cls-67" d="M1064.41,990.31c-11.17-1.78-12-10.14-12.21-18.87Z" transform="translate(-954.97 -315)"/><path class="cls-62" d="M2281.61,733c-.79-8.23-9.33-19.11,7.32-21.36C2288.73,719.56,2286.68,726.81,2281.61,733Z" transform="translate(-954.97 -315)"/><path class="cls-68" d="M2373.81,1188.37l3.81,0c-7.24,7.87-16.58,3.1-24.95,4.14.08-1.38.12-2.77.12-4.15C2359.78,1177.19,2366.79,1179.12,2373.81,1188.37Z" transform="translate(-954.97 -315)"/><path class="cls-69" d="M1859.27,1256.4q2-4.26,4-8.51c6.8,9.79,5.46,19.58,0,29.37C1861.2,1270.45,1865.72,1262.37,1859.27,1256.4Z" transform="translate(-954.97 -315)"/><path class="cls-70" d="M1132.23,1028.25l-8.59,8.31c-3.3-2-3.89-5.17-3.76-8.66,2.8-2.83,3.52-7.75,8.47-8.41C1131.62,1021.54,1132.35,1024.7,1132.23,1028.25Z" transform="translate(-954.97 -315)"/><path class="cls-71" d="M1111.08,952.25c-1.43,1.46-2.85,2.92-4.28,4.37-5.66-4.62-3.62-11.11-4.12-17-1.72-4.46.4-5.15,4.16-4.23Z" transform="translate(-954.97 -315)"/><path class="cls-72" d="M1119.92,1150.28c2.58.56,6,.45,5.31,4.49-.47,2.69-1.84,5.81-5.09,5.41-5.38-.67-8.77-3.89-8.92-9.72C1114.13,1150.77,1117.12,1155.17,1119.92,1150.28Z" transform="translate(-954.97 -315)"/><path class="cls-73" d="M1060.69,1247.37c2.49,0,6.73-.86,7.17.08,2.18,4.67,1.69,9.37-3.09,12.69C1059.83,1257,1060.68,1252.06,1060.69,1247.37Z" transform="translate(-954.97 -315)"/><path class="cls-74" d="M1106.84,935.4l-4.16,4.23c-5.9-4.54-3.61-11.1-4.18-17-1.64-4.44.41-5.16,4.18-4.14Q1104.76,927,1106.84,935.4Z" transform="translate(-954.97 -315)"/><path class="cls-5" d="M1715.21,1222.38c7.36-8,16.73-3.58,25.29-4.08C1732.9,1224.8,1723.64,1221,1715.21,1222.38Z" transform="translate(-954.97 -315)"/><path class="cls-75" d="M2154.27,416.39q-9.63-12.66,0-25.32h0a34.57,34.57,0,0,1,0,25.35Z" transform="translate(-954.97 -315)"/><path class="cls-76" d="M1086.44,1049c1.24-2.76,2.47-5.51,3.7-8.27a12.52,12.52,0,0,1,8,8.58l-7.8,8.22Q1088.38,1053.27,1086.44,1049Z" transform="translate(-954.97 -315)"/><path class="cls-77" d="M1166,1390.59c1.93-8.95,6.11-10.51,12.78-3.9C1175.63,1391.55,1170.77,1390.88,1166,1390.59Z" transform="translate(-954.97 -315)"/><path class="cls-78" d="M1723.57,1407.75l8.22.12q0,6.3,0,12.6C1723.34,1419.93,1723.47,1413.83,1723.57,1407.75Z" transform="translate(-954.97 -315)"/><path class="cls-79" d="M1132.58,1103.9c5.56,5.68,5.78,11.34-.1,17q-2.1-6.36-4.21-12.72Z" transform="translate(-954.97 -315)"/><path class="cls-80" d="M1102.68,918.54l-4.18,4.14c-4.66-3.07-4.25-7.58-3.83-12.23C1100.92,910,1100.66,915.35,1102.68,918.54Z" transform="translate(-954.97 -315)"/><path class="cls-46" d="M1128.35,1019.49l-8.47,8.42q0-6.26-.07-12.49l8.16.05C1128.16,1016.8,1128.29,1018.14,1128.35,1019.49Z" transform="translate(-954.97 -315)"/><path class="cls-81" d="M1208.36,547.2c-2,3.33-5.1,5-8.54,3.24s-.55-4.7-.16-7.12C1203.26,543,1206.41,543.78,1208.36,547.2Z" transform="translate(-954.97 -315)"/><path class="cls-82" d="M1178.6,1091.32c3.25,1.49,4.24,4.27,4.32,7.57l-8.18,5.52C1174.51,1099.6,1173.8,1094.65,1178.6,1091.32Z" transform="translate(-954.97 -315)"/><path class="cls-83" d="M1073.32,1010.92c-.08,1.59-.17,3.18-.25,4.77-1.32-1.45-3.28-2.7-3.81-4.4-1-3.19-6.55-7.59-1.24-9.46C1071.57,1000.59,1072.92,1006.9,1073.32,1010.92Z" transform="translate(-954.97 -315)"/><path class="cls-48" d="M2145.84,555.71c0,26.24-.16,52.49,0,78.73.07,8.44-.62,16.52-5.09,23.91l-16.6-13.84c-3.73-9.53-1.16-19.46-1.79-29.18-1-15.8-7.94-24.54-25-24.22-21.74.42-43.49.09-65.24.13-15.26,0-23.74,6.47-23.8,22.52-.11,28-.28,56.06.08,84.09.2,15.93,7,25.26,24.15,24.63,22.91-.84,46.24,3.67,68.5-5.48q7.39,12.87-.78,25.21c-19.13,10-39.75,4.37-59.69,5.26-28.39,1.26-32.28,3.63-31.79,31.26.92,51.57-3.66,103.25,2.85,154.71-8.64,18.52-26.78,13-41.46,16.37-11.6-3.36-23.47-3.93-35.48-3.95-72.4-.1-144.8.5-217.19-.34-3.69-.36-7.72-.39-6.79-6q-.36-8.25-.71-16.48c9.08-9.23,20.89-6.86,31.81-6.91,63.84-.3,127.69,0,191.53-.22,25.72-.1,35.73-15.17,27.16-39.61-4.53-12.91-15.67-10.07-24.84-10.14-56.12-.43-112.24-.08-168.37-.29-11.81,0-24,1.28-34.55-6.31a18.56,18.56,0,0,1-6.75-14.23,8.43,8.43,0,0,1,4.63-6.12c10-4.35,20.65-3.23,31.11-3.26,57.52-.15,115,.18,172.55-.18,24.22-.16,37.83-25.73,25.15-46.9-5.78-9.65-16.11-7.14-24.82-7.18-62.42-.31-124.85-.11-187.28-.18-23.14,0-46.29.22-69.4.06-17.2-2-34.44-8-51.66.11-9.17.47-21.47-4.78-25.53,7.22-4.62,13.66-6.2,29.35,1.22,42.29,5.89,10.26,21.54,2.63,30.08,11a15.43,15.43,0,0,1,.76,15.57c-2.21,3.23-5.6,3.5-9.11,3.71-8.6.52-20.43-3.45-23.34,7.86-3.7,14.44-5.62,30,2.17,44.2,2,3.62,7.23,3.68,11.05,5.19,7.27,3.49,9.28,11,13.19,17.12l-4.95,7.42c-26-1.61-22.22,21.16-28.94,35.33-5.3,12.73-13.63,23.55-21.89,34.4-5.63,1.21-9-1-10.15-6.63-.46-16,7.18-37.21-2.07-46.67-8.56-8.75-29.89-.7-45.61-1.34-3.49-.14-7,.32-10.49-.43-4-1.77-5.13-4.76-3.94-8.82,9.43-10.47,22.18-7.48,33.67-7.34,16.63.2,24.78-5.89,24.25-23.35-.58-18.93-.47-37.92,0-56.86.37-15.43-6.75-21.21-21.65-21.13q-53.76.3-107.52,0c-9.73-.07-19.83,1.18-28.54-5a5,5,0,0,1,0-6.86c9.38-6.65,20.28-5,30.65-5.07,34.47-.36,68.94.19,103.41-.26,21.68-.28,23.5-2.81,23.4-27.28-.09-24-2-26.56-24-26.85-33.76-.45-67.54.21-101.3-.32-10.93-.17-22.75,2.21-32.26-6.2l3.76-4.4c6.86-6.15,15.33-6.19,23.78-6.2,37.81,0,75.61-.12,113.42,0-34.92-.36-69.84,0-104.76-.25-9.66-.08-19.86,1.47-27.77-6.44l.57-20.65a4.72,4.72,0,0,1,6,1.09c6.07,8,14.48,9.78,24,9.74,32.65-.12,65.31.08,98-.13,8.24-.06,17.31.72,19.92-10.37-3-11.64-1.51-23.63-2.94-35.41-2.14-12.57-12.32-9.31-19.89-9.43-30.62-.45-61.24-.06-91.86-.25-9-.06-18.28.72-25.75-6,0-1.35,0-2.7,0-4.06,7.19-7.57,16.7-6.25,25.65-6.31,32.81-.25,65.63,0,98.44-.28-36.87.13-73.74-.06-110.61-.05-7.93,0-15.28-1.71-21.94-6.06l-.13-4.28c7.91-8,18.2-6.43,27.85-6.54,33-.36,66.08.25,99.11-.29,20.71-.33,22.61-3,22.75-25.85.14-24.71-1.92-27.86-22.78-28.1-44.28-.51-88.56-.11-132.84-.53-9.74-.1-19.87,1.47-27.87-6.31.08-1.33.17-2.67.26-4,25-4.85,50.21-1.52,75.32-2.07,28.77-.63,57.58.06,86.36-.3,6.55-.08,13.92,2.81,20.22-3.42-3.58-8.06-10.76-4.79-16.05-4.82-48.45-.29-96.9-.08-145.35-.27-6.86,0-14.06,1.93-20.58-2-.11-1.34-.2-2.68-.28-4,7.92-7.93,18.2-6.44,27.85-6.51,40-.29,80.15-1,120.16.29,19.19.64,34.08-1.22,37.94-23.35,2.35,19.64,14.72,21.43,32,21.37C1775.81,555.37,1960.83,555.66,2145.84,555.71Z" transform="translate(-954.97 -315)"/><path class="cls-84" d="M1896.19,1398.73q1.83-12.29,3.65-24.56c6.9-.48,12.06-2.79,13.09-10.72,7-54.56,20.4-108.29,22.07-163.55,1.13-37.55-3.67-42.94-40.48-50.14-27.38-5.35-54.68-11.11-82-16.7,3-12.32,13.67-7.8,21.41-9.77a180.67,180.67,0,0,1,19,0c5.66.09,12.2.88,16.09-3.34,15.46-16.72,35.52-14,55-14,37.16,0,74.35-.75,111.49.48,9.5.31,25.09-3.75,22.2,15.77q-22.45,109.93-44.89,219.88c-3.92,19.19-7.72,38.41-11.57,57.61-13.77,6.81-26,16.62-41.09,20.86-20.19,8.81-33.25-10.93-50.82-12.64-4.48-.43-9-.88-12.12-4.72Z" transform="translate(-954.97 -315)"/><path class="cls-10" d="M1849.22,1128.91l-14.82,0c-22.71-2.3-46-.72-67.58-10.62-6.37-2.92-13.4-4.49-17.66-10.76-16.94-41.91-30.38-84.72-33.9-130.12a7.1,7.1,0,0,1,4.39-5.65,7.84,7.84,0,0,1,4.87.77,21.75,21.75,0,0,1,3.35,3.82c2.42,3.61,5.22,7,7.71,10.54a66.62,66.62,0,0,0,17.69,18.2,110.19,110.19,0,0,0,33.42,16.61c5.61,1.69,12.92,1.89,13.87,10.17a4.92,4.92,0,0,1-5,1.94c1.12,1.07,2.35.48,3.47.13,4.35-1.36,7.55-5.17,12.27-5.86,16.66-1.74,33.31-3.26,50.09-2.12,8.24,5.78,9.66,15.1,12.37,23.75.41,19,3.47,37.78,6,56.6C1881.77,1130.35,1863.26,1126.6,1849.22,1128.91Z" transform="translate(-954.97 -315)"/><path class="cls-85" d="M1732.27,855.25c7.61,4.77,16.12,4.1,24.55,4.1,63.28,0,126.57.36,189.84-.29,15.41-.16,22.62,2.52,22.28,20.51-.8,43.07.17,43-43.7,43.09q-107.57.15-215.15.4l-20.68-5.46c-6.38-12.52-2.33-18.8,11.52-18.71,6.32,0,12.64.62,18.93.55,15.81-.76,31.59,1.82,47.45.59-13.09-5.16-29.13,4.23-40.81-8.09a7.34,7.34,0,0,1,2.23-6c14-6.91,28.9-2.65,43.34-3,25.9-.7,51.84-.34,77.77-.19-33.63-.77-67.3.76-100.9-.81C1728.85,881,1725.18,874.12,1732.27,855.25Z" transform="translate(-954.97 -315)"/><path class="cls-86" d="M1626.23,1416.46c-7-2.89-14.48-5-20.9-8.87-8.88-5.34-15.32-3.47-21.08,4.24-6-10.06-13.68-19.72-8.06-32.64,12.81-4.61,4.3-13,2.38-18.77-10.5-31.65-21.87-63-33-94.46.8-4.47.09-9.26,2.79-13.32,11.21-1.81,1.92-8.08,2.58-12.19-.71-15,2.35-29.31,7.92-43.15l50.24-.43a2.52,2.52,0,0,1,1.34,2.56c-.2,1-.45,1.49-.75,1.49,4.86,43.66,9.58,87.34,14.65,131,3,25.61,6.57,51.15,9.72,76.74C1634.78,1414.13,1630.72,1415.72,1626.23,1416.46Z" transform="translate(-954.97 -315)"/><path class="cls-84" d="M1509.75,1176q-32.84-75.46-65.68-150.94c-1.68-3.55,0-5.65,3.1-7.11,10.41-.78,12.71,9.53,19.86,14.14,13.83-10.18,18.23-30.72,37.07-36.23,11.52.83,19.06,8.09,25.82,16.32,6.33,7.7,10.65,19,23.93,8.18,3.13-2.56,9.64-.87,12.61,4.34-22.51,41-38,84.58-49.78,129.66C1514.77,1161.71,1512.08,1168.83,1509.75,1176Z" transform="translate(-954.97 -315)"/><path class="cls-87" d="M1630.47,859.35l.27-16.82c-1.09-6.27,1-13.06-3.18-18.79-2.78-3.8-6.09-7.14-9-10.78-12.65-14.86-6.1-25.17,8-33.67q23.12-18.43,46.21,0c7.28,1.8,8.59,8.39,11.29,13.85,7.54,6.23,17.59,4.69,25.91,8.44,4.61,2.06,8.18,5.48,11.72,8.93,3.54,3.62,7,7.28,9,12.06,1.63,5.07,1.68,10-.92,14.86a6.45,6.45,0,0,1-5.18,2.25c-2.56-3.58-4.94-8.24-9.32-1.64-14.58,2.25-23,15.46-36,20.44-11.59-.39-13,5.55-9.09,14.78,1.57,13.82-2,26.05-11.32,36.45-14.07,4.53-19.88,19.19-32,26.11-7.68-1.17-14-3.24-8.62-13,.61-7.7,5.89-13.38,8.72-20.11,1.54-3,3.24-6,4.73-9a19.59,19.59,0,0,0,1.69-6.87c-.3-4.26-2.41-7.89-4-11.7C1627.35,869.67,1625.66,864.27,1630.47,859.35Z" transform="translate(-954.97 -315)"/><path class="cls-88" d="M1677.05,855.22c13.13-6.16,20.71-22.52,38.15-20.79,3.56-.87,3.41,8.72,8.67,3.07a22.59,22.59,0,0,0,3.25,1.37c1.25.43,1.86,1.1,1.83,2s-.21,1.52-.52,1.52c0,1.48,0,3,0,4.45,1.1,14,3.9,28.07,0,42.11-.17,1.39-.35,2.78-.53,4.17,2,5.63-1.42,8.67-5.44,11.43a24.78,24.78,0,0,1-20,.23c-15.3-6.33-13.6,3.65-13.13,12.83l-30.54-7.88c-3-13.42,12.83-23.88,6-37.91C1664.73,863.22,1667.29,856.58,1677.05,855.22Z" transform="translate(-954.97 -315)"/><path class="cls-89" d="M1633.15,1020.48c3.33,32.29-1.71,64.73,6,96.47,2,8.27,1.19,13.21-9.47,12.65-9.36-.49-18-1-15.58-13.39C1620.28,1084.27,1622.37,1051.53,1633.15,1020.48Z" transform="translate(-954.97 -315)"/><path class="cls-90" d="M1566.46,1024.74c-9.09-.89-21.68-8.28-18.2,13.59-18.82-12.17-24.06-34.79-44.29-40.55.13-11.45,4.93-19.3,16.77-21.76,14,10.43,28.74,19.83,42.06,31.18l8.27,5.77c.1.88.17,1.76.2,2.65-1.78,2.73,2.78,5.26.25,8Z" transform="translate(-954.97 -315)"/><path class="cls-91" d="M1550.87,1252c-.67,5.06-.64,10.4-5.25,14-5.92-19.6-24.74-36.65-11.93-60,5.7-10.71,15.87-8.52,25.22-8.68,5.09,16-5.57,30.32-4.75,45.85A10.2,10.2,0,0,1,1550.87,1252Z" transform="translate(-954.97 -315)"/><path class="cls-92" d="M1749.16,1107.57c28.11,8.31,55.81,18.28,85.24,21.38-7.2,1.88-15.57-2.38-21.9,4.12l-50.91-7.84c-5.61,2.28-9-1-12.32-4.76C1750.25,1116.16,1742.71,1111.92,1749.16,1107.57Z" transform="translate(-954.97 -315)"/><path class="cls-93" d="M1593,978.58c-.11-5.5-.35-11-.31-16.51.21-23,5.53-26.42,29.25-18.82Z" transform="translate(-954.97 -315)"/><path class="cls-94" d="M1609.74,1200.92a22.09,22.09,0,0,0-.58-4.05c.35-4.65.71-9.29,1.09-14.35,8.62,1.83,8.63,9.48,12.41,14C1621.34,1206.62,1615.73,1204.33,1609.74,1200.92Z" transform="translate(-954.97 -315)"/><path class="cls-95" d="M1719.29,973.47l-4,4c-7-5.8-3.4-14-4.64-21-1.37-4.52,1.28-5.18,4.82-5,3.62,2.57,5.64,6.2,6.89,10.35C1723.33,966.18,1722.56,970.15,1719.29,973.47Z" transform="translate(-954.97 -315)"/><path class="cls-96" d="M1714.3,952.33l-3.68,4.09c-5.5-5.69-5.74-11.32.18-16.88,1.26,1.68,2.52,3.37,3.79,5.05C1717.14,947.27,1717.19,949.85,1714.3,952.33Z" transform="translate(-954.97 -315)"/><path class="cls-97" d="M1749.27,1120.47l12.32,4.76C1754.29,1131.87,1750.3,1130,1749.27,1120.47Z" transform="translate(-954.97 -315)"/><path class="cls-98" d="M1571.52,1023.63c3.23-2.78-13.94-4.92-.25-8,3.06,1.31,6.66,2.46,5.7,6.72C1576.8,1023.14,1573.42,1023.22,1571.52,1023.63Z" transform="translate(-954.97 -315)"/><path class="cls-99" d="M2373.81,1188.37c-7-4.68-14-4.73-21,0q-32.79-53.1-65.57-106.21c-4-6.51-7.28-13.65-15.65-15.82-11-19-21.44-38.33-28-59.44,21-9.64,42-8,63.13-.23,8.75,10.22,6.28,28.51,23.54,32.59,4.78,1.41,7.67,4.71,9.35,9.25a51.68,51.68,0,0,1,.75,23.14c-.36,2.34-1.56,4.44-2.07,6.75a17,17,0,0,1,7.29-6.92,28.93,28.93,0,0,1,19.47-.41c3.12,1.57,5.59,3.55,4.71,7.59-6.86,9.47.58,19,.51,28.47C2370,1134.21,2365.81,1161.64,2373.81,1188.37Z" transform="translate(-954.97 -315)"/><path class="cls-100" d="M2099.67,994.18l-13.17-2.41a12.49,12.49,0,0,1-3.4-4.95c-1.89-7.88-1.59-16.15-4.25-23.92a28,28,0,0,1,.27-12.8c25.74-54,43.61-110.24,49.07-170.07,1.12-5.67,3.37-10.48,9.53-12.21,7.3-.26,15-1.63,19.55,6.47q.42,12.5.85,25c-.76,25.62-1.72,51.21-10.12,75.83-2.67,7.83-3.29,16.55-10.38,22.3l-24.42,97.06C2108.61,997.93,2104.11,997.77,2099.67,994.18Z" transform="translate(-954.97 -315)"/><path class="cls-101" d="M2306.68,1006.7l-63.14.23c1.6-13.71-6.58-24.68-10.09-37-6.32-22.06,1.85-43.93,2.16-71.58C2270.54,931.1,2290.77,967.43,2306.68,1006.7Z" transform="translate(-954.97 -315)"/><path class="cls-102" d="M2157.27,774.29l-16.93-3.74c-4.48-8.89-11.83-4.2-18.45-4.21-11.18,0-23.35.59-24.29-15.67a15.6,15.6,0,0,1,5.62-6.27c6-13.22,4.44-26.64,1-40.1a27.78,27.78,0,0,1-2.81-5,15.17,15.17,0,0,1-.25-8.75c1.58-3.78,3.37-7.37,8-8.14,23.81-3.79,31.61,19.23,47.54,28.64,1.62,1,2.76,6,1.71,7.68-10.95,17.18,2.19,27.09,11.05,38.33q1,4.69,2.13,9.42C2165.77,767.1,2158.8,765.72,2157.27,774.29Z" transform="translate(-954.97 -315)"/><path class="cls-103" d="M2137.62,897.41q10.24-49,20.5-98.12c1.71,7.32-2.64,15.92,4.59,22.1,19.27,9.56,20.49,24.53,12.67,42.2l-30.05,45.09Z" transform="translate(-954.97 -315)"/><path class="cls-104" d="M2344.75,1076.68l-7.92,4.84-.51-7.13a40.93,40.93,0,0,0,.06-25.06q-3.08-5-6.16-10c5.48-8.89,14.75-6.58,22.84-7.76,4.84,11.54,15.23,16.86,25.29,22.56-.32,12.1,22,8.65,16.67,24.16-8.38,3.43-16.87,0-25.3.42l-4.45-4.68C2358.16,1072.83,2350.65,1068.61,2344.75,1076.68Z" transform="translate(-954.97 -315)"/><path class="cls-105" d="M2175.38,863.59c-2.41-29.29-2.41-29.29-12.67-42.2l16.86-16.89c3.76-1.84.26-11,8.43-8.38.05,4.84.65,10.28-3.51,13.51-11.73,9.11-12.16,16.21-.83,27.55C2193.79,847.31,2178.46,854.68,2175.38,863.59Z" transform="translate(-954.97 -315)"/><path class="cls-106" d="M2149.46,947.29c-4,.35-6.73-1.41-7.36-5.27a7.86,7.86,0,0,1,6-9.36c4.58-1.13,8.11,1.76,8.63,6.35C2157.29,943.81,2153.86,946.23,2149.46,947.29Z" transform="translate(-954.97 -315)"/><path class="cls-107" d="M2145.66,983.54c-.62,5.18-2.46,8.33-6.18,8.3a7.8,7.8,0,0,1-7.89-7.62c-.28-3.93,2.93-5.79,6.45-6.24C2143.18,977.32,2145,980.62,2145.66,983.54Z" transform="translate(-954.97 -315)"/><path class="cls-108" d="M2099.67,994.18l13.52.29c-.91,8.77.26,17.93-4.9,25.9Q2104,1007.28,2099.67,994.18Z" transform="translate(-954.97 -315)"/><path class="cls-109" d="M2143.4,1029.58c-.31,4-2.73,6.1-6.44,6.56-3.91.48-6.83-1.32-7.23-5.34s2-6.36,6-6.6S2142.07,1026,2143.4,1029.58Z" transform="translate(-954.97 -315)"/><path class="cls-110" d="M2188,796.12l-8.43,8.38c-1.16-7.31-2.31-14.61-3.56-22.53C2184.76,783.77,2184.64,791.34,2188,796.12Z" transform="translate(-954.97 -315)"/><path class="cls-111" d="M2103.87,1045.1c-5.89-4.47-5-10.27-3.36-16.58,5.42,3.61,2,9.27,3.76,13.5A2.82,2.82,0,0,1,2103.87,1045.1Z" transform="translate(-954.97 -315)"/><path class="cls-112" d="M1520.34,977.72,1504,997.78c-11.85,13.55-23.71,27.1-36.26,41.43L1449,1019.63c-5.88-2.92-9.75-7.71-12.56-13.49L1427.79,995c-19.18-35.41-29.27-74.17-41.32-112.2-3.74-9.82-6.84-19.83-8.25-30.3a29.9,29.9,0,0,1,.29-6.27c2.8-8.67,1-19.19,10.07-25.38,7.5-1.45,9.06,3.19,9.34,9.13a4.3,4.3,0,0,0,1.68,3.68c20.67,18.72,33.24,43.85,51.38,64.57,5.48,6.39,11.57,12.21,17.61,18.06,9.93,12.36,25.29,20.2,30.53,36.47l4.77,3.74C1513.85,960.12,1526.58,961.57,1520.34,977.72Z" transform="translate(-954.97 -315)"/><path class="cls-113" d="M1383.12,846.15l-2.19,4.78c-1.76,11.19-11,24.82,9.4,28.79,11.29,38.82,28.42,75.74,37.46,115.29-6.36-4.86-13.55-5.13-21-3.81l-28.87-.5c-4.9-34.77-9.55-69.56-9.51-104.78-4.36-11.32,1.43-23.66-3.52-34.92q-.31-7.95-.64-15.91c-3.47-11.82-.89-23.9-1.57-35.84,1.38-6.8,5.48-10,12.45-9.34,3.67,1.33,4.68,4.32,4.9,7.81-.23,4.18-1.9,8-3.37,11.78-3,7.86-3.66,15.84-1.06,23.94,1.76,3,4.35,5.23,6.58,7.8A7.18,7.18,0,0,1,1383.12,846.15Z" transform="translate(-954.97 -315)"/><path class="cls-114" d="M1576.19,1379.19c1,11.29,10.89,20.4,8.06,32.64l-5.42,3.56c-3.48,4.43-7.16,3.67-10.94.43l-5-3.77L1550,1387.4Z" transform="translate(-954.97 -315)"/><path class="cls-115" d="M1436.45,1006.14a21.38,21.38,0,0,1,12.56,13.49l-4.94,5.47C1439.56,1019.57,1435.63,1013.81,1436.45,1006.14Z" transform="translate(-954.97 -315)"/><path class="cls-116" d="M1259.52,1118.17c-5.44,50.21,1.85,44.44-68,69.63-3.47-3.58-3-8-.88-11.48,12.28-20.61,23.54-42,43-57.33,5.72-.36,7.42-5,10.35-8.86,4.08-5.38,9-11.26,16.82-4.72C1261.24,1109.75,1261.34,1114.05,1259.52,1118.17Z" transform="translate(-954.97 -315)"/><path class="cls-117" d="M1280.91,1033.22c-4.21-30.08,4.61-59.45,5.38-89.54,9.68,24.58,6.16,52.42,19.2,76l1.59,2.41a5.18,5.18,0,0,1-3.75,3.62,6.17,6.17,0,0,1-3.67-.16c1,1.63,2.33.24,3.46.32,2.59.17,5-1.07,7.56-1.55,15.28-.83,30.55-.65,45.78-.24,9.12.26,16.21-2.23,21.46-9.7,6.06,12.35,2.91,17.55-11.53,17.45C1337.9,1031.63,1309.41,1032.68,1280.91,1033.22Z" transform="translate(-954.97 -315)"/><path class="cls-118" d="M1259.52,1118.17l-.54-14.24c-6.69-3.73-13.5,8.18-20.15-.16-9.9-16.39.67-31.23,3.53-46.65A6.94,6.94,0,0,1,1248,1052c7.09,4.68,18.66-7.11,23.38,6.33Q1265.46,1088.22,1259.52,1118.17Z" transform="translate(-954.97 -315)"/><path class="cls-56" d="M1234,1121c-13.92,22.42-34.21,40.81-42.51,66.81A4.38,4.38,0,0,1,1188,1189c-5-4.18-9.19-8.79-16.65-10.06-3.28-.55,1.62-2.29,3.22-3.12.2-6,12-4.22,8.5-12.71,0-1.19-.07-2.38-.1-3.58,10.78-18.91,19.2-40.41,45.89-42A12.2,12.2,0,0,1,1234,1121Z" transform="translate(-954.97 -315)"/><path class="cls-119" d="M1136.47,1248.82q2.23,7.73,4.48,15.47c2.34,2.89,2.44,5.75-.12,8.58-10.28,0-20.55.11-30.83,0-7.84-.12-19.07,2-7.86-11.64,1-1.27-2.19-6.06-3.44-9.22l33.11-5.5Z" transform="translate(-954.97 -315)"/><path class="cls-120" d="M1377.92,1014.36c.15,10.83-5.4,14.29-15.85,13.89-18.85-.71-37.75-.39-56.63-.51-1.35-.86-1.79-1.72-1.34-2.57s.91-1.27,1.36-1.27l.1,0c16.26-4.51,32.85-.93,49.26-2,6.72-.44,14.16,1.51,18.2-6.4.11-3.5.86-6.67,4.29-8.48C1377.51,1009.45,1377.71,1011.91,1377.92,1014.36Z" transform="translate(-954.97 -315)"/><path class="cls-121" d="M1271.41,1058.28c-7-6.58-17.16,3.47-23.94-4.44-11.42,2.31-22.81,3.29-34.11-.64-2.53-.66-4.16-1.66-1.64-4.25l64.19.24c2,1.7,2.15,3.55.47,5.57Z" transform="translate(-954.97 -315)"/><path class="cls-122" d="M1276.38,1054.76c-.16-1.86-.31-3.72-.47-5.57.77-5.85-2.24-12.83,5-16.78C1279.6,1039.9,1289.84,1049.71,1276.38,1054.76Z" transform="translate(-954.97 -315)"/><path class="cls-123" d="M1309.2,972c14.7-11.37,27.26-17.21,41.07-21.4C1352.62,974.65,1352.62,974.65,1309.2,972Z" transform="translate(-954.97 -315)"/><path class="cls-124" d="M1377.07,791.85l-12.47,4.23c-1.35,2.1-2.69,2-4,0l-8.75-25.26c4.28-.91,11.34,2.23,12.18-3.91,2.29-16.59,10-9,17.39-4.8C1373.64,771.09,1386.91,783.15,1377.07,791.85Z" transform="translate(-954.97 -315)"/><path class="cls-125" d="M1373,1015.48c-1.37,10.2-9.29,8.28-15.88,8.34-17.19.15-34.39.06-51.58.06,0-1.41-.07-2.81-.07-4.22C1328,1017.63,1351,1024.18,1373,1015.48Z" transform="translate(-954.97 -315)"/><path class="cls-126" d="M1360.58,796.06l4,0-.39,39C1358.46,822.51,1361.66,809.09,1360.58,796.06Z" transform="translate(-954.97 -315)"/><path class="cls-126" d="M1364.85,851c7.88,11,2.65,23.24,3.52,34.91C1362.91,874.71,1365.05,862.74,1364.85,851Z" transform="translate(-954.97 -315)"/><path class="cls-127" d="M1558.82,534.58c.06,29.45.06,29.44-30.22,29.46q-77.86,0-155.73.11c-6.51-30.9-7.18-61.75.59-92.55,7.06-4.63,15-2.26,22.43-2.29q81.67-.35,163.37,0c6.79,0,14-2.09,20.37,2.24,7.79,11.78,4,24.81,4,37.43-10.85,3.86-27-12.65-33.29,8.71,2.1,2.19,6.63,3.23,3.69,7.79C1550,531.44,1558.83,530.71,1558.82,534.58Z" transform="translate(-954.97 -315)"/><path class="cls-128" d="M1634.15,542.33c-4.73,0-7.11-2.18-7.09-6.08,0-4.46,2.37-8,7-8.51,4.77-.5,7.79,2.54,7.63,7.25S1638,541.81,1634.15,542.33Z" transform="translate(-954.97 -315)"/><path class="cls-129" d="M1609.46,541.84c-4.83-1-7.59-3.89-6.71-8.54.64-3.35,3.31-6.16,7.28-5.66,4.68.59,7.41,3.81,6.58,8.38A7.07,7.07,0,0,1,1609.46,541.84Z" transform="translate(-954.97 -315)"/><path class="cls-130" d="M1586.36,528.53c3.53,1.11,5.64,3.42,5.8,7.18.17,4-2,6.53-5.82,6.52s-6-2.53-5.81-6.54C1580.72,531.93,1582.81,529.61,1586.36,528.53Z" transform="translate(-954.97 -315)"/><path class="cls-131" d="M1554.08,525.46l-3.69-7.79c3.88,1.64,9.77-6.17,11.8,1.64C1563.61,524.77,1558.44,525.49,1554.08,525.46Z" transform="translate(-954.97 -315)"/><path class="cls-132" d="M1373,585.09c56.76,0,113.54.57,170.29-.28,15.89-.23,20.24,4.82,20.15,20.35-.25,47.45.38,47.45-47.33,47.46q-54.66,0-109.32.09c-11.91-8.45-23.92-16.73-38.06-21.18C1371.08,616.14,1364,599.88,1373,585.09Z" transform="translate(-954.97 -315)"/><path class="cls-133" d="M1373.15,568.17c57,0,113.94-.08,170.91.24,6.22,0,17.08-3.77,17.12,6.16s-10.83,6.21-17,6.24c-57,.33-113.94.24-170.91.27,3.62-8.82,11.24-4.07,16.67-4.12,53.17-.43,106.35-.26,159.63-4.48h-56.46q-58.92,0-117.83-.05c-.61,0-1.63-.35-1.74-.75A18.4,18.4,0,0,1,1373.15,568.17Z" transform="translate(-954.97 -315)"/><path class="cls-134" d="M1579.63,471.53l-206.18.06c-2.09-4.09.73-4.58,3.6-4.58q99.43-.06,198.86,0a5.51,5.51,0,0,1,3.67,1.08C1580.17,468.69,1579.66,470.35,1579.63,471.53Z" transform="translate(-954.97 -315)"/><path class="cls-84" d="M1462.08,449.46c17.5-5,28.45-4.17,39.24.64C1490.16,454.6,1479.14,455.57,1462.08,449.46Z" transform="translate(-954.97 -315)"/><path class="cls-48" d="M1849.22,1128.91c12.79-4,32.65-.52,26.17-24.8-1.36-17.59,8.57-22.9,24.21-22.89,15.32,0,30.64.09,46-.24,11.09-.25,16.1-5.48,16.85-16.62,1.12-16.47-.44-31.88-11.88-44.89,2.76-20.45,16.22-29.51,35.08-32.87a27,27,0,0,1,15.91,7.62c11.32,16.49,5.81,35.23,6.64,53,1.19,25.71,3.4,28.38,29.21,29.74,10.19.53,21.57-1.63,27.82,10-.89,12-2.78,23.88-7.48,35.12-1.6-11.09-10.09-9.65-17.72-9.66q-71.55,0-143.11,0c-7.6,0-13.87-.54-17.91,9.71C1873.47,1136.16,1859.49,1127.53,1849.22,1128.91Z" transform="translate(-954.97 -315)"/><path class="cls-135" d="M2065.18,1087c-7.49-4.83-15.9-4.06-24.21-4.09-38.71-.14-38.29-.17-38.92-39.84-.25-16.39,3.92-33.33-4.15-49.12,6.7-16.22,20.9-19.06,36.06-20.24,11.94,12.44,25.41,21.57,43.69,21.55,3.29,0,5.91,3.25,5.61,7.38l-1.53,9.07c-4.64,9.29-13.65,8.74-21.92,9.53-8.12.77-13.15,4.25-13.53,13-.37,8.31.75,15.27,10.64,17.78,5.59,1.41,13.44.72,13.81,9.85Z" transform="translate(-954.97 -315)"/><path class="cls-136" d="M2070.73,1061.87a12.53,12.53,0,0,0-11.3-4.13c-13.62,1.44-19.61-2.67-20-18.12-.52-18.63,4.3-27.68,24.2-24.45a27.34,27.34,0,0,0,18.13-3.44Q2076.23,1036.81,2070.73,1061.87Z" transform="translate(-954.97 -315)"/><path class="cls-137" d="M2083.26,1002.67c-.53-.46-1-1.24-1.58-1.34-19.17-3.39-41.82.42-50.46-24.57,12.64-17.53,29.88-25.81,51.4-25.49q.08,6.88.17,13.78c-.33.74-.66,1.48-1,2.23a39.15,39.15,0,0,0-2,4.39,17.78,17.78,0,0,0,.49,11.5,19.81,19.81,0,0,0,2.87,3.65c1.12,1.09,2.17,2.24,3.18,3.43l.1,1.52Z" transform="translate(-954.97 -315)"/><path class="cls-138" d="M1263.26,631.5c-13.3,4.88-15.06-10.36-28.32-14,15.34-3.71,22.48,1.39,28.36,9.7,1.25,1,1.66,1.94,1.23,2.9S1263.68,631.5,1263.26,631.5Z" transform="translate(-954.97 -315)"/><path class="cls-139" d="M1225.24,597.81a20.08,20.08,0,0,1,.23-2,17.74,17.74,0,0,1,.66-1.94c5.2,4.45,7,13.81,4.17,15.73-5,3.44-11.91.49-13.34-7.57C1218.73,598.62,1222.93,600.1,1225.24,597.81Z" transform="translate(-954.97 -315)"/><path class="cls-140" d="M1288.55,644.4q-9-.25-12.66-8.46c-2.24-2.46-6.74-3.83-4.18-8.61,9.44-.87,11.18,8.53,16.88,12.64A3.19,3.19,0,0,1,1288.55,644.4Z" transform="translate(-954.97 -315)"/><path class="cls-141" d="M1288.55,644.4c0-1.48,0-2.95,0-4.43,9-3.48,7.1,4.18,8.54,8.4-.16,3.47-.88,6.65-4.3,8.47Q1290.69,650.62,1288.55,644.4Z" transform="translate(-954.97 -315)"/><path class="cls-142" d="M1271.71,627.33l4.19,8.6-12.64-4.43c0-1.44,0-2.88,0-4.33q3.32-4.53,6.62-9C1270.52,621.19,1271.11,624.26,1271.71,627.33Z" transform="translate(-954.97 -315)"/><path class="cls-143" d="M1225.24,597.81c-1.76,3.37-4.85,4.11-8.28,4.17-4.59-3.22-1.45-7.18.66-8.64C1221.85,590.39,1221.75,597.7,1225.24,597.81Z" transform="translate(-954.97 -315)"/><path class="cls-144" d="M1140.83,1272.87l.12-8.58c10.89,1.19,6.41,7.3,4.08,12.72l-4.22,0C1140.81,1275.66,1140.82,1274.26,1140.83,1272.87Z" transform="translate(-954.97 -315)"/><path class="cls-132" d="M1415.3,673.75c43.41,0,86.81-.09,130.22.1,5.88,0,13.3-2.54,16.59,5.23s-4,11-7.43,15.84c-2.2,9-4.13,18,4.14,25.36,8.21,15.23,4.06,21.42-13.59,21.12q-58.83-1-117.67.05c-13.12.24-18-4.56-16.48-17.05,1-10.91,10-8.51,16.52-9.65,7.18-1.24,15.19,1.24,21.09-5.12,7.54-8,17.89-6.7,27.37-8.22a31.46,31.46,0,0,0,7.06-3.09,27.68,27.68,0,0,0,3.68-3.34c-18.29-9.17-37.84-3.74-56.66-3.78C1415.64,691.17,1412.18,686.45,1415.3,673.75Z" transform="translate(-954.97 -315)"/><path class="cls-145" d="M1406.88,657l134.2-.22c2.8,0,5.59,0,8.39.08,5.18.1,11,1.27,11.23,7,.22,7.15-6.64,5.64-11.15,5.66-32.15.15-64.31.08-96.46.11-12.58,0-25.17.07-37.75.11Z" transform="translate(-954.97 -315)"/><path class="cls-146" d="M1482.9,703.59c-8.15,9-21.79-1.52-29.72,8.32-15.21,5.94-30.36,6.88-45.4-.61l-.51-7.92c1.31-.07,2.62-.17,3.93-.29a18.86,18.86,0,0,1,6.91-3.44C1439.72,700.76,1461.78,694.39,1482.9,703.59Z" transform="translate(-954.97 -315)"/><path class="cls-134" d="M1415.4,702.91c-1.4.13-2.8.19-4.21.18,1.3-10.39,9.4-8.14,15.86-8.18,19.92-.15,39.84,0,59.76.07a11.67,11.67,0,0,1,.08,4C1463.31,704.82,1439,697.52,1415.4,702.91Z" transform="translate(-954.97 -315)"/><path class="cls-147" d="M1229.43,1120.83c-16.11-.93-22.32,12.72-31.14,21.91-5.2,5.42-8.25,12.92-15.36,16.74-2.62-13.81,3.32-25.69,8.53-37.74,13.14-1.69,21.88-20.87,38.29-9.63C1231.9,1115.1,1232,1118,1229.43,1120.83Z" transform="translate(-954.97 -315)"/><path class="cls-148" d="M1183,1163.06c5.08,9.52-3.92,9.63-8.5,12.71C1168.8,1165.82,1172.88,1162.42,1183,1163.06Z" transform="translate(-954.97 -315)"/><path class="cls-149" d="M2243.61,740.89l7.18.05,4.82,2.46c-5.64,3.32-11.27,3.45-16.88-.08Z" transform="translate(-954.97 -315)"/><path class="cls-132" d="M2103.9,690.83l-.3,8.21c3,6.82,1,12.3-4.51,16.86-3.81,8.66-6.75,15.43-20,13.33-17.08-2.69-35-1.38-52.42-.46-16.48.87-23.76-7.84-24.07-22.24-.73-34.27-.43-68.57-.14-102.86.1-11.63,6.89-18.26,18.52-18.38,29.41-.3,58.83,0,88.25-.18,9.18-.06,13.62,4.25,16.32,12.89,4.95,15.84,5.06,31.17-1.32,46.51-5.66,1.82-13.1.34-15.47,8.3.76,3.18-1,5.38-2.94,7.51-3.67,5.19-1.7,14.5-11.28,15.37-7.8-1.22-16.73.46-21.65-8.27.19-7.82,6.77-11.92,10.43-17.72,6.88-10.87,3.83-20.41-4.72-28.21s-18.16-7.31-26.55.35c-9.12,8.33-13.22,18.14-5.15,29.76,3.55,5.11,10,8,11.48,14.7-4,10.65-13.95,6.92-21.35,8.94.19,0-.69,1.31-.69,1.31a12.17,12.17,0,0,0,1.72.26c17.71,0,35.32-1.78,52.63,1.26C2096.91,679.16,2108,677.94,2103.9,690.83Z" transform="translate(-954.97 -315)"/><path class="cls-150" d="M2103.9,690.83c-5.38-11-15.85-7.09-24.54-8.25-18.61-2.48-38.05,5-56.06-4.66,25.56-8.71,51.61-4.15,77.54-2.82a11.31,11.31,0,0,1,7.17,2.75c.4,1.51.8,3,1.19,4.54Z" transform="translate(-954.97 -315)"/><path class="cls-151" d="M2108,677.85a14.56,14.56,0,0,0-3.09-.27c-6.1-6.48-3.85-13.43-1.14-20.4l4.95-4.37C2110.14,661.2,2111,669.58,2108,677.85Z" transform="translate(-954.97 -315)"/><path class="cls-152" d="M2167.77,669.12a3.23,3.23,0,0,1,3.21.81c-5.09,5.88-11,3.27-16.89.48Z" transform="translate(-954.97 -315)"/><path class="cls-132" d="M1377.07,791.85c-.17-6,.72-11.7-3.86-17.27-9.22-11.23.16-11.74,8.19-12.49l17.49.4c48.33,0,96.65.31,145-.43,14.21-.22,19.47,3.64,19.55,18.75.24,49,.85,48.94-47.84,49q-58.82,0-117.65.2-3.95-4.41-7.88-8.81c-2.3-2.54-2.49-5.36-1.12-8.38,7.13-5.51,15-.6,22.42-1.45,7.81-.9,13.41-4.32,14.51-12.58,1.15-8.64-2.51-15.13-10.34-18.79-7.29-3.41-13.49-1.2-18.92,4.51-5.83,6.12-4.32,16.61-12.82,21-3.63,0-5.43-2.11-6.2-5.38Z" transform="translate(-954.97 -315)"/><path class="cls-153" d="M1407.32,745.19c45.68,0,91.36-.05,137,.33,6.15.05,17-3.78,16.8,6.43-.24,9.84-11,5.93-17.26,6-47.08.32-94.17.17-141.25.17Q1405,751.64,1407.32,745.19Z" transform="translate(-954.97 -315)"/><path class="cls-154" d="M1407.78,711.3l45.4.61c-1,11-9.52,7.64-16,8.55-8.73,1.24-18.36-3.44-26.15,3.94l-3.2.14Q1407.83,717.93,1407.78,711.3Z" transform="translate(-954.97 -315)"/><path class="cls-155" d="M2467.22,939.32c0,7.43-.18,14.85-4.73,21.28-7.41,2.64-14,8.94-23,3.61-10.95-6.53-11.11-16.39-3.89-23.58,5.64-5.63,4.21-16.5,14.27-18C2450.49,933.55,2464.86,930.21,2467.22,939.32Z" transform="translate(-954.97 -315)"/><path class="cls-11" d="M1035.28,416.5c-6.7-2.25-13.88-2.16-13.12-13.66,1.43-21.64.81-43.45.28-65.17-.28-11.44,5.12-14.27,15.38-14.2q63.15.45,126.3,0c10.87-.09,15.1,3.92,14.81,14.79-.51,18.92-1.45,38,.24,56.75,1.73,19.19-7.85,25.21-24.16,25.47-20.34.33-40.7,0-61-.09-3.17-4-1.42-7.77.27-11.74,6.41-15.08,1.92-35-9.44-45.17-6.23-5.57-8.3-.73-11,3.44-7.56,11.82-13.73,24.54-22.18,35.74C1047.36,408.32,1045.42,417.47,1035.28,416.5Z" transform="translate(-954.97 -315)"/><path class="cls-156" d="M1035.28,416.5c14.76-17.07,25.45-36.84,36.27-56.36,6.56-11.85,11.32-10.37,17.37-.64,4.81,7.72,8.69,16.11,14.1,23.36,12.3,16.51-6.74,24.89-9,37.51-1.28.05-2.55.12-3.83.21a148.11,148.11,0,0,1-54.89-.1C1035.29,419.15,1035.3,417.83,1035.28,416.5Z" transform="translate(-954.97 -315)"/><path class="cls-11" d="M1035.25,420.48l54.89.1C1071.83,427.45,1053.54,427.65,1035.25,420.48Z" transform="translate(-954.97 -315)"/><path class="cls-157" d="M1897.21,1403.15c4.41.64,9.41-.24,12.12,4.72C1901.82,1415.22,1899.78,1408.52,1897.21,1403.15Z" transform="translate(-954.97 -315)"/><path class="cls-158" d="M1567.89,1415.82l10.94-.43c4.85,6.4-1.75,5.21-3.83,4.78C1572.49,1419.64,1565.7,1424.29,1567.89,1415.82Z" transform="translate(-954.97 -315)"/><path class="cls-159" d="M2036.05,1403.77c-9.4,8.18-19.67,1.7-29.59-.36h29.11Z" transform="translate(-954.97 -315)"/><path class="cls-160" d="M1229.43,1120.83c.11-2.91.21-5.81.32-8.72,12.34,7.32,7.24-4.27,9.08-8.35,6.69,3.37,13.5-7.49,20.15.17-11.71.75-10.91,19.79-25,17.07Z" transform="translate(-954.97 -315)"/><path class="cls-161" d="M1204,1061.84c2.14-3.6,5.77-4.32,9.47-4.89l2.35.33c-3.17,10.21-4.29,21.6-15.68,27.06Q1202.11,1073.09,1204,1061.84Z" transform="translate(-954.97 -315)"/><path class="cls-2" d="M1215.85,1057.28a18.46,18.46,0,0,1-2.35-.33q-.06-1.87-.15-3.75l34.12.63-5.11,3.29Z" transform="translate(-954.97 -315)"/><path class="cls-132" d="M2205.27,399.35c-.24,4.27-.47,8.54-.72,12.8-3.89,1.4-7.77,3.84-11.69,3.92-4.6.1-11.42,5.58-13.28.3a43,43,0,0,1-1.13-23.84c2-7.73,9.69.13,14.54-1.88C2198.85,391.06,2202.7,394.3,2205.27,399.35Z" transform="translate(-954.97 -315)"/><path class="cls-84" d="M2154.26,416.41V391.06Q2163.86,403.74,2154.26,416.41Z" transform="translate(-954.97 -315)"/><path class="cls-127" d="M1780.64,677.93c-54.82,0-109.64-.65-164.44.36-18.88.35-24-6.53-23.92-24.55.34-60.15-.24-60.15,59.59-60.15,97,0,194,.53,290.94-.43,20.78-.2,26.37,6.83,26.07,26.73-.86,58-.13,58-57.53,58Z" transform="translate(-954.97 -315)"/><path class="cls-132" d="M1780.21,758.12c-55.58,0-111.16-.41-166.73.27-14.65.18-21.65-2.42-21.2-19.39,1.49-56-6.11-48.1,48.28-48.28,100.6-.32,201.21.38,301.8-.49,20.23-.18,27.13,5.8,26.54,26.31-1.19,41.55-.19,41.58-41,41.58Z" transform="translate(-954.97 -315)"/><path class="cls-132" d="M1728.43,842.39a7.44,7.44,0,0,1-1.31-3.52q.33-8.65.64-17.31c11.06-8.74,23.7-2.27,33.18-4.25-12.16-2.57-27.73,4-41.64-4.35l-8.67-8.29c4.23-4.93,10.08-4.28,15.6-4.29,39.94,0,79.88-.26,119.81.08-43.25-.41-86.51-.08-129.76-.18-11.85,0-23.72.15-35-4.41l-8.55-16.57c5.46-6.52,13-4.22,19.73-4.23,85.11-.14,170.21.39,255.31-.49,17.33-.18,21.39,5.67,21,21.77-1.26,52.64,5.61,45.86-46.24,46.06C1857.84,842.65,1793.13,842.42,1728.43,842.39Z" transform="translate(-954.97 -315)"/><path class="cls-127" d="M2101,749.58c3.77,18.17,16.59,16,28.13,10.7,14.55-6.68,13.21.64,11.21,10.27-4.65,0-7.59,1.88-8,6.79-8.93,25.8-16.95,52.15-42,68-14.16.52-28.72-5.93-42.37,2.43-3.91,7.56-2.56,15.34-1,23.06,4,6.24,14.43,4.66,16.48,13.32-12.49,22.64-26.88,43.28-53.65,50.88-10.37-2.11-7.42-10.47-7.44-16.87-.19-51,.13-102.06-.23-153.09-.12-16.8,7.07-24.3,23.95-24,24.48.45,49,.1,73.46.09C2101.85,743.68,2102.47,746.45,2101,749.58Z" transform="translate(-954.97 -315)"/><path class="cls-85" d="M1714.3,952.33q.15-3.89.29-7.74c.9-4.7,2.77-6.09,8.43-6,75,.65,150,.71,225,1,9.55,0,20.24-2.38,25.38,9.57,7.22,5.4,8.61,12.27,5.23,20.38-10.33,10.93-21.9,19.28-38,18-8.35-4.23-.81-13.74-6.31-18.88-12.7,2.83-12.7,2.83-2.5,18.45-1.21,8.93-8.49,12.13-15,16.1-2.17,1.06-4.36,2-6.6,2.88-35.3,5.56-70.83,1.42-106.23,2.56-14.6.47-29.23-.13-43.84.52-3.71-.1-7.59.6-10.7-2.29-8.34-5-15-11.4-18-20.9,9-8,20-2.24,28.44-4.19-10.61-2.3-23.9,4.45-35-4.89a6.88,6.88,0,0,1-1.53-3.26c1.31-12.21,11.15-8.39,17.7-8.5,32.87-.53,65.74-.23,98.61-.25-32.74,0-65.48.08-98.22-.09-7.55,0-15.54,1.6-22.15-4Z" transform="translate(-954.97 -315)"/><path class="cls-162" d="M1499.12,952.77c-12.25-10.38-24.52-20.73-33.65-34.17,4.83-6.09,12.59-5.3,18.88-8,12.56-5.3,15.39-15.35,13.42-27.42-1.83-11.23-9.34-17-20.34-17.36-12.29-.38-19.12,6.74-22,18.24-1.51,5.94-.86,12.7-6.25,17.25-19.81-20.15-36-43-49.53-67.69,47.82.07,95.66.76,143.46-.14,16-.3,20.9,4.8,20.14,20.43-1.15,23.83-1.21,47.81,0,71.63.91,18.08-6.55,23-23.54,22.78C1526.24,948.2,1511.67,943.08,1499.12,952.77Z" transform="translate(-954.97 -315)"/><path class="cls-163" d="M1975.7,967.65c2.73-6.62-.45-12.49-2.35-18.53,9.23-12.25,25.73-5.65,36.45-14,20-14.07,35.12-33.09,51.43-50.9,5.78-16.86,16.09-30.39,30.31-41,17.36-19.6,26.46-44.32,40.81-65.79-2.29,62-20.73,119.49-49.73,173.92-18.52,5.71-34.51,16.52-51.4,25.5-11.59,4.8-23.32,9.33-33.32,17.21-5.28,1.35-9-1.25-12.25-4.9C1978.47,983.73,1973.17,977.5,1975.7,967.65Z" transform="translate(-954.97 -315)"/><path class="cls-164" d="M1520.34,977.72c.64-11.81-12.89-12.65-16.45-21.21,18.89-9.46,39.36-1.27,58.78-5.2,3.79-.76,4.61,3,4.35,5.47-1.73,16.78,5.12,34.29-4.22,50.42C1545.4,1002,1531.39,992,1520.34,977.72Z" transform="translate(-954.97 -315)"/><path class="cls-165" d="M1630.31,902.22c-1,8.61-4.45,15.83-12.08,20.57-8.25-2.06-18.75,4.53-24.72-6-3.29-5.83-1-55.3,3-57.72,11.18-6.79,22.68-5,34,.33q2.1,8.43,4.19,16.86c-3.15,4.06-8.23,4.62-14,6.59,7.44,1.37,13.76,1.11,18.37,5.86l-4.32,5.16a18,18,0,0,1-3.58,2.14c-3,1.34-6.18,1.29-9.35,1.32C1624.87,898.46,1628.58,898.62,1630.31,902.22Z" transform="translate(-954.97 -315)"/><path class="cls-132" d="M1626.53,779.29c-5.48,10.54-15.86,20.39-4.65,33.26-1.05,6.77,6,5.57,8.61,8.73,12.31,6.94,4,14.12.25,21.25-5.58,0-11.22-.54-16.74,0-16.72,1.76-23-5.91-21.47-22,.65-6.91.06-13.93.11-20.91C1592.82,774,1600.35,769.48,1626.53,779.29Z" transform="translate(-954.97 -315)"/><path class="cls-166" d="M1728.52,889q0-21.06,0-42.11l3.79,8.4c-2.63,15.83,2.51,22.44,20,21.68,32.14-1.41,64.39-.79,96.58-.11,7.21.15,20.36-5.37,20.48,6.27.11,9.39-12.61,5.16-19.54,5.26C1809.38,888.9,1769,888.82,1728.52,889Z" transform="translate(-954.97 -315)"/><path class="cls-167" d="M2101,749.58l-1.47-8.37-.45-25.31q2.25-8.43,4.51-16.86h4.24a128.18,128.18,0,0,1-.07,50.62Z" transform="translate(-954.97 -315)"/><path class="cls-133" d="M1558.82,720.28c-13.5-6.48-13.62-15.14-4.14-25.36C1561.85,702.43,1554.47,712.31,1558.82,720.28Z" transform="translate(-954.97 -315)"/><ellipse class="cls-119" cx="1013.08" cy="803.69" rx="112.57" ry="1.16"/><path class="cls-132" d="M1951.53,1016.13c2.44,8.74,16.92,5.35,16.81,16.58-.17,16.11.23,32.27-1,48.31-.58,7.46-8.39,6-13.74,6.08-16.85.2-33.81,1.25-50.53-.26-14.67-1.32-23.31,3.72-27.68,17.27-2.94-17.8-11-35.17-4.72-53.78,2.72-4.95,7.59-5.86,12.5-6.69a75.86,75.86,0,0,1,30.83,3c7,1,7.67,8.51,12.12,12.13,3.53,1,8.63,1.57,8.62-2.49,0-8.13-8.47-4.88-12.9-7.33a51.07,51.07,0,0,0-5.76-2.15c-14.4-3.34-16.46-11.17-8.35-22.75a87.5,87.5,0,0,1,11.23-12.41c6.44-6.92,13.93-10.87,23.7-8.27C1948.69,1005.5,1951.56,1009.81,1951.53,1016.13Z" transform="translate(-954.97 -315)"/><path class="cls-50" d="M1749.35,1006.82l8,.19c51.07-3,102.12-4.24,153.13.72,6,3.85,3.68,7.34-.2,11.25-9.17,9.25-20.94,12.09-33.15,14a23,23,0,0,1-13.82-2.47l-55.34,1.9c-2.62,2-5.1,2.75-7.08-.83C1782.8,1025.19,1763.11,1022.16,1749.35,1006.82Z" transform="translate(-954.97 -315)"/><path class="cls-53" d="M1719.1,960.77H1873c-8.19,10.49-14.88,8.27-20.53,8.3-35.85.22-71.71-.07-107.56.23-7.35.06-15.66-2.95-21.74,4.28l-1.93-.18-1.94.07Q1719.2,967.13,1719.1,960.77Z" transform="translate(-954.97 -315)"/><path class="cls-168" d="M1724.69,976.84h59.47c.12,3,.25,6,.37,9.08H1731.3C1727.42,984.11,1725.47,980.89,1724.69,976.84Z" transform="translate(-954.97 -315)"/><path class="cls-169" d="M1863.28,1030.55l12.27-1.18c4.74,5.36,8.24,11.27,8.16,18.73l-13,2.22A27.7,27.7,0,0,1,1863.28,1030.55Z" transform="translate(-954.97 -315)"/><path class="cls-170" d="M1800.86,1031.62l7.08.83c-4.6,6-10.65,3.51-17.37,3.94C1793.26,1030.4,1797.9,1033.19,1800.86,1031.62Z" transform="translate(-954.97 -315)"/><path class="cls-171" d="M1722.55,904.55l5.44-11.43c14.67.1,29.34.16,44,.34,4.86.06,11.59-.29,11.86,5.64.27,6.09-6.39,6.21-11.23,6.18C1755.93,905.15,1739.24,904.81,1722.55,904.55Z" transform="translate(-954.97 -315)"/><path class="cls-172" d="M1919.78,890.89c-2.52-8.41.31-14.25,9.29-13.89,7.47.3,12.92,5.74,13.43,13.34.71,10.57-8.47,11.6-15.62,12.61C1916.55,904.42,1918.41,897.14,1919.78,890.89Z" transform="translate(-954.97 -315)"/><path class="cls-173" d="M1550.87,1252c-.36-3.49.12-6.66,3.3-8.82,3.55,1.79,5.44,4.83,3.83,8.43S1553.32,1252.35,1550.87,1252Z" transform="translate(-954.97 -315)"/><path class="cls-133" d="M1681.29,795.87h187.6q0,4.41,0,8.8H1710.64c-9.83-1.75-19.66-3.49-29.46-5.33-.36-.06-.76-1.09-.73-1.65A5.41,5.41,0,0,1,1681.29,795.87Z" transform="translate(-954.97 -315)"/><path class="cls-99" d="M1719.3,813h65c0,2,0,4,0,6-18.46,5.33-37.69,1.05-56.46,2.63Z" transform="translate(-954.97 -315)"/><path class="cls-174" d="M1639,888.66a23.61,23.61,0,0,1-4.21-.09c-7.67-1.54-21.44,4.07-21.52-6-.07-10.23,13.84-4.36,21.39-6.38Z" transform="translate(-954.97 -315)"/><path class="cls-175" d="M1630.31,902.22c-5.79-1.31-12.35,1.86-17.94-3.14,5.81-9.26,14.75-4.49,22.32-5.26A9,9,0,0,1,1630.31,902.22Z" transform="translate(-954.97 -315)"/><path class="cls-176" d="M1677.05,855.22q-6.1,8.31-12.22,16.6C1658.8,858.86,1660.19,851.36,1677.05,855.22Z" transform="translate(-954.97 -315)"/><path class="cls-43" d="M1630.49,821.28c-3.49,0-7,.31-10.46.08-3.26-.22-8.35.5-8-4.18.37-5.72,6.16-3.86,9.9-4.63Z" transform="translate(-954.97 -315)"/><path class="cls-177" d="M1723.87,837.5c-.59,1.89-1.41,5.46-1.74,5.41-4.75-.65-4.76-5.46-6.93-8.48C1719.37,831.84,1723.21,830.19,1723.87,837.5Z" transform="translate(-954.97 -315)"/><path class="cls-57" d="M2336.38,1049.33q8.73,12.56-.06,25.06Z" transform="translate(-954.97 -315)"/><path class="cls-57" d="M2344.75,1076.68c5.62-10.22,12.92-7.55,20.52-2.67C2358.25,1073.57,2351.07,1071.87,2344.75,1076.68Z" transform="translate(-954.97 -315)"/><path class="cls-178" d="M2086.4,990.25l-1.82.16-1.62-.84c-6.7-8.12-5.62-16.53-.93-25.08l.76.56C2089.93,972.6,2085.55,981.8,2086.4,990.25Z" transform="translate(-954.97 -315)"/><path class="cls-179" d="M2107.77,749.67q0-25.3.07-50.62C2114.49,715.93,2114.6,732.81,2107.77,749.67Z" transform="translate(-954.97 -315)"/><path class="cls-132" d="M1449.13,901.36c-1.44-18.38-.57-36.24,21.85-41.14,14.35-3.14,27.78,2.5,31.87,16.94,4,14,4.37,29.28-12.87,37.75-8,4-16.28,3-24.51,3.69A55.46,55.46,0,0,1,1449.13,901.36Z" transform="translate(-954.97 -315)"/><path class="cls-124" d="M1390.33,879.72c-5.51,14.19-11.3-3.08-16.91.15,2.34-9.69-7.64-22.57,7.51-28.94C1388.64,859,1386.09,870.48,1390.33,879.72Z" transform="translate(-954.97 -315)"/><path class="cls-180" d="M1390,813v8.19q-3.46,12.48-6.92,25a14.62,14.62,0,0,0-1.42-3.67c-6-10.93-14.5-22,2-31.48A8.26,8.26,0,0,1,1390,813Z" transform="translate(-954.97 -315)"/><path class="cls-181" d="M1385.58,812.29c-16.75,8.08,1.26,20.63-3.88,30.2-3.54-.08-6.78-.79-8.66-4.24a47.08,47.08,0,0,1-.06-29.43c.13-3.63,1-6.86,4.58-8.66l4,4.29C1384.39,806.27,1387.4,808,1385.58,812.29Z" transform="translate(-954.97 -315)"/><path class="cls-126" d="M1373,808.82l.06,29.43C1366.42,828.45,1366.47,818.64,1373,808.82Z" transform="translate(-954.97 -315)"/><path class="cls-182" d="M1305.46,1023.9c0,1.28,0,2.57,0,3.85H1289.1l-.21-3Z" transform="translate(-954.97 -315)"/><path class="cls-11" d="M1435.34,513.6c-13.32,0-26.64.09-40,0-3.58,0-7.46-.85-7.54-5.32a6.69,6.69,0,0,1,6.75-6.71q43.07-.41,86.14.06c1.85,0,5.07,3.32,5.21,5.28.4,5.53-4.19,6.6-8.53,6.64C1463.39,513.68,1449.37,513.59,1435.34,513.6Z" transform="translate(-954.97 -315)"/><path class="cls-11" d="M1421.14,525.08c9.71,5.13,28.76-7.51,29.49,7.85.52,11.1-18.93,5.55-29,5.21-11.29-.39-31.07,7.6-31.91-7.21C1389.11,520.4,1410,528.93,1421.14,525.08Z" transform="translate(-954.97 -315)"/><path class="cls-183" d="M1432.47,623.8c.28,10.56-9.48,17.65-22.51,17.64s-23.26-7.62-23.63-22c-.4-15.7,11.38-23.53,24.39-23.81C1423.58,595.39,1432.51,604.4,1432.47,623.8Z" transform="translate(-954.97 -315)"/><ellipse class="cls-184" cx="540.68" cy="295.32" rx="67.71" ry="3.06"/><path class="cls-166" d="M1447.37,625.11h62.36c.1,1.24.21,2.47.31,3.71h-62.53C1447.46,627.58,1447.41,626.35,1447.37,625.11Z" transform="translate(-954.97 -315)"/><path class="cls-185" d="M1951.53,1016.13c-5.45-.57-4.67-7-8.58-9-7.22-7.85-21.68,6.61-26.51-8.59,3.18-5.89,12.49-4.86,14.11-12.49a6.65,6.65,0,0,1,4.1-2.47,7.92,7.92,0,0,1,4.5,1.78c13.86-2.44,25.84-8.75,36.56-17.66q5,10.71,9.94,21.43C1970.2,993,1961.4,1005.23,1951.53,1016.13Z" transform="translate(-954.97 -315)"/><path class="cls-186" d="M2082,964.49l.93,25.08a9.81,9.81,0,0,1-3.32.42c-6-8.18-4.49-16.62-.86-25.12C2079.87,964.79,2081,964.66,2082,964.49Z" transform="translate(-954.97 -315)"/><path class="cls-187" d="M2078.78,964.87q.42,12.55.85,25.12C2070.89,981.9,2071.82,973.49,2078.78,964.87Z" transform="translate(-954.97 -315)"/><path class="cls-188" d="M1415.4,702.91c23.44-8.38,47.71-1.68,71.49-3.89l-4,4.57Z" transform="translate(-954.97 -315)"/><path class="cls-6" d="M2056.92,665.62c-22-13.26-26.24-27-13.47-43.56,10.31-13.39,26.35-15.85,38.4-5.88,13.46,11.14,15,27.05,3.54,40.06-3.18,3.6-7.44,6.24-11.2,9.31C2068.45,670.34,2062.69,670.4,2056.92,665.62Z" transform="translate(-954.97 -315)"/><path class="cls-189" d="M2064.31,703.58c-8.31-3.71-23.87,5.35-24.39-7.21-.38-9.27,15.27-5.29,23.57-5,9.71.33,27.41-5.19,27.4,5.17C2090.88,708.77,2073.6,700,2064.31,703.58Z" transform="translate(-954.97 -315)"/><path class="cls-190" d="M2103.78,657.18c-1.9,6.93-.84,13.69,1.14,20.4l-81.62.34q2.17-2.22,4.36-4.43c22.47-3.07,44.94-5,67.41,0C2102.22,670.32,2096,660,2103.78,657.18Z" transform="translate(-954.97 -315)"/><path class="cls-191" d="M2095.07,673.5h-67.41c8-9.09,21.23,1.13,29.26-7.87l17.27-.07C2079.24,673.21,2090,665.83,2095.07,673.5Z" transform="translate(-954.97 -315)"/><path class="cls-183" d="M1385.58,812.29l-4.07-7.84c6.27-3.34,3.43-10.09,5.6-15,5.28-11.94,13.07-20.64,27.3-16.63s20.6,14.36,17.44,29c-3.27,15.11-14.89,17-27.74,15.13-4.78-.68-9.39-2.59-14.07-3.94Z" transform="translate(-954.97 -315)"/><path class="cls-192" d="M1445,800.61l4-8.64c31-7,62-7.32,93,.19-8.12,9-21.54-1.32-29.57,8.05C1490,807.17,1467.52,806.64,1445,800.61Z" transform="translate(-954.97 -315)"/><path class="cls-76" d="M1445,800.61l67.42-.4c-.41,4.57-2.13,8.38-7.31,8.43-17.45.2-34.91.18-52.36.09C1447.64,808.7,1445.63,805.19,1445,800.61Z" transform="translate(-954.97 -315)"/><path class="cls-68" d="M1542,792.16l-93-.19c-3.87-2.86-4.72-5.72,0-8.59,24,4.76,48.25.87,72.34,2.27,8.2.47,16.64-1.95,24.58,1.9Z" transform="translate(-954.97 -315)"/><path class="cls-193" d="M1546,787.55c-25.78,0-51.57.2-77.36,0-6.68-.06-14.14,2.31-19.56-4.16,26.56-.11,53.12-.34,79.68-.24C1534.68,783.17,1541.54,780.94,1546,787.55Z" transform="translate(-954.97 -315)"/><path class="cls-191" d="M1148.68,337.32c9.28,1.6,15.94,6.74,15.77,16.27-.16,8.41-6.37,14.77-14.73,14.74-8.61,0-16.47-4.29-17-14.71C1132.29,342.94,1140.4,340,1148.68,337.32Z" transform="translate(-954.97 -315)"/><path class="cls-166" d="M1742.41,631.43c-37.91,0-75.83.07-113.74-.1-5.94,0-15.46,2.2-15.77-5.79-.33-8.4,9.2-6.41,15.07-6.42q113.74-.2,227.48.07c5.51,0,15.2-2.91,14.4,6.67-.7,8.49-10.07,5.4-15.81,5.44C1816.83,631.57,1779.62,631.44,1742.41,631.43Z" transform="translate(-954.97 -315)"/><path class="cls-184" d="M1697.33,640c24.53,0,49.06-.06,73.58.06,5.4,0,13-.77,12.82,6.76-.11,5.89-7.11,5.52-12,5.53q-73.58.08-147.16,0c-5.55,0-13.18-.13-12.57-7.39.67-7.9,8.88-4.71,13.81-4.78C1649.68,639.84,1673.51,640,1697.33,640Z" transform="translate(-954.97 -315)"/><path class="cls-194" d="M1929.44,623.09c8.76.51,13.51,4.63,13.32,12.95s-5.15,12.48-13.31,12.2c-7.28-.26-11.36-4.5-11.66-11.75C1917.44,628.19,1921.87,623.88,1929.44,623.09Z" transform="translate(-954.97 -315)"/><path class="cls-166" d="M1742.34,711.93c37.21,0,74.41-.17,111.61.19,5.42.06,15.28-3.69,15,5.56-.21,7.36-9.65,6.21-15.81,6.25-66.6.43-133.08-5.88-199.71-3.4-9.79.37-19.62.38-29.36,1.32-4.95.47-11.26,2.79-11.35-4.2-.07-6,6.88-5.65,11.68-5.66q53.7-.12,107.4-.06Z" transform="translate(-954.97 -315)"/><path class="cls-195" d="M1783.35,736.07H1613.21l-.08-4.24H1783C1783.1,733.24,1783.23,734.66,1783.35,736.07Z" transform="translate(-954.97 -315)"/><path class="cls-38" d="M1939.24,732.92c-5.06,9.79-12.22,8.58-18.78,2.48-7-6.5-6.17-13.55,1.55-19.48a8.56,8.56,0,0,1,6,4.42,15.76,15.76,0,0,0,7.9,8.94A10.14,10.14,0,0,1,1939.24,732.92Z" transform="translate(-954.97 -315)"/><path class="cls-53" d="M1939.24,732.92l-4.92-.26c-3.92-3.38-4.89-8.66-8.07-12.52q-2.13-2.1-4.24-4.22C1938.94,712,1942.74,715.73,1939.24,732.92Z" transform="translate(-954.97 -315)"/><path class="cls-162" d="M1942.91,807.75c-.6,9.32-5.19,13.73-13.63,13.31-7.48-.37-11.39-4.9-11.46-12.35s3.8-12,11.29-12.48C1937.6,795.68,1942.06,800.2,1942.91,807.75Z" transform="translate(-954.97 -315)"/><path class="cls-99" d="M2086.66,779.26c8.69,10.42,3.1,22.57,3.91,33.92a7.12,7.12,0,0,1-7.85,7.87c-14.09-1.12-28.93,5.13-42.23-4,5.64-10.82-4.35-26.18,5.56-33.46,9.11-6.68,23-1.32,34.83-2.21A13,13,0,0,0,2086.66,779.26Z" transform="translate(-954.97 -315)"/><path class="cls-196" d="M2091.54,843.14c-7.88,15.31-19,28.24-30.32,41-4.9-7.57-16.17.77-20.5-8.21a68.4,68.4,0,0,0,0-33.22C2057.74,835.15,2074.67,835.42,2091.54,843.14Z" transform="translate(-954.97 -315)"/><path class="cls-134" d="M2086.66,779.26c-1,.9-2.14,2.69-3,2.58-26.56-3.1-43.58,5.29-43.13,35.17C2040.08,772.55,2032.66,778.86,2086.66,779.26Z" transform="translate(-954.97 -315)"/><path class="cls-197" d="M2040.75,842.75c5.88,11.08,5.93,22.16,0,33.22Q2040.74,859.37,2040.75,842.75Z" transform="translate(-954.97 -315)"/><path class="cls-132" d="M1913.56,1011.23c-30.15-8.35-60.94-2.92-91.42-4.06-21.58-.81-43.21-.16-64.82-.16,6.22-6.9,14.46-4,21.84-4.09,36.5-.28,73-.14,109.5-.12,8.4,0,16.91.78,24.48-4.11,3.26,3.54,6.32,7.17,5.43,12.51A3.7,3.7,0,0,1,1913.56,1011.23Z" transform="translate(-954.97 -315)"/><path class="cls-198" d="M1934.58,985.33a26.27,26.27,0,0,1-4,.67c-11.85-1.11-15.77-8.61-11.4-18.3,4-8.89,11.91-10.25,19.72-2.86C1939,972,1934.84,978.26,1934.58,985.33Z" transform="translate(-954.97 -315)"/><path class="cls-50" d="M1917.71,1010.36l-4.56-11.67a10.09,10.09,0,0,1,3.29-.2c6.13,11.19,20-1.37,26.51,8.59-8.29-1-15.49.67-20.11,8.44C1919.74,1015.18,1918,1013.5,1917.71,1010.36Z" transform="translate(-954.97 -315)"/><path class="cls-16" d="M1934.58,985.33c-5.65-8.31-2.31-14.74,4.29-20.49,9,6.7-.09,13.65.28,20.47Z" transform="translate(-954.97 -315)"/><path class="cls-199" d="M1917.71,1010.36l5.13,5.16c-4.14,9.64-28.21,15.33-6,30.18.17.7.33,1.4.5,2.1-11.19,3.09-22.42,2.26-33.65.3-7.21-4.29-9.24-10.84-8.16-18.73l38-18.14Z" transform="translate(-954.97 -315)"/><path class="cls-46" d="M1922.13,1045.29c8.7-.23,20.11-2.59,20.11,10.29s-11.7,10.19-20.22,10.46C1921.75,1059.12,1922.6,1052.21,1922.13,1045.29Z" transform="translate(-954.97 -315)"/><path class="cls-46" d="M1922.13,1045.29c11.84,7,4.24,13.85-.11,20.75-7-4.69-3.75-12-4.66-18.23a1.65,1.65,0,0,1-.5-2.11Z" transform="translate(-954.97 -315)"/><path class="cls-200" d="M1926.25,720.14c8.6.37,8.7,6.21,8.07,12.52C1926,732.11,1921.68,729,1926.25,720.14Z" transform="translate(-954.97 -315)"/></svg>