<svg id="Layer_1" data-name="Layer 1" xmlns="http://www.w3.org/2000/svg" xmlns:xlink="http://www.w3.org/1999/xlink" viewBox="0 0 1758.07 1498.88"><defs><style>.cls-1{fill:none;}.cls-2{opacity:0.55;}.cls-3{fill:#545452;}.cls-4{opacity:0.1;}.cls-5{fill:#1b3232;}.cls-6{fill:#233939;}.cls-7{fill:#fff;}.cls-8{fill:#45bbc6;}.cls-9{fill:#e6efc1;}.cls-10{fill:#1b5b56;}.cls-11{fill:#f9ed32;}.cls-12{clip-path:url(#clip-path);}.cls-13{fill:#878e95;}.cls-14{fill:#868d94;}.cls-15{fill:#858c93;}.cls-16{fill:#848b92;}.cls-17{fill:#838a92;}.cls-18{fill:#828991;}.cls-19{fill:#818890;}.cls-20{fill:#80878f;}.cls-21{fill:#7f868e;}.cls-22{fill:#7e858d;}.cls-23{fill:#7d848c;}.cls-24{fill:#7c848b;}.cls-25{fill:#7b838a;}.cls-26{fill:#7a828a;}.cls-27{fill:#798189;}.cls-28{fill:#788088;}.cls-29{fill:#777f87;}.cls-30{fill:#767e86;}.cls-31{fill:#757d85;}.cls-32{fill:#747c84;}.cls-33{fill:#737b83;}.cls-34{fill:#727a82;}.cls-35{fill:#717982;}.cls-36{fill:#707881;}.cls-37{fill:#6f7780;}.cls-38{fill:#6e767f;}.cls-39{fill:#6d757e;}.cls-40{fill:#6c747d;}.cls-41{fill:#6b737c;}.cls-42{fill:#6a727b;}.cls-43{fill:#69717a;}.cls-44{fill:#68717a;}.cls-45{fill:#677079;}.cls-46{fill:#666f78;}.cls-47{fill:#656e77;}.cls-48{fill:#646d76;}.cls-49{fill:#636c75;}.cls-50{fill:#626b74;}.cls-51{fill:#223939;}.cls-52{fill:#f7a708;}.cls-53{fill:#193030;}.cls-54{opacity:0.2;}.cls-55{clip-path:url(#clip-path-39);}.cls-56{fill:#faf6f3;}.cls-57{fill:#f9f5f2;}.cls-58{fill:#f9f5f1;}.cls-59{fill:#f9f4f0;}.cls-60{fill:#f8f3ef;}.cls-61{fill:#f8f2ee;}.cls-62{fill:#f7f2ed;}.cls-63{fill:#f7f1ec;}.cls-64{fill:#f6f0eb;}.cls-65{fill:#f6f0ea;}.cls-66{fill:#f5efe9;}.cls-67{fill:#f5eee8;}.cls-68{fill:#f5ede7;}.cls-69{fill:#f4ede6;}.cls-70{fill:#f4ece5;}.cls-71{fill:#f3ebe4;}.cls-72{fill:#f3eae3;}.cls-73{fill:#f2eae2;}.cls-74{fill:#f2e9e1;}.cls-75{fill:#f2e8e0;}.cls-76{fill:#f1e7df;}.cls-77{fill:#f1e7de;}.cls-78{fill:#f0e6dd;}.cls-79{fill:#f0e5dc;}.cls-80{fill:#efe4db;}.cls-81{fill:#efe4da;}.cls-82{fill:#efe3d9;}.cls-83{fill:#eee2d8;}.cls-84{fill:#eee2d7;}.cls-85{fill:#ede1d6;}.cls-86{fill:#ede0d5;}.cls-87{fill:#ecdfd4;}.cls-88{fill:#ecdfd3;}.cls-89{fill:#ecded2;}.cls-90{fill:#ebddd1;}.cls-91{fill:#ebdcd0;}.cls-92{fill:#eadccf;}.cls-93{fill:#eadbce;}.cls-94{fill:#e9dacd;}.cls-95{fill:#e9d9cc;}.cls-96{fill:#e9d9cb;}.cls-97{fill:#e8d8ca;}.cls-98{fill:#e8d7c9;}.cls-99{fill:#e7d6c8;}.cls-100{fill:#e7d6c7;}.cls-101{fill:#e6d5c6;}.cls-102{fill:#e6d4c5;}.cls-103{fill:#e6d4c4;}.cls-104{fill:#e5d3c2;}.cls-105{fill:#e5d2c1;}.cls-106{fill:#e4d1c0;}.cls-107{fill:#e4d1bf;}.cls-108{fill:#e3d0be;}.cls-109{fill:#e3cfbd;}.cls-110{fill:#e2cebc;}.cls-111{fill:#e2cebb;}.cls-112{fill:#e2cdba;}.cls-113{fill:#e1ccb9;}.cls-114{fill:#e1cbb8;}.cls-115{fill:#e0cbb7;}.cls-116{fill:#e0cab6;}.cls-117{fill:#dfc9b5;}.cls-118{fill:#dfc8b4;}.cls-119{fill:#dfc8b3;}.cls-120{fill:#dec7b2;}.cls-121{fill:#dec6b1;}.cls-122{fill:#ddc5b0;}.cls-123{fill:#ddc5af;}.cls-124{fill:#dcc4ae;}.cls-125{fill:#dcc3ad;}.cls-126{fill:#dcc3ac;}.cls-127{fill:#dbc2ab;}.cls-128{fill:#dbc1aa;}.cls-129{fill:#dac0a9;}.cls-130{fill:#dac0a8;}.cls-131{fill:#d9bfa7;}.cls-132{fill:#d9bea6;}.cls-133{fill:#d9bda5;}.cls-134{fill:#d8bda4;}.cls-135{fill:#d8bca3;}.cls-136{fill:#d7bba2;}.cls-137{fill:#d7baa1;}.cls-138{fill:#d6baa0;}.cls-139{fill:#d6b99f;}.cls-140{fill:#d6b89e;}.cls-141{fill:#d5b79d;}.cls-142{fill:#d5b79c;}.cls-143{fill:#d4b69b;}.cls-144{fill:#d4b59a;}.cls-145{fill:#d3b599;}.cls-146{fill:#d3b498;}.cls-147{fill:#d2b397;}.cls-148{fill:#d2b296;}.cls-149{fill:#d2b295;}.cls-150{fill:#d1b194;}.cls-151{fill:#d1b093;}.cls-152{fill:#d0af92;}.cls-153{fill:#d0af91;}.cls-154{fill:#cfae90;}.cls-155{fill:#cfad8f;}.cls-156{fill:#cfac8e;}.cls-157{fill:#ceac8d;}.cls-158{fill:#ceab8c;}.cls-159{fill:#cdaa8b;}.cls-160{fill:#cda98a;}.cls-161{fill:#cca989;}.cls-162{fill:#cca888;}.cls-163,.cls-169{fill:#85d9ed;}.cls-163,.cls-164,.cls-165,.cls-166,.cls-170{fill-rule:evenodd;}.cls-164{fill:#85d98d;}.cls-165{fill:#ffe4e7;}.cls-166{fill:#ee6a55;}.cls-167{fill:#54636a;}.cls-168,.cls-170{fill:#1baab8;}.cls-171{fill:#e9f6f8;}.cls-172{fill:#c4e8ed;}.cls-173{fill:#916d4d;}.cls-174{fill:#98b600;}.cls-175{fill:#779507;}.cls-176{fill:#94736a;}.cls-177{opacity:0.6;}.cls-178{opacity:0.8;}.cls-179{fill:#eff0f0;}.cls-180{fill:#603913;}.cls-181{fill:#532800;}.cls-182{fill:url(#radial-gradient);}.cls-183{fill:#ff8c10;}.cls-184{fill:#ffb31e;}.cls-185{fill:#ff9400;}.cls-186{fill:#e2e4e4;}.cls-187{fill:#f86b00;}.cls-188{fill:#c3e3e9;}.cls-189{fill:#b7d967;}.cls-190{fill:#7ca1b2;}</style><clipPath id="clip-path" transform="translate(-401.24 -50.29)"><rect class="cls-1" x="541.88" y="257.74" width="4.52" height="67.31"/></clipPath><clipPath id="clip-path-39" transform="translate(-401.24 -50.29)"><polygon class="cls-1" points="1966.92 682.19 2129.67 936.36 2126.66 680.18 1966.92 682.19"/></clipPath><radialGradient id="radial-gradient" cx="4070.02" cy="3576.41" r="128.25" gradientTransform="matrix(0.54, 0.35, 0.55, -0.84, -3503.39, 2884.98)" gradientUnits="userSpaceOnUse"><stop offset="0" stop-color="#f96e1a"/><stop offset="1" stop-color="#ef610e"/></radialGradient></defs><g class="cls-2"><path class="cls-3" d="M651.38,912.75l-7.53-3.52a232.17,232.17,0,0,1,20.59-37.67l7,4.52A221.18,221.18,0,0,0,651.38,912.75Zm45.21-69.32-6.53-5.53c8.54-10,18.08-19.58,29.13-30.64l6,6C714.67,824.34,705.13,833.89,696.59,843.43Zm59.78-58.27-5.53-6.53c10-9,21.1-18.58,31.65-27.62l5.52,6.53C777.46,766.58,766.91,775.62,756.37,785.16Zm63.79-55.25-5.53-6.53c10.55-9,21.1-18.59,31.15-28.13l5.52,6C840.75,711.32,830.2,720.37,820.16,729.91Zm61.78-57.26-6-6c10.55-10.55,20.1-20.09,29.14-30.14l6,5.53C902,652.05,892.49,662.1,881.94,672.65Zm974.47-60.78-7.53-4A372.72,372.72,0,0,0,1868,570.68l7.53,3.51A376.26,376.26,0,0,1,1856.41,611.87ZM938.7,609.36l-6.53-5c8.54-11.05,17.08-22.6,24.62-33.65l7,4.52C955.78,586.75,947.74,598.31,938.7,609.36ZM602.16,579.22h-3v-8.54h3c12.56,0,25.62-.5,38.68-1.51l.5,8.54Q621,579.23,602.16,579.22ZM557,576.71a305.86,305.86,0,0,1-41.69-8.54l2.51-8a304.84,304.84,0,0,0,40.69,8.54Zm127.08-4-1-8.54c13.06-2,27.12-4.52,41.19-7l1.5,8A349.64,349.64,0,0,1,684,572.69Zm82.88-16.58-2-8c4.53-1,9.05-2.51,13.57-3.51a121.33,121.33,0,0,0,24.61-10l4,7.54c-9,5-18.08,9-26.62,11.05Zm-291.33-5A148,148,0,0,1,441.92,524l6-5.52a131.39,131.39,0,0,0,31.65,25.62Zm509.84-12.56-7.54-4c6.53-12.56,12.56-25.11,17.58-37.67l8,3A299.33,299.33,0,0,1,985.42,538.53ZM1892.08,535l-8-3a392.92,392.92,0,0,0,11.55-39.68l8,2C1901.12,507.89,1896.6,521.45,1892.08,535ZM842.26,516.93l-5.53-6.53c9.55-8,19.59-17.08,30.64-28.13l6,6C861.85,499.85,851.8,508.89,842.26,516.93ZM417.81,488.3c-6-12.56-10-26.12-13.06-41.19l8-1.51a162,162,0,0,0,12,39.18Zm598.25-28.63-8-2a297.4,297.4,0,0,0,6.53-40.69l8.54.51A337.66,337.66,0,0,1,1016.06,459.67Zm-113-1.51-6-6c9-10,18.59-20.09,28.63-31.14l6,5.53C922.13,438.07,912.08,448.12,903,458.16Zm1008.13-5.52-8.54-1a292.19,292.19,0,0,0,2-36.16v-5h8.54V416C1913.68,427.52,1912.67,440.08,1911.17,452.64ZM409.77,404.42h-8.53a253.22,253.22,0,0,1,3.51-42.7l8.54,1C411.28,377.29,409.77,390.85,409.77,404.42Zm550.53-8.54-6-5.53c9.05-10.05,18.59-20.59,28.64-31.14l6,5.52C978.89,375.28,969.34,385.83,960.3,395.88Zm53.25-20.6a219.17,219.17,0,0,0-8-40.18l8-2.51a237.07,237.07,0,0,1,8.54,41.69Zm888.07-6.53a390.71,390.71,0,0,0-8.54-40.69l8-2.51a293.68,293.68,0,0,1,9,41.69Zm-884.56-34.66-6-6c9.55-10,19.09-20.09,29.14-30.64l6,6C1036.15,313.5,1026.61,324.05,1017.06,334.09ZM421.83,322l-8-2.51C415.3,314,416.3,311,416.3,311a298.75,298.75,0,0,1,14.57-31.15l7.54,4c-5,9.55-9.55,19.59-14.07,30.14h0A83.05,83.05,0,0,1,421.83,322Zm568.11-25.12a212.7,212.7,0,0,0-22.1-34.66l6.53-5a274.79,274.79,0,0,1,23.1,36.17Zm889.08-8a367.07,367.07,0,0,0-18.59-37.17l7.54-4a387.07,387.07,0,0,1,19.09,38.17Zm-803.19-15.06-6-6c10.55-10.05,20.6-19.59,30.64-29.14l5.53,6C1096.43,254.23,1086.38,263.77,1075.83,273.82ZM460,249.2l-7-5a287.82,287.82,0,0,1,27.63-32.65l6,6A314.62,314.62,0,0,0,460,249.2Zm480.2-18.08a268.36,268.36,0,0,0-31.65-26.62l5-7a287.74,287.74,0,0,1,32.65,27.62Zm197.91-13.56-5.53-6.53c11.05-9,22.1-18.09,32.65-26.62l5,6.53C1160.22,199.47,1149.17,208.52,1138.12,217.56Zm699.71-1a404.88,404.88,0,0,0-26.12-32.14l6-5.53A335.86,335.86,0,0,1,1844.36,212ZM518.27,190.94l-5-7a271.13,271.13,0,0,1,36.17-22.6l4,7.53A317.93,317.93,0,0,0,518.27,190.94Zm355.13-9.05q-18.07-9.79-37.67-18.08l3-8a336.82,336.82,0,0,1,38.18,18.59Zm331-15.57-5-7c11.55-8,23.61-16.07,35.16-23.11l4.52,7C1228,150.75,1216,158.29,1204.42,166.32Zm577.65-11.55c-10-9.54-21.09-18.08-32.14-26.62l5-6.53c11,8.54,22.1,17.58,32.65,27.12Zm-1190.46-2-2.51-8a354.71,354.71,0,0,1,41.19-11.05l1.5,8C618.23,144.72,604.67,148.74,591.61,152.76Zm204.94-2.51a295.18,295.18,0,0,0-40.69-9l1.51-8.54a385.32,385.32,0,0,1,41.69,9.54ZM673,137.19l-.5-8.54a398.62,398.62,0,0,1,42.7-.5l-.51,8.54A380,380,0,0,0,673,137.19Zm602.77-14.57-4-7.53c12.56-6.53,25.62-13.06,38.18-18.59l3.51,7.54C1300.86,110.06,1288.31,116.09,1275.75,122.62ZM1715.27,105A287.57,287.57,0,0,0,1678.6,86l3.51-7.53A335.68,335.68,0,0,1,1719.79,98ZM1352.1,88.46l-3-8c13.56-5,27.12-9,40.18-12.56l2,8C1378.72,79.93,1365.16,83.94,1352.1,88.46Zm287.32-16.57-7.54-1.51c-11.05-2.51-22.6-4.52-33.65-6l1-8.53c11.06,1.5,22.61,3.51,34.16,6a43.18,43.18,0,0,1,7.54,2Zm-207-5-1.51-8q21.11-3.77,42.2-6l1,8.54A377.56,377.56,0,0,0,1432.47,66.87Zm124.57-7a389.93,389.93,0,0,0-41.69-1V50.29c14.06,0,28.13,0,42.19,1Z" transform="translate(-401.24 -50.29)"/></g><g class="cls-4"><path class="cls-5" d="M723.72,494.33a18,18,0,0,1-18.09,18.08H546.9a18,18,0,0,1-18.08-18.08V256.74a18,18,0,0,1,18.08-18.09H705.63a18,18,0,0,1,18.09,18.09Z" transform="translate(-401.24 -50.29)"/></g><path class="cls-6" d="M1870.48,498.85V370.76a39.45,39.45,0,0,0-39.68-39.68H816.14a39.45,39.45,0,0,0-39.68,39.68V504.37Z" transform="translate(-401.24 -50.29)"/><g class="cls-4"><rect class="cls-5" x="1194.48" y="887.07" width="211.47" height="129.09"/></g><g id="business_card" data-name="business card"><rect class="cls-7" x="1190.46" y="881.55" width="211.47" height="129.09"/><path class="cls-8" d="M1643.44,960.47a15.07,15.07,0,1,0-15.07,15.07C1636.4,976,1643.44,969,1643.44,960.47Z" transform="translate(-401.24 -50.29)"/><rect class="cls-5" x="1259.78" y="927.26" width="92.93" height="9.04"/><rect class="cls-5" x="1259.78" y="949.36" width="50.73" height="9.04"/><rect class="cls-5" x="1318.55" y="949.36" width="50.73" height="9.04"/><rect class="cls-5" x="1259.78" y="964.93" width="29.13" height="5.53"/><rect class="cls-5" x="1299.97" y="964.93" width="29.13" height="5.53"/><rect class="cls-5" x="1339.65" y="964.93" width="29.13" height="5.53"/></g><g id="calculator"><path class="cls-9" d="M712.16,484.78a18,18,0,0,1-18.08,18.09H535.35a18,18,0,0,1-18.08-18.09V247.19a18,18,0,0,1,18.08-18.08H694.08a18,18,0,0,1,18.08,18.08Z" transform="translate(-401.24 -50.29)"/><rect class="cls-10" x="140.14" y="207.95" width="147.18" height="68.31"/><rect class="cls-11" x="251.15" y="247.13" width="13.06" height="13.56"/><rect class="cls-11" x="251.15" y="225.54" width="13.06" height="13.56"/><rect class="cls-11" x="225.54" y="247.13" width="13.06" height="13.56"/><rect class="cls-11" x="225.54" y="225.54" width="13.06" height="13.56"/><rect class="cls-11" x="200.42" y="247.13" width="13.06" height="13.56"/><path class="cls-10" d="M578.55,370.76a5.8,5.8,0,0,1-6,6H548.41a5.8,5.8,0,0,1-6-6V358.71a5.8,5.8,0,0,1,6-6h24.11a5.8,5.8,0,0,1,6,6Z" transform="translate(-401.24 -50.29)"/><path class="cls-10" d="M578.55,418.48a5.8,5.8,0,0,1-6,6H548.41a5.8,5.8,0,0,1-6-6V406.42a5.8,5.8,0,0,1,6-6h24.11a5.8,5.8,0,0,1,6,6Z" transform="translate(-401.24 -50.29)"/><path class="cls-10" d="M578.55,466.2a5.81,5.81,0,0,1-6,6H548.41a5.81,5.81,0,0,1-6-6V454.14a5.8,5.8,0,0,1,6-6h24.11a5.8,5.8,0,0,1,6,6Z" transform="translate(-401.24 -50.29)"/><path class="cls-10" d="M633.3,370.76a5.8,5.8,0,0,1-6,6H603.16a5.81,5.81,0,0,1-6-6V358.71a5.81,5.81,0,0,1,6-6h24.11a5.8,5.8,0,0,1,6,6Z" transform="translate(-401.24 -50.29)"/><path class="cls-10" d="M633.3,418.48a5.8,5.8,0,0,1-6,6H603.16a5.81,5.81,0,0,1-6-6V406.42a5.81,5.81,0,0,1,6-6h24.11a5.8,5.8,0,0,1,6,6Z" transform="translate(-401.24 -50.29)"/><path class="cls-10" d="M633.3,466.2a5.81,5.81,0,0,1-6,6H603.16a5.81,5.81,0,0,1-6-6V454.14a5.81,5.81,0,0,1,6-6h24.11a5.8,5.8,0,0,1,6,6Z" transform="translate(-401.24 -50.29)"/><path class="cls-10" d="M688.55,370.76a5.8,5.8,0,0,1-6,6H658.42a5.8,5.8,0,0,1-6-6V358.71a5.8,5.8,0,0,1,6-6h24.11a5.8,5.8,0,0,1,6,6Z" transform="translate(-401.24 -50.29)"/><path class="cls-10" d="M688.55,418.48a5.8,5.8,0,0,1-6,6H658.42a5.8,5.8,0,0,1-6-6V406.42a5.8,5.8,0,0,1,6-6h24.11a5.8,5.8,0,0,1,6,6Z" transform="translate(-401.24 -50.29)"/><path class="cls-10" d="M688.55,466.2a5.81,5.81,0,0,1-6,6H658.42a5.81,5.81,0,0,1-6-6V454.14a5.8,5.8,0,0,1,6-6h24.11a5.8,5.8,0,0,1,6,6Z" transform="translate(-401.24 -50.29)"/><g class="cls-4"><g class="cls-12"><rect class="cls-13" x="144.66" y="207.45" height="67.31"/></g><g class="cls-12"><rect class="cls-14" x="144.66" y="207.45" height="67.31"/></g><g class="cls-12"><rect class="cls-15" x="144.66" y="207.45" height="67.31"/></g><g class="cls-12"><rect class="cls-16" x="144.66" y="207.45" height="67.31"/></g><g class="cls-12"><rect class="cls-17" x="144.16" y="207.45" height="67.31"/></g><g class="cls-12"><rect class="cls-18" x="144.16" y="207.45" height="67.31"/></g><g class="cls-12"><rect class="cls-19" x="144.16" y="207.45" height="67.31"/></g><g class="cls-12"><rect class="cls-20" x="144.16" y="207.45" height="67.31"/></g><g class="cls-12"><rect class="cls-21" x="144.16" y="207.45" height="67.31"/></g><g class="cls-12"><rect class="cls-22" x="143.66" y="207.45" height="67.31"/></g><g class="cls-12"><rect class="cls-23" x="143.66" y="207.45" height="67.31"/></g><g class="cls-12"><rect class="cls-24" x="143.66" y="207.45" height="67.31"/></g><g class="cls-12"><rect class="cls-25" x="143.66" y="207.45" height="67.31"/></g><g class="cls-12"><rect class="cls-26" x="143.16" y="207.45" height="67.31"/></g><g class="cls-12"><rect class="cls-27" x="143.16" y="207.45" height="67.31"/></g><g class="cls-12"><rect class="cls-28" x="143.16" y="207.45" height="67.31"/></g><g class="cls-12"><rect class="cls-29" x="143.16" y="207.45" height="67.31"/></g><g class="cls-12"><rect class="cls-30" x="142.65" y="207.45" height="67.31"/></g><g class="cls-12"><rect class="cls-31" x="142.65" y="207.45" height="67.31"/></g><g class="cls-12"><rect class="cls-32" x="142.65" y="207.45" height="67.31"/></g><g class="cls-12"><rect class="cls-33" x="142.65" y="207.45" height="67.31"/></g><g class="cls-12"><rect class="cls-34" x="142.15" y="207.45" height="67.31"/></g><g class="cls-12"><rect class="cls-35" x="142.15" y="207.45" height="67.31"/></g><g class="cls-12"><rect class="cls-36" x="142.15" y="207.45" height="67.31"/></g><g class="cls-12"><rect class="cls-37" x="142.15" y="207.45" height="67.31"/></g><g class="cls-12"><rect class="cls-38" x="141.65" y="207.45" height="67.31"/></g><g class="cls-12"><rect class="cls-39" x="141.65" y="207.45" height="67.31"/></g><g class="cls-12"><rect class="cls-40" x="141.65" y="207.45" height="67.31"/></g><g class="cls-12"><rect class="cls-41" x="141.65" y="207.45" height="67.31"/></g><g class="cls-12"><rect class="cls-42" x="141.15" y="207.45" height="67.31"/></g><g class="cls-12"><rect class="cls-43" x="141.15" y="207.45" height="67.31"/></g><g class="cls-12"><rect class="cls-44" x="141.15" y="207.45" height="67.31"/></g><g class="cls-12"><rect class="cls-45" x="141.15" y="207.45" height="67.31"/></g><g class="cls-12"><rect class="cls-46" x="141.15" y="207.45" height="67.31"/></g><g class="cls-12"><rect class="cls-47" x="140.65" y="207.45" height="67.31"/></g><g class="cls-12"><rect class="cls-48" x="140.65" y="207.45" height="67.31"/></g><g class="cls-12"><rect class="cls-49" x="140.65" y="207.45" height="67.31"/></g><g class="cls-12"><rect class="cls-50" x="140.65" y="207.45" height="67.31"/></g></g></g><path class="cls-51" d="M776.46,504.37l32.65,66.81c16.07,26.62,46.21,129.09,52.24,129.09h924.74c4.52,0,37.17-109,52.24-135.12,14.57-26.12,32.65-65.8,32.65-65.8Z" transform="translate(-401.24 -50.29)"/><path class="cls-52" d="M1508.32,400.9h-22.1a15.65,15.65,0,0,1-15.58-15.57h0a15.65,15.65,0,0,1,15.58-15.57h22.1a15.65,15.65,0,0,1,15.57,15.57h0A15.65,15.65,0,0,1,1508.32,400.9Z" transform="translate(-401.24 -50.29)"/><path class="cls-52" d="M1176.29,400.9h-22.1a15.65,15.65,0,0,1-15.57-15.57h0a15.65,15.65,0,0,1,15.57-15.57h22.1a15.65,15.65,0,0,1,15.57,15.57h0A15.65,15.65,0,0,1,1176.29,400.9Z" transform="translate(-401.24 -50.29)"/><path class="cls-53" d="M1870.48,498.85S1615.81,606.34,1327,606.34s-548.51-106-548.51-106Z" transform="translate(-401.24 -50.29)"/><path class="cls-52" d="M1355.62,601.32h-56.26l6.53,20.59A14.63,14.63,0,0,0,1320,632h15.57a14.64,14.64,0,0,0,14.07-10.05Z" transform="translate(-401.24 -50.29)"/><g class="cls-4"><path class="cls-5" d="M2159.31,979.72c0,12.33-8,22.19-18.09,22.19H1982.49c-10,0-18.08-9.86-18.08-22.19V688.81c0-12.33,8-22.19,18.08-22.19h158.73c10.05,0,18.09,9.86,18.09,22.19Z" transform="translate(-401.24 -50.29)"/></g><g id="phone"><path class="cls-51" d="M2146.25,973c0,10-7,18.08-16.08,18.08l-158.22,2c-9,0-16.08-8-16.08-18.09l-3.51-300.88c0-10,7-18.08,16.07-18.08l158.23-2c9,0,16.07,8,16.07,17.58Z" transform="translate(-401.24 -50.29)"/><rect class="cls-7" x="1968.87" y="681.15" width="159.73" height="256.17" transform="translate(-410.77 -25.71) rotate(-0.69)"/></g><g class="cls-54"><g class="cls-55"><polygon class="cls-56" points="1565.69 884.56 1728.43 885.06 1728.43 886.07 1565.69 886.07 1565.69 884.56"/></g><g class="cls-55"><polygon class="cls-57" points="1565.69 882.55 1728.43 883.56 1728.43 885.06 1565.69 884.56 1565.69 882.55"/></g><g class="cls-55"><polygon class="cls-58" points="1565.69 881.04 1728.43 881.55 1728.43 883.56 1565.69 882.55 1565.69 881.04"/></g><g class="cls-55"><polygon class="cls-59" points="1565.69 879.03 1728.43 879.54 1728.43 881.55 1565.69 881.04 1565.69 879.03"/></g><g class="cls-55"><polygon class="cls-60" points="1565.69 877.03 1728.43 877.53 1728.43 879.54 1565.69 879.03 1565.69 877.03"/></g><g class="cls-55"><polygon class="cls-61" points="1565.69 875.52 1728.43 876.02 1728.43 877.53 1565.69 877.03 1565.69 875.52"/></g><g class="cls-55"><polygon class="cls-62" points="1565.69 873.51 1728.43 874.01 1728.43 876.02 1565.69 875.52 1565.69 873.51"/></g><g class="cls-55"><polygon class="cls-63" points="1565.69 871.5 1728.43 872 1728.43 874.01 1565.69 873.51 1565.69 871.5"/></g><g class="cls-55"><polygon class="cls-64" points="1565.69 869.99 1728.43 870.5 1728.43 872 1565.69 871.5 1565.69 869.99"/></g><g class="cls-55"><polygon class="cls-65" points="1565.69 867.98 1728.43 868.49 1728.43 870.5 1565.69 869.99 1565.69 867.98"/></g><g class="cls-55"><polygon class="cls-66" points="1565.69 865.98 1728.43 866.48 1728.43 868.49 1565.69 867.98 1565.69 865.98"/></g><g class="cls-55"><polygon class="cls-67" points="1565.69 863.97 1728.43 864.97 1728.43 866.48 1565.69 865.98 1565.69 863.97"/></g><g class="cls-55"><polygon class="cls-68" points="1565.69 862.46 1728.43 862.96 1728.43 864.97 1565.69 863.97 1565.69 862.46"/></g><g class="cls-55"><polygon class="cls-69" points="1565.69 860.45 1728.43 860.95 1728.43 862.96 1565.69 862.46 1565.69 860.45"/></g><g class="cls-55"><polygon class="cls-70" points="1565.69 858.44 1728.43 859.45 1728.43 860.95 1565.69 860.45 1565.69 858.44"/></g><g class="cls-55"><polygon class="cls-71" points="1565.69 856.93 1728.43 857.44 1728.43 859.45 1565.69 858.44 1565.69 856.93"/></g><g class="cls-55"><polygon class="cls-72" points="1565.69 854.92 1728.43 855.43 1728.43 857.44 1565.69 856.93 1565.69 854.92"/></g><g class="cls-55"><polygon class="cls-73" points="1565.69 852.91 1728.43 853.92 1728.43 855.43 1565.69 854.92 1565.69 852.91"/></g><g class="cls-55"><polygon class="cls-74" points="1565.69 851.41 1728.43 851.91 1728.43 853.92 1565.69 852.91 1565.69 851.41"/></g><g class="cls-55"><polygon class="cls-75" points="1565.69 849.4 1728.43 849.9 1728.43 851.91 1565.69 851.41 1565.69 849.4"/></g><g class="cls-55"><polygon class="cls-76" points="1565.69 847.39 1728.43 848.39 1728.43 849.9 1565.69 849.4 1565.69 847.39"/></g><g class="cls-55"><polygon class="cls-77" points="1565.69 845.88 1728.43 846.38 1728.43 848.39 1565.69 847.39 1565.69 845.88"/></g><g class="cls-55"><polygon class="cls-78" points="1565.69 843.87 1728.43 844.38 1728.43 846.38 1565.69 845.88 1565.69 843.87"/></g><g class="cls-55"><polygon class="cls-79" points="1565.69 841.86 1728.43 842.87 1728.43 844.38 1565.69 843.87 1565.69 841.86"/></g><g class="cls-55"><polygon class="cls-80" points="1565.69 840.36 1728.43 840.86 1728.43 842.87 1565.69 841.86 1565.69 840.36"/></g><g class="cls-55"><polygon class="cls-81" points="1565.69 838.35 1728.43 838.85 1728.43 840.86 1565.69 840.36 1565.69 838.35"/></g><g class="cls-55"><polygon class="cls-82" points="1565.69 836.34 1728.43 837.34 1728.43 838.85 1565.69 838.35 1565.69 836.34"/></g><g class="cls-55"><polygon class="cls-83" points="1565.69 834.83 1728.43 835.33 1728.43 837.34 1565.69 836.34 1565.69 834.83"/></g><g class="cls-55"><polygon class="cls-84" points="1565.69 832.82 1728.43 833.33 1728.43 835.33 1565.69 834.83 1565.69 832.82"/></g><g class="cls-55"><polygon class="cls-85" points="1565.69 830.81 1728.43 831.82 1728.43 833.33 1565.69 832.82 1565.69 830.81"/></g><g class="cls-55"><polygon class="cls-86" points="1565.69 829.31 1728.43 829.81 1728.43 831.82 1565.69 830.81 1565.69 829.31"/></g><g class="cls-55"><polygon class="cls-87" points="1565.69 827.3 1728.43 827.8 1728.43 829.81 1565.69 829.31 1565.69 827.3"/></g><g class="cls-55"><polygon class="cls-88" points="1565.69 825.29 1728.43 825.79 1728.43 827.8 1565.69 827.3 1565.69 825.29"/></g><g class="cls-55"><polygon class="cls-89" points="1565.69 823.78 1728.43 824.28 1728.43 825.79 1565.69 825.29 1565.69 823.78"/></g><g class="cls-55"><polygon class="cls-90" points="1565.69 821.77 1728.43 822.27 1728.43 824.28 1565.69 823.78 1565.69 821.77"/></g><g class="cls-55"><polygon class="cls-91" points="1565.69 819.76 1728.43 820.26 1728.43 822.27 1565.69 821.77 1565.69 819.76"/></g><g class="cls-55"><polygon class="cls-92" points="1565.69 818.26 1728.43 818.76 1728.43 820.26 1565.69 819.76 1565.69 818.26"/></g><g class="cls-55"><polygon class="cls-93" points="1565.69 816.25 1728.43 816.75 1728.43 818.76 1565.69 818.26 1565.69 816.25"/></g><g class="cls-55"><polygon class="cls-94" points="1565.69 814.24 1728.43 814.74 1728.43 816.75 1565.69 816.25 1565.69 814.24"/></g><g class="cls-55"><polygon class="cls-95" points="1565.69 812.23 1728.43 813.23 1728.43 814.74 1565.69 814.24 1565.69 812.23"/></g><g class="cls-55"><polygon class="cls-96" points="1565.69 810.72 1728.43 811.22 1728.43 813.23 1565.69 812.23 1565.69 810.72"/></g><g class="cls-55"><polygon class="cls-97" points="1565.69 808.71 1728.43 809.21 1728.43 811.22 1565.69 810.72 1565.69 808.71"/></g><g class="cls-55"><polygon class="cls-98" points="1565.69 806.7 1728.43 807.71 1728.43 809.21 1565.69 808.71 1565.69 806.7"/></g><g class="cls-55"><polygon class="cls-99" points="1565.69 805.2 1728.43 805.7 1728.43 807.71 1565.69 806.7 1565.69 805.2"/></g><g class="cls-55"><polygon class="cls-100" points="1565.69 803.19 1728.43 803.69 1728.43 805.7 1565.69 805.2 1565.69 803.19"/></g><g class="cls-55"><polygon class="cls-101" points="1565.69 801.18 1728.43 802.18 1728.43 803.69 1565.69 803.19 1565.69 801.18"/></g><g class="cls-55"><polygon class="cls-102" points="1565.69 799.67 1728.43 800.17 1728.43 802.18 1565.69 801.18 1565.69 799.67"/></g><g class="cls-55"><polygon class="cls-103" points="1565.69 797.66 1728.43 798.16 1728.43 800.17 1565.69 799.67 1565.69 797.66"/></g><g class="cls-55"><polygon class="cls-104" points="1565.69 795.65 1728.43 796.66 1728.43 798.16 1565.69 797.66 1565.69 795.65"/></g><g class="cls-55"><polygon class="cls-105" points="1565.69 794.14 1728.43 794.65 1728.43 796.66 1565.69 795.65 1565.69 794.14"/></g><g class="cls-55"><polygon class="cls-106" points="1565.69 792.14 1728.43 792.64 1728.43 794.65 1565.69 794.14 1565.69 792.14"/></g><g class="cls-55"><polygon class="cls-107" points="1565.69 790.13 1728.43 791.13 1728.43 792.64 1565.69 792.14 1565.69 790.13"/></g><g class="cls-55"><polygon class="cls-108" points="1565.69 788.62 1728.43 789.12 1728.43 791.13 1565.69 790.13 1565.69 788.62"/></g><g class="cls-55"><polygon class="cls-109" points="1565.69 786.61 1728.43 787.11 1728.43 789.12 1565.69 788.62 1565.69 786.61"/></g><g class="cls-55"><polygon class="cls-110" points="1565.69 784.6 1728.43 785.61 1728.43 787.11 1565.69 786.61 1565.69 784.6"/></g><g class="cls-55"><polygon class="cls-111" points="1565.69 783.09 1728.43 783.6 1728.43 785.61 1565.69 784.6 1565.69 783.09"/></g><g class="cls-55"><polygon class="cls-112" points="1565.69 781.09 1728.43 781.59 1728.43 783.6 1565.69 783.09 1565.69 781.09"/></g><g class="cls-55"><polygon class="cls-113" points="1565.69 779.08 1728.43 780.08 1728.43 781.59 1565.69 781.09 1565.69 779.08"/></g><g class="cls-55"><polygon class="cls-114" points="1565.69 777.57 1728.43 778.07 1728.43 780.08 1565.69 779.08 1565.69 777.57"/></g><g class="cls-55"><polygon class="cls-115" points="1565.69 775.56 1728.43 776.06 1728.43 778.07 1565.69 777.57 1565.69 775.56"/></g><g class="cls-55"><polygon class="cls-116" points="1565.69 773.55 1728.43 774.05 1728.43 776.06 1565.69 775.56 1565.69 773.55"/></g><g class="cls-55"><polygon class="cls-117" points="1565.69 772.04 1728.43 772.55 1728.43 774.05 1565.69 773.55 1565.69 772.04"/></g><g class="cls-55"><polygon class="cls-118" points="1565.69 770.03 1728.43 770.54 1728.43 772.55 1565.69 772.04 1565.69 770.03"/></g><g class="cls-55"><polygon class="cls-119" points="1565.69 768.02 1728.43 768.53 1728.43 770.54 1565.69 770.03 1565.69 768.02"/></g><g class="cls-55"><polygon class="cls-120" points="1565.69 766.52 1728.43 767.02 1728.43 768.53 1565.69 768.02 1565.69 766.52"/></g><g class="cls-55"><polygon class="cls-121" points="1565.69 764.51 1728.43 765.01 1728.43 767.02 1565.69 766.52 1565.69 764.51"/></g><g class="cls-55"><polygon class="cls-122" points="1565.69 762.5 1728.43 763 1728.43 765.01 1565.69 764.51 1565.69 762.5"/></g><g class="cls-55"><polygon class="cls-123" points="1565.69 760.49 1728.43 761.5 1728.43 763 1565.69 762.5 1565.69 760.49"/></g><g class="cls-55"><polygon class="cls-124" points="1565.69 758.98 1728.43 759.49 1728.43 761.5 1565.69 760.49 1565.69 758.98"/></g><g class="cls-55"><polygon class="cls-125" points="1565.69 756.98 1728.43 757.48 1728.43 759.49 1565.69 758.98 1565.69 756.98"/></g><g class="cls-55"><polygon class="cls-126" points="1565.69 754.97 1728.43 755.97 1728.43 757.48 1565.69 756.98 1565.69 754.97"/></g><g class="cls-55"><polygon class="cls-127" points="1565.69 753.46 1728.43 753.96 1728.43 755.97 1565.69 754.97 1565.69 753.46"/></g><g class="cls-55"><polygon class="cls-128" points="1565.69 751.45 1728.43 751.95 1728.43 753.96 1565.69 753.46 1565.69 751.45"/></g><g class="cls-55"><polygon class="cls-129" points="1565.69 749.44 1728.43 750.45 1728.43 751.95 1565.69 751.45 1565.69 749.44"/></g><g class="cls-55"><polygon class="cls-130" points="1565.69 747.93 1728.43 748.43 1728.43 750.45 1565.69 749.44 1565.69 747.93"/></g><g class="cls-55"><polygon class="cls-131" points="1565.69 745.92 1728.43 746.43 1728.43 748.43 1565.69 747.93 1565.69 745.92"/></g><g class="cls-55"><polygon class="cls-132" points="1565.69 743.91 1728.43 744.92 1728.43 746.43 1565.69 745.92 1565.69 743.91"/></g><g class="cls-55"><polygon class="cls-133" points="1565.69 742.41 1728.43 742.91 1728.43 744.92 1565.69 743.91 1565.69 742.41"/></g><g class="cls-55"><polygon class="cls-134" points="1565.69 740.4 1728.43 740.9 1728.43 742.91 1565.69 742.41 1565.69 740.4"/></g><g class="cls-55"><polygon class="cls-135" points="1565.69 738.39 1728.43 739.39 1728.43 740.9 1565.69 740.4 1565.69 738.39"/></g><g class="cls-55"><polygon class="cls-136" points="1565.69 736.88 1728.43 737.38 1728.43 739.39 1565.69 738.39 1565.69 736.88"/></g><g class="cls-55"><polygon class="cls-137" points="1565.69 734.87 1728.43 735.38 1728.43 737.38 1565.69 736.88 1565.69 734.87"/></g><g class="cls-55"><polygon class="cls-138" points="1565.69 732.86 1728.43 733.87 1728.43 735.38 1565.69 734.87 1565.69 732.86"/></g><g class="cls-55"><polygon class="cls-139" points="1565.69 731.36 1728.43 731.86 1728.43 733.87 1565.69 732.86 1565.69 731.36"/></g><g class="cls-55"><polygon class="cls-140" points="1565.69 729.35 1728.43 729.85 1728.43 731.86 1565.69 731.36 1565.69 729.35"/></g><g class="cls-55"><polygon class="cls-141" points="1565.69 727.34 1728.43 727.84 1728.43 729.85 1565.69 729.35 1565.69 727.34"/></g><g class="cls-55"><polygon class="cls-142" points="1565.69 725.83 1728.43 726.33 1728.43 727.84 1565.69 727.34 1565.69 725.83"/></g><g class="cls-55"><polygon class="cls-143" points="1565.69 723.82 1728.43 724.33 1728.43 726.33 1565.69 725.83 1565.69 723.82"/></g><g class="cls-55"><polygon class="cls-144" points="1565.69 721.81 1728.43 722.32 1728.43 724.33 1565.69 723.82 1565.69 721.81"/></g><g class="cls-55"><polygon class="cls-145" points="1565.69 720.31 1728.43 720.81 1728.43 722.32 1565.69 721.81 1565.69 720.31"/></g><g class="cls-55"><polygon class="cls-146" points="1565.69 718.3 1728.43 718.8 1728.43 720.81 1565.69 720.31 1565.69 718.3"/></g><g class="cls-55"><polygon class="cls-147" points="1565.69 716.29 1728.43 716.79 1728.43 718.8 1565.69 718.3 1565.69 716.29"/></g><g class="cls-55"><polygon class="cls-148" points="1565.69 714.78 1728.43 715.28 1728.43 716.79 1565.69 716.29 1565.69 714.78"/></g><g class="cls-55"><polygon class="cls-149" points="1565.69 712.77 1728.43 713.27 1728.43 715.28 1565.69 714.78 1565.69 712.77"/></g><g class="cls-55"><polygon class="cls-150" points="1565.69 710.76 1728.43 711.26 1728.43 713.27 1565.69 712.77 1565.69 710.76"/></g><g class="cls-55"><polygon class="cls-151" points="1565.69 708.75 1728.43 709.76 1728.43 711.26 1565.69 710.76 1565.69 708.75"/></g><g class="cls-55"><polygon class="cls-152" points="1565.69 707.25 1728.43 707.75 1728.43 709.76 1565.69 708.75 1565.69 707.25"/></g><g class="cls-55"><polygon class="cls-153" points="1565.69 705.24 1728.43 705.74 1728.43 707.75 1565.69 707.25 1565.69 705.24"/></g><g class="cls-55"><polygon class="cls-154" points="1565.69 703.23 1728.43 704.23 1728.43 705.74 1565.69 705.24 1565.69 703.23"/></g><g class="cls-55"><polygon class="cls-155" points="1565.69 701.72 1728.43 702.22 1728.43 704.23 1565.69 703.23 1565.69 701.72"/></g><g class="cls-55"><polygon class="cls-156" points="1565.69 699.71 1728.43 700.21 1728.43 702.22 1565.69 701.72 1565.69 699.71"/></g><g class="cls-55"><polygon class="cls-157" points="1565.69 697.7 1728.43 698.71 1728.43 700.21 1565.69 699.71 1565.69 697.7"/></g><g class="cls-55"><polygon class="cls-158" points="1565.69 696.2 1728.43 696.7 1728.43 698.71 1565.69 697.7 1565.69 696.2"/></g><g class="cls-55"><polygon class="cls-159" points="1565.69 694.19 1728.43 694.69 1728.43 696.7 1565.69 696.2 1565.69 694.19"/></g><g class="cls-55"><polygon class="cls-160" points="1565.69 692.18 1728.43 693.18 1728.43 694.69 1565.69 694.19 1565.69 692.18"/></g><g class="cls-55"><polygon class="cls-161" points="1565.69 690.67 1728.43 691.17 1728.43 693.18 1565.69 692.18 1565.69 690.67"/></g><g class="cls-55"><polygon class="cls-162" points="1565.69 688.66 1728.43 689.16 1728.43 691.17 1565.69 690.67 1565.69 688.66"/></g><g class="cls-55"><polygon class="cls-162" points="1728.43 689.16 1565.69 688.66 1565.69 629.89 1728.43 629.89 1728.43 689.16"/></g></g><path class="cls-163" d="M1998.57,767.08a7,7,0,1,0-7,7A6.87,6.87,0,0,0,1998.57,767.08Z" transform="translate(-401.24 -50.29)"/><path class="cls-164" d="M1999.07,796.21a7,7,0,1,0-7,7A6.87,6.87,0,0,0,1999.07,796.21Z" transform="translate(-401.24 -50.29)"/><path class="cls-165" d="M1999.57,824.34a7,7,0,1,0-7,7A7.18,7.18,0,0,0,1999.57,824.34Z" transform="translate(-401.24 -50.29)"/><path class="cls-166" d="M1999.57,856a7,7,0,1,0-7,7A7.18,7.18,0,0,0,1999.57,856Z" transform="translate(-401.24 -50.29)"/><rect class="cls-167" x="2030.15" y="668.09" width="37.17" height="3.01" transform="translate(-408.98 -26.1) rotate(-0.68)"/><rect class="cls-168" x="1967.37" y="680.65" width="159.73" height="24.61" transform="translate(-409.32 -25.92) rotate(-0.68)"/><rect class="cls-168" x="1970.38" y="897.64" width="159.73" height="39.68" transform="translate(-412.04 -25.74) rotate(-0.68)"/><path class="cls-169" d="M2061.36,908.23l-11.06,8-12.05-7.53h0v13.06a1.34,1.34,0,0,0,1.51,1.51h20.09a1.34,1.34,0,0,0,1.51-1.51V908.23Z" transform="translate(-401.24 -50.29)"/><path class="cls-169" d="M2060.35,906.22h-21.1l11.05,7Z" transform="translate(-401.24 -50.29)"/><rect class="cls-168" x="2018.1" y="819.79" width="91.42" height="11.05" transform="translate(-411.02 -25.39) rotate(-0.69)"/><rect class="cls-168" x="2019.61" y="854.95" width="91.42" height="11.05" transform="translate(-411.44 -25.38) rotate(-0.69)"/><path class="cls-170" d="M2061.36,776.12h-1c5-2.51,6-9,6-16.07,0-9.55-1.51-16.08-12.06-15.57-10.55,0-11.55,6-11.55,15.57,0,7,0,13.56,5,16.07a20.85,20.85,0,0,0-9.54,2.51c-3.52,2.51-4.52,7-4.52,11.56v3l41.69.5v-3C2075.92,783.15,2074.92,776.62,2061.36,776.12Z" transform="translate(-401.24 -50.29)"/><g id="project_chart" data-name="project chart"><polygon class="cls-7" points="363.17 1397.41 428.47 1361.25 836.34 1135.71 645.46 790.63 172.29 1052.33 318.96 1317.55 363.17 1397.41"/><path class="cls-171" d="M770.93,1435.65l-183.84-332,457.6-253.16,183.84,332Zm-171.79-329,175.31,316.95,443-245.12-175.3-317Z" transform="translate(-401.24 -50.29)"/><rect class="cls-172" x="672.95" y="1042.49" width="74.34" height="427.96" transform="translate(-920.74 450.53) rotate(-28.95)"/><g class="cls-4"><rect class="cls-167" x="757.23" y="1419.45" width="91.42" height="3.52" transform="translate(-988.7 515.74) rotate(-28.94)"/></g><path class="cls-167" d="M686.54,1223.17c-14.06,0-26.11-6-32.14-16.57-10-18.09,1-42.7,23.61-55.26a54.43,54.43,0,0,1,27.62-7.53c14.07,0,26.12,6,32.15,16.58,5,8.53,5,19.59.5,30.13s-13.06,19.59-24.11,25.62A62.59,62.59,0,0,1,686.54,1223.17Zm19.09-75.34a53.21,53.21,0,0,0-25.62,7c-21.09,11.55-30.64,34.16-22.1,49.73,5,9,15.58,14.56,28.63,14.56a53.18,53.18,0,0,0,25.62-7c10.05-5.52,18.09-14.06,22.1-23.61s4-18.58,0-26.12C728.74,1153.35,718.19,1147.83,705.63,1147.83Z" transform="translate(-401.24 -50.29)"/><path class="cls-167" d="M788,1169.43l-31.14-56.76,105.48-58.27,31.14,56.76Zm-25.62-54.75,27.13,49.22,98-54.25-27.13-49.22Z" transform="translate(-401.24 -50.29)"/><path class="cls-167" d="M1067.79,1150.84l-31.14-56.76,64.3-35.66,31.14,56.76Zm-25.61-54.75,27.12,49.23,56.76-31.65-27.12-49.23Z" transform="translate(-401.24 -50.29)"/><path class="cls-167" d="M845.78,1273.91l-31.15-56.76,64.3-35.67,31.14,56.76Zm-25.62-54.76,27.12,49.23L904,1236.74l-27.12-49.23Z" transform="translate(-401.24 -50.29)"/><path class="cls-167" d="M914.59,1099.61l-31.14-56.76,102-56.26,31.14,56.76ZM889,1044.35l27.13,49.23,94.43-52.24-27.12-49.23Z" transform="translate(-401.24 -50.29)"/><polygon points="441.53 1143.75 422.44 1109.09 423.44 1108.09 442.53 1143.25 441.53 1143.75"/><polygon points="340.56 1108.59 340.06 1107.58 360.15 1096.03 361.16 1097.04 340.56 1108.59"/><rect x="879.45" y="1077.03" width="16.07" height="1" transform="translate(-812.41 515.19) rotate(-29.01)"/><rect x="1003.53" y="1134.92" width="37.17" height="1" transform="translate(-827.03 597.83) rotate(-29.41)"/><polygon points="495.78 1155.3 494.77 1154.3 517.38 1141.74 517.88 1142.74 495.78 1155.3"/><path class="cls-167" d="M979.89,1203.58l-53.24-15.07,15.07-53.24L995,1150.34Zm-48.22-18.08,45.21,13.06,13.06-45.21-45.21-13.06Z" transform="translate(-401.24 -50.29)"/><polygon points="666.56 1019.68 627.88 949.36 604.27 962.42 603.77 961.41 627.88 947.85 628.38 948.35 667.56 1018.68 666.56 1019.68"/><rect class="cls-7" x="665.49" y="1051.31" width="90.91" height="412.37" transform="translate(-921.24 451.23) rotate(-28.96)"/><rect class="cls-171" x="738.73" y="1036.43" width="11.05" height="397.33" transform="translate(-906.45 464.94) rotate(-28.98)"/></g><g id="paper_clip" data-name="paper clip"><path class="cls-167" d="M1223.51,1327.15l-.5-.5c-9-6-11-19.09-4.52-29.14l28.13-43.19a2.41,2.41,0,0,1,3-1c1,.5,1.51,2,.5,3.52L1222,1300c-5,7.53-3.51,17.58,3.52,22.6l.5.5c7,4.52,17.08,2,22.1-5.52l36.67-56.76c4-6,2.51-13.06-2.51-16.58-5.53-3.52-12.56-1.51-16.58,4.52l-28.63,44.2a6.44,6.44,0,0,0,1.51,9l.5.5c3,2,7,1,9-2.51l18.59-28.64a2.42,2.42,0,0,1,3-1c1,.5,1.51,2,.5,3.52l-18.58,28.63a11.59,11.59,0,0,1-15.57,4l-.5-.51c-5-3-6-10-2.52-15.57l28.63-44.2c5-8,15.58-10.55,23.11-6,7.54,5,9,15.07,4,23.61l-36.67,56.76C1245.61,1329.66,1232.55,1333.18,1223.51,1327.15Z" transform="translate(-401.24 -50.29)"/></g><polygon class="cls-173" points="205.44 873.51 575.64 862.46 575.14 848.39 204.94 859.45 205.44 873.51"/><path class="cls-173" d="M648.87,918.78s-35.66,20.09-34.66,34.15c1,18.09,9,12.06,9,12.06s31.65-33.66,43.2-42.2c2.51-2-8-4-8-4Z" transform="translate(-401.24 -50.29)"/><path class="cls-173" d="M937.7,909.73s36.67,18.09,36.67,31.65c0,18.08-8.54,12.56-8.54,12.56s-33.66-31.65-45.71-39.68c-2.51-1.51,7.53-4.53,7.53-4.53Z" transform="translate(-401.24 -50.29)"/><path class="cls-5" d="M1002.5,882.11l.5,22.6c-19.09,6.53-19.09,49.73-19.09,49.73s-7.53,59.77-77.36,61.78c-81.37,2.51-95.43-73.33-98.45-85.89-3-11.05-12.55-11.55-15.07-11.55s-12.55,1.5-14.56,12.55c-2.51,12.56-11.56,89.41-92.93,91.42-67.31,2-76.85-57.26-76.85-57.26s-7-42.7-26.12-48.22l-.5-22.6s18.08-9.55,71.83-11.06c53.24-1.5,84.38,5,84.38,5s39.68,7,54.25,6.53c15.07-.5,53.75-10,53.75-10s30.64-8.54,84.39-10.55c53.24-1,71.83,7.54,71.83,7.54Zm-288.33,12s-26.12-5-64.8,2.51-35.66,34.16-32.14,50.74c3.51,17.08,9,68.31,74.34,64.29,24.11-2.51,62.79-20.09,72.83-70.32,8.54-41.19-50.23-47.22-50.23-47.22Zm110.51,45.21c13.56,49.73,52.74,64.8,77.35,65.8,65.3,0,67.31-51.73,70.33-68.81,2.51-17.08,4-43.7-35.16-48.73-39.18-5.52-64.8,1.51-64.8,1.51s-58.77,10.05-47.72,50.23Z" transform="translate(-401.24 -50.29)"/><path class="cls-174" d="M641.84,922.79l-25.62,1c-.5,3-1,6.53-.5,9.54a42.67,42.67,0,0,0,1.51,11.56c4.52-8,16.57-17.08,24.61-22.11Zm120-3.51-95.44,3h0c-11.55,8.54-43.2,42.2-43.2,42.2l-2,1c6,20.6,20.59,48.22,66.3,46.72h3.52c24.11-2.52,62.78-20.1,72.83-70.33a55.58,55.58,0,0,0,1-9,28.46,28.46,0,0,0-3-13.56Zm-77.35-26.62a266.23,266.23,0,0,0-35.67,4c-13.06,2.52-21.09,7-26.12,12.56l125.08-4c-15.07-9.54-34.16-11.55-34.16-11.55s-10.55-1.51-29.13-1Z" transform="translate(-401.24 -50.29)"/><path class="cls-175" d="M748.33,905.72l-125.08,4a28.9,28.9,0,0,0-7,14.07l25.62-1c4-2.51,7-4.52,7-4.52l10-.5s10,2,8,4l95.43-3a49.91,49.91,0,0,0-14.06-13.06Z" transform="translate(-401.24 -50.29)"/><path class="cls-175" d="M658.42,918.27l-10,.51a50.82,50.82,0,0,0-7,4.52c-7.54,5-20.09,13.56-25.12,22.1a21.91,21.91,0,0,0,.5,2.51c1,4,2,10.55,4,18.08l2-1s31.65-33.66,43.2-42.2h0c3-2.51-7.53-4.52-7.53-4.52Z" transform="translate(-401.24 -50.29)"/><path class="cls-176" d="M684.54,892.66a266.23,266.23,0,0,0-35.67,4c-28.63,5.53-34.66,21.6-34.15,36.67a61,61,0,0,1,.5-9.54,26.77,26.77,0,0,1,7-14.07c5-5.52,13.56-10,26.12-12.55a233.39,233.39,0,0,1,36.17-4.52c18.58-.51,29.63,1.5,29.63,1.5s19.09,2,34.16,11.56c5.52,3.51,10.55,8,13.56,13.56,2,4,3.52,8,3.52,13.06-1-33.15-51.24-38.18-51.24-38.18s-11-2-29.63-1.5Z" transform="translate(-401.24 -50.29)"/><path class="cls-174" d="M920.12,914.76l-93.93,3a23.52,23.52,0,0,0-2.52,13.06,28.52,28.52,0,0,0,1.51,9c13.56,49.73,52.74,64.8,77.36,65.81h3.51c45.71-1.51,58.77-29.14,63.29-50.24h0a6.4,6.4,0,0,1-3-1s-34.16-32.15-46.21-39.68Zm51.73-2-27.12,1c8.54,5,22.1,13.57,27.12,21.6a105.55,105.55,0,0,0,1-13.56,19.3,19.3,0,0,0-1-9Zm-70.32-26.62h0c-18.58.5-29.13,3.51-29.13,3.51h0s-19.09,3-33.15,13.56l125.07-4c-5.53-5.53-14.06-9.55-27.12-11.05h-.51a179.79,179.79,0,0,0-35.16-2Z" transform="translate(-401.24 -50.29)"/><path class="cls-175" d="M963.82,899.19l-125.08,4c-5,4-10,8.54-12.55,14.57l93.93-3c-2.51-1.51,7.53-4.52,7.53-4.52l10.05-.51s3,1.51,7,4l27.12-1a24,24,0,0,0-8-13.56Z" transform="translate(-401.24 -50.29)"/><path class="cls-175" d="M937.7,909.73l-10.05.51s-10,2.51-7.53,4.52h0c12,8,45.71,39.68,45.71,39.68a6.35,6.35,0,0,0,3,1h0c1.51-7.53,2.51-14.06,3-18.08v-1.51c-5-8-18.58-17.07-27.12-21.59a51.61,51.61,0,0,0-7-4.53Z" transform="translate(-401.24 -50.29)"/><path class="cls-176" d="M905.55,1005.67Zm-3.52,0h0ZM937.2,888.14h0c13.06,1.5,21.59,6,27.12,11.05a33.12,33.12,0,0,1,8,14.06c1,3,1,6,1.5,9.54-1-15.06-8-30.64-36.66-34.65Zm-65.3,1.5h0s-49.73,8-48.73,41.19a33.75,33.75,0,0,1,2.51-13.06c2.52-6,7.54-10.55,12.56-14.57,14.57-10.54,33.66-13.56,33.66-13.56Zm29.63-3.51a179.79,179.79,0,0,1,35.16,2,179.79,179.79,0,0,0-35.16-2Zm0,0Z" transform="translate(-401.24 -50.29)"/><g class="cls-54"><path class="cls-7" d="M831.21,957l88.91-42.19,49.22,40.68s-9.54,46.22-58.26,49.73C861.85,1007.68,852.31,976.54,831.21,957Z" transform="translate(-401.24 -50.29)"/></g><g class="cls-177"><g class="cls-178"><path class="cls-5" d="M1501.28,382.82h-25.11l.5,41.69H1183.83l-1.51-41.69h-23.61l2,48.22c.5,12.56,14.07,22.1,31.14,22.1h278.78c17.58,0,32.15-10.55,31.65-24.11Z" transform="translate(-401.24 -50.29)"/></g></g><g class="cls-4"><path d="M2016.65,1249.8c35.16-53.75,20.09-126.08-33.65-161.75-53.75-35.16-126.08-20.09-161.75,33.66-35.16,53.74-20.09,126.08,33.66,161.74A116.22,116.22,0,0,0,2016.65,1249.8Z" transform="translate(-401.24 -50.29)"/></g><path class="cls-179" d="M1992.54,1230.71a104.14,104.14,0,1,0-144.16,30.14C1896.6,1292,1961.4,1278.43,1992.54,1230.71Z" transform="translate(-401.24 -50.29)"/><path class="cls-180" d="M1972.45,1217.65c24.11-37.17,14.06-86.9-23.11-111s-86.9-14.07-111,23.1-14.06,86.9,23.11,111S1948.34,1254.32,1972.45,1217.65Z" transform="translate(-401.24 -50.29)"/><path class="cls-179" d="M2019.66,1250.3a11.2,11.2,0,0,1-15.57,3L1983,1239.75l14.56-22.1,21.1,13.56a11.21,11.21,0,0,1,3,15.57Z" transform="translate(-401.24 -50.29)"/><path class="cls-181" d="M1849.88,1205.59l116-62.28s18.08,32.65-5.53,67.31C1934.27,1249.29,1872.49,1246.28,1849.88,1205.59Z" transform="translate(-401.24 -50.29)"/><path class="cls-5" d="M1312.92,374.78h146.67c6,0,4.52,7,14.07,22.1,13.56,6,32.65.5,29.13-17.58l-13.56-36.67a29.15,29.15,0,0,0-29.13-29.13H1201.41a29.16,29.16,0,0,0-29.14,29.13l-13.56,36.67c-5.52,17.58,15.07,23.11,29.14,17.58,9.54-15.07,8-22.1,14.06-22.1h111Z" transform="translate(-401.24 -50.29)"/><path class="cls-6" d="M1329,589.77c-155.71,0-266.72-25.62-395.81-54.76C886,524.47,837.24,513.42,782,502.36l1.51-8c55.25,11.05,104,22.1,151.19,33.15,133.62,30.64,239.6,54.75,393.81,54.75,237.59,0,531.94-88.4,535-89.41l2.51,8C1862.94,500.86,1567.59,589.77,1329,589.77Z" transform="translate(-401.24 -50.29)"/><g class="cls-4"><polygon class="cls-5" points="741.9 1228.64 741.9 1228.64 741.9 1228.64 738.39 1228.14 731.86 1227.63 725.33 1218.09 724.83 1217.59 719.3 1216.08 719.3 1216.08 546.01 1481.3 554.04 1486.83 559.07 1489.84 567.61 1495.36 572.63 1498.88 745.92 1233.66 745.92 1233.16 743.41 1230.15 741.9 1228.64"/><polygon class="cls-5" points="752.45 1184.94 721.81 1212.57 727.84 1214.07 733.87 1224.62 744.42 1225.12 747.93 1229.64 760.99 1190.46 767.52 1171.38 752.45 1184.94"/></g><g id="pencils"><polygon class="cls-182" points="743.91 1213.57 733.87 1212.57 727.34 1202.52 721.31 1200.51 547.51 1466.23 574.13 1483.31 747.93 1218.09 743.91 1213.57"/><polygon class="cls-183" points="721.31 1200.51 721.31 1200.51 547.51 1466.23 553.04 1469.24 727.34 1202.52 721.31 1200.51"/><polygon class="cls-184" points="727.34 1202.52 553.04 1469.24 561.08 1474.77 732.36 1212.57 727.34 1202.52"/><polygon class="cls-185" points="732.36 1212.57 561.08 1474.77 569.11 1480.3 743.91 1213.07 732.36 1212.57"/><polygon class="cls-183" points="569.11 1480.3 574.13 1483.31 747.93 1218.09 747.93 1218.09 743.91 1213.07 569.11 1480.3"/><polygon class="cls-186" points="763 1174.89 754.46 1169.37 723.82 1197.5 729.85 1199 735.88 1209.05 746.43 1210.05 749.94 1214.07 763 1174.89"/><polygon points="769.53 1155.81 754.46 1169.37 763 1174.89 769.53 1155.81"/></g><path class="cls-187" d="M940.21,1315.1H938.7l-47.21,16.57,50.23,5h1.5c0-2,.51-4,0-6v-1a28.77,28.77,0,0,0-.5-6.53c-.5-1.5-.5-3-1-4.52C941.21,1317.61,940.71,1316.1,940.21,1315.1Z" transform="translate(-401.24 -50.29)"/><path class="cls-188" d="M942.22,1340.71h-1.51l-40.18-4h0l7,43.71h0l1,7c7.54-1.51,14.57-4,20.6-8.54a61.23,61.23,0,0,0,15.57-16.58c4-6.53,6-13.56,7-21.09Z" transform="translate(-401.24 -50.29)"/><path class="cls-189" d="M891.49,1331.67l47.21-16.57A51.93,51.93,0,0,0,909.07,1284l-17.58,47.72Z" transform="translate(-401.24 -50.29)"/><path class="cls-190" d="M891.49,1331.67h0L909.57,1284a49.64,49.64,0,0,0-27.13-3c-1.5.5-3,.5-5,1-.5,0-.5,0-1,.51l-4.52,1.5h-.51c-1.5.5-3,1.51-4.52,2h0l-4.52,3h0a13.57,13.57,0,0,0-4,3.51l-.5.5a23.33,23.33,0,0,0-3.51,3.52l-.51.5c-1,1-2,2.51-3,3.52l-.5.5-3,4.52h0c-4,6.53-6,13.56-7,21.1,0,2-.5,4,0,6v1c0,2,.5,4.52.5,6.53a14.74,14.74,0,0,0,1,4.52,34.21,34.21,0,0,0,1.5,4,51.42,51.42,0,0,0,12.06,19.09,25.22,25.22,0,0,0,4,3.51l.5.51c1.51,1,2.51,2,4,3l.5.5c1.51,1,3,1.51,4.52,2.51h.5a14.94,14.94,0,0,0,5,2h0a51.15,51.15,0,0,0,12.56,3h7.53c2,0,4-.51,5.53-.51h.5l-9-50.73Z" transform="translate(-401.24 -50.29)"/><g class="cls-2"><path class="cls-3" d="M926.14,1547.66v-8.54a378.67,378.67,0,0,0,41.7-2.51l1,8.54A412.84,412.84,0,0,1,926.14,1547.66Zm-42.69-1q-21.11-1.52-42.19-4.52l1-8.54c14.06,2,27.63,3.51,41.69,4.52Zm127.08-7-1.5-8q20.34-3.77,40.68-9l2,8C1038.16,1533.6,1024.09,1537.11,1010.53,1539.63Zm-211-5.53a263,263,0,0,1-40.18-14.57l3.52-7.53a284,284,0,0,0,39.18,14.06ZM1091.91,1517l-3-8c13.06-4.53,26.12-10,38.68-15.58l3.52,7.54A377,377,0,0,1,1091.91,1517Zm-370.2-17.08a392.59,392.59,0,0,1-35.17-23.6l5-6.53c11,8.53,23.1,16.07,34.66,23.1Zm447.55-17.07-4-7.54c12.06-6.53,24.11-13.56,36.17-20.59l4.52,7C1193.87,1469.3,1181.32,1476.34,1169.26,1482.87Zm-515.87-33.66q-15.82-14.31-30.14-30.14l6-5.52c9,10,19.09,20.09,29.14,29.63Zm1097.54-9.54v-8.54c14.07,0,28.13-1,41.69-2l1,8.54A400.51,400.51,0,0,1,1750.93,1439.67Zm-509.34-1-5-7c11-7.53,22.6-16.07,33.65-24.61l5,6.53C1264.2,1422.59,1252.64,1430.63,1241.59,1438.66Zm467.15-1q-21.1-2.27-42.2-6l1.51-8c13.56,2.51,27.63,4.52,41.19,6Zm126.58-7-2-8a369.09,369.09,0,0,0,40.18-11.55l3,8A356.14,356.14,0,0,1,1835.32,1430.63Zm-210-9.05a383.19,383.19,0,0,1-40.18-14.56l3.52-7.54a327.44,327.44,0,0,0,39.18,14.07ZM1915.69,1402l-4-7.53a276.49,276.49,0,0,0,35.16-22.1l5,6.53A339.25,339.25,0,0,1,1915.69,1402ZM1547,1388.43a292.49,292.49,0,0,1-35.66-23.61l5-6.53A274.26,274.26,0,0,0,1551,1380.9Zm-238.59-1.5-5.53-6.53c10.55-8.54,21.1-18.09,31.65-27.63l5.52,6C1329.5,1368.84,1319,1378.39,1308.4,1386.93Zm-711.77-1a391.23,391.23,0,0,1-23.1-35.66l7.53-4c6.53,12,14.57,23.61,22.6,35.16Zm1386.87-35.66-6-5.53c9.54-10,17.58-21.1,25.12-32.65l7,4.52C2002.08,1328.66,1993,1339.71,1983.5,1350.26Zm-504.32-13.57a211.87,211.87,0,0,1-26.62-33.65l7-4.52a257.94,257.94,0,0,0,25.62,32.15Zm-108-6.53-6-6c9.54-9.55,19.59-19.09,29.64-29.64l6,6C1390.78,1311.08,1380.73,1321.12,1371.19,1330.16Zm-816.25-18.08a293.27,293.27,0,0,1-14.06-40.18l8-2.51c3.52,13.06,8.54,26.12,14.07,39.18Zm1473.26-34.66-8-2.51a323.15,323.15,0,0,0,8.54-40.69l8.53,1A400.26,400.26,0,0,1,2028.2,1277.42Zm-597.74-7.53-6-6c2-2,4-4.52,6-6.53-4-11-6.53-22.6-8.54-34.16l8.54-1.5a199.45,199.45,0,0,0,7,28.63c5.53-6,10.55-11.55,16.08-17.58l6,5.52c-6,7-12.55,13.57-19.08,20.6.5.5.5,1.5,1,2l-4.52,2C1434.48,1265.87,1432.47,1267.88,1430.46,1269.89Zm-899.13-39.68a396.08,396.08,0,0,1-3.51-42.7h8.54a278.9,278.9,0,0,0,3.51,41.19Zm955.89-22.11-6-5.52,6-6.53c7.53-8.54,15.07-16.58,22.6-24.61l6,5.52c-7.53,8-14.57,16.08-22.6,24.61Zm544.5-15.06h0c0-14.57-1-28.64-3.52-41.19l8-1.51c2.51,13.06,3.52,27.63,3.52,42.19ZM1428,1181.48l-8.54-.5a203.07,203.07,0,0,1,6-42.19l8,2A226.32,226.32,0,0,0,1428,1181.48Zm-889.59-35.66-8.53-1a308.24,308.24,0,0,1,7.53-42.19l8,2A414.71,414.71,0,0,0,538.36,1145.82Zm1006.12,0-6-6c11-11.55,20.59-21.6,29.63-30.14l6,6C1565.08,1124.22,1555,1134.27,1544.48,1145.82Zm471.17-32.65a132,132,0,0,0-22.61-33.66l6-5.52a151.59,151.59,0,0,1,24.11,36.16ZM1446,1100.61l-8-3a380,380,0,0,1,18.09-38.68l7.53,4A280,280,0,0,0,1446,1100.61Zm158.73-13.06-5.53-6.53a238,238,0,0,1,34.66-24.61l4,7.53C1627.87,1069.47,1616.82,1077.5,1604.76,1087.55ZM557.45,1065l-8-3c4.52-13.06,10-26.12,16.07-39.18l7.53,3.52C567.5,1039.33,562,1052.39,557.45,1065Zm1404-11a170.17,170.17,0,0,0-37.68-16.08l2.52-8a189.36,189.36,0,0,1,39.68,17.07Zm-284.81-4-2-8c14.06-3.52,28.13-6.53,41.19-9l1.51,8Q1697.69,1044.61,1676.59,1049.88Zm81.88-16.58-1-8.54c14.57-2,28.63-4,42.19-5l.51,8.54C1787.1,1029.79,1773,1031.29,1758.47,1033.3Zm125.07-4a366.35,366.35,0,0,0-41.69-2.51v-8.54a384.4,384.4,0,0,1,42.69,2.51Zm-398.83-2-7-4.52a396.17,396.17,0,0,1,25.11-34.15l6.53,5C1500.78,1004.67,1492.24,1016.22,1484.71,1027.27ZM592.61,989.6l-7.53-4C590.6,976,596.63,966.5,602.66,957l7,4.52C604.17,970.51,598.14,980.06,592.61,989.6Zm943.84-28.13-6-5.52c9-10.05,18.58-20.1,29.13-30.64l6,6C1555,941.88,1545.49,951.43,1536.45,961.47Zm59.27-58.77-5.53-6c10.55-9.54,21.1-19.08,31.65-28.12l5.52,6.53C1616.82,883.61,1606.27,893.16,1595.72,902.7ZM1659,847l-5.53-6.53c11-9.55,21.6-18.59,31.65-27.63l5.52,6.53C1680.61,828.36,1669.56,837.4,1659,847Zm62.79-56.76-6-6A386.73,386.73,0,0,0,1744.4,754l6.53,5.53A405.65,405.65,0,0,1,1721.8,790.19Zm55.25-64.3-7-4.52a259.31,259.31,0,0,0,20.09-36.17l7.54,3.52C1792.62,701.28,1785.59,713.33,1777.05,725.89Z" transform="translate(-401.24 -50.29)"/></g></svg>